<svg class="icon" aria-hidden="true" viewBox="0 0 59 59" fill="none" xmlns="http://www.w3.org/2000/svg">
<circle cx="37" cy="37" r="35" fill="#A7BDC6"/>
<path d="M51.4211 33.2387C53.1462 34.272 53.9869 36.3211 53.5841 38.2914L53.4177 39.1321L49.0568 60.7176H39.7483L44.0917 39.2109L44.2756 38.2914L44.4245 37.5383C44.4245 37.5383 44.4245 37.4683 44.4245 37.4333C44.4245 37.048 44.3807 36.6714 44.2931 36.3124C43.7852 34.2108 42.4717 32.7308 40.2124 32.7308L49.8449 32.652C50.4054 32.7571 50.9308 32.9585 51.4124 33.2387H51.4211Z" fill="white"/>
<path d="M38.8989 18.7024C38.8989 18.8863 38.8814 19.0614 38.8464 19.2366L38.645 20.2524L35.7289 34.6836L34.9671 38.4578L30.4749 60.7176H21L29.1 20.6114L29.3715 19.2716L29.3978 19.1402C29.4853 18.7024 29.5029 18.2558 29.424 17.8267C29.065 15.8915 27.5413 14.3678 25.6061 14H35.0196C37.2439 14.4116 38.9252 16.3643 38.9252 18.7024H38.8989Z" fill="white"/>
</svg>
