<svg width="60" height="60" viewBox="0 0 60 60" fill="none" xmlns="http://www.w3.org/2000/svg">
<path d="M31.438 30.097C31.6144 30.013 31.7543 29.957 31.8803 29.8814C32.947 29.2515 34.0137 28.6188 35.0775 27.9833C36.161 27.3365 37.2501 26.701 38.3196 26.0291C39.0475 25.5699 39.7418 25.0604 40.4529 24.5733C41.1052 24.1281 41.2312 23.5318 40.982 22.8123C40.8645 22.4707 40.7777 22.118 40.6825 21.7708C40.6293 21.5776 40.6825 21.4124 40.8533 21.3089C41.0296 21.2025 41.2032 21.2865 41.3068 21.418C41.6512 21.8576 42.0151 22.2915 42.2979 22.7731C42.953 23.8845 43.5829 25.0156 44.1877 26.1551C44.4816 26.7094 44.714 27.2973 44.9492 27.8797C45.0416 28.112 44.9212 28.2156 44.6776 28.1372C44.5348 28.0896 44.3864 28.0253 44.2689 27.9329C43.5969 27.3953 42.8802 27.3925 42.1523 27.7677C40.9149 28.406 39.6802 29.0499 38.4595 29.7191C37.4881 30.251 36.5306 30.8109 35.5815 31.3821C34.9544 31.76 34.3468 32.1688 33.7449 32.5803C33.367 32.8379 33.3614 33.0087 33.7477 33.2718C34.3496 33.6834 34.9628 34.0837 35.5983 34.4421C36.6426 35.0328 37.7008 35.5984 38.7675 36.1471C39.949 36.7546 41.1388 37.3537 42.3427 37.9193C43.1826 38.314 43.0734 38.3 43.8377 37.6729C44.1233 37.4405 44.3724 37.1634 44.644 36.9142C44.8456 36.7294 45.0668 36.5866 45.3635 36.6006C45.6855 36.6174 45.8059 36.7658 45.6771 37.0654C45.5259 37.4181 45.3635 37.7709 45.1704 38.0985C44.5488 39.1427 43.9021 40.173 43.2806 41.2173C42.8746 41.8976 42.5023 42.5947 42.1047 43.2806C41.8779 43.6698 41.5168 43.751 41.2956 43.4458C41.1976 43.3114 41.1528 43.1015 41.164 42.9307C41.1808 42.6647 41.2564 42.4016 41.3292 42.1412C41.3796 41.962 41.332 41.8444 41.206 41.71C40.4781 40.9401 39.5934 40.3774 38.6947 39.8427C36.8609 38.7564 35.0188 37.6897 33.1738 36.6202C32.8154 36.4131 32.4459 36.2199 32.0763 36.0351C31.8299 35.9091 31.7319 35.9595 31.7179 36.2395C31.6844 36.9366 31.6564 37.6365 31.6536 38.3336C31.6536 39.8875 31.6564 41.4441 31.6844 42.9979C31.7095 44.4537 31.7599 45.9067 31.8215 47.3598C31.8355 47.6593 31.9251 47.9645 32.0203 48.2529C32.1463 48.6336 32.4543 48.8576 32.8014 49.0312C33.0002 49.132 33.2046 49.2243 33.3865 49.3503C33.4761 49.4119 33.5209 49.5407 33.5853 49.6387C33.4873 49.6947 33.3977 49.7815 33.2942 49.7983C32.9694 49.8543 32.6418 49.9047 32.3115 49.9215C31.7655 49.9523 31.2196 49.9663 30.6737 49.9747C29.5202 49.9942 28.3639 50.0055 27.2105 50.0167C27.0733 50.0167 26.9305 50.0167 26.7989 49.9803C26.5526 49.9159 26.4994 49.6947 26.6925 49.5323C26.8073 49.4371 26.9473 49.3559 27.0901 49.3083C27.7032 49.104 28.07 48.6896 28.1652 48.0513C28.2128 47.7321 28.2744 47.413 28.2828 47.091C28.3052 46.2763 28.3024 45.4616 28.3108 44.6441C28.3192 43.4122 28.3303 42.1804 28.3359 40.9485C28.3387 39.8875 28.3415 38.8264 28.3359 37.7653C28.3331 37.2334 28.3108 36.7042 28.2968 36.1723C28.2968 36.0911 28.28 36.0071 28.2632 35.8755C28.0448 35.9735 27.8488 36.0379 27.6752 36.1415C27.0481 36.5166 26.4322 36.9086 25.8078 37.2866C25.0715 37.7317 24.3268 38.1657 23.5877 38.608C22.4454 39.2883 21.2976 39.963 20.1637 40.6574C19.7298 40.9205 19.3294 41.2341 18.9095 41.5225C18.4251 41.8556 18.2319 42.2896 18.3747 42.8775C18.4335 43.1211 18.4559 43.3786 18.4643 43.6334C18.4671 43.751 18.4195 43.9498 18.3523 43.9694C18.2347 44.003 18.0528 43.9694 17.9576 43.8882C17.77 43.7342 17.5992 43.5438 17.4676 43.3394C16.8993 42.4547 16.345 41.556 15.785 40.6658C15.4407 40.1198 15.0879 39.5767 14.7548 39.0252C14.6204 38.804 14.5084 38.5632 14.4244 38.3168C14.3908 38.216 14.4132 38.0341 14.486 37.9725C14.5588 37.9081 14.7408 37.9053 14.8387 37.9501C15.0095 38.0285 15.1551 38.1629 15.3063 38.2832C15.5107 38.4456 15.715 38.6108 15.911 38.7816C16.0846 38.9328 16.2722 38.944 16.4682 38.8488C17.1653 38.5072 17.8736 38.1881 18.5511 37.8073C20.5557 36.679 22.5462 35.5312 24.5396 34.3805C25.1051 34.0529 25.6567 33.703 26.211 33.353C26.463 33.1934 26.4686 33.1039 26.211 32.9387C25.7127 32.6195 25.2115 32.3031 24.6936 32.0148C23.2573 31.2141 21.8211 30.4078 20.3653 29.6407C19.0998 28.9771 17.812 28.3528 16.5213 27.7397C15.9082 27.4485 15.673 27.5297 15.2111 28.0421C15.0571 28.2128 14.9087 28.392 14.7464 28.5572C14.626 28.6804 14.5336 28.8876 14.2956 28.7644C14.038 28.6272 13.8953 28.3528 13.9737 28.0896C14.0352 27.8853 14.1136 27.6809 14.2116 27.4905C14.514 26.911 14.8275 26.3371 15.1411 25.7631C15.6507 24.8336 16.1574 23.8985 16.6809 22.9775C16.8237 22.7255 17.0085 22.4931 17.2045 22.2775C17.2801 22.1935 17.4592 22.1152 17.5432 22.1516C17.6552 22.1991 17.7868 22.3531 17.7924 22.4679C17.8064 22.8403 17.812 23.2238 17.7392 23.5878C17.658 23.9853 17.8064 24.2597 18.0836 24.4753C18.5035 24.8 18.9263 25.1276 19.3798 25.3936C21.236 26.4854 23.1006 27.5577 24.9679 28.6328C25.847 29.1395 26.7373 29.6295 27.6192 30.1278C27.8964 30.2846 27.9804 30.2594 28 29.943C28.0392 29.3523 28.0616 28.7588 28.0616 28.168C28.0616 26.729 28.0448 25.29 28.0308 23.851C28.0112 21.8268 27.9944 19.7998 27.9664 17.7757C27.9412 16.0203 27.9188 14.2649 27.8656 12.5095C27.8544 12.1399 27.7424 11.7704 27.6416 11.4092C27.5548 11.1013 27.3225 10.9557 26.9949 10.9053C26.5946 10.8437 26.2054 10.7261 25.8134 10.6253C25.7519 10.6085 25.6763 10.5665 25.6455 10.5133C25.5643 10.3733 25.4411 10.2138 25.4579 10.0738C25.4691 9.9814 25.6819 9.86661 25.8162 9.84421C26.3174 9.76582 26.8213 9.67903 27.3253 9.67063C29.3746 9.63704 31.4212 9.62024 33.4705 9.62024C34.3636 9.62024 35.2567 9.65104 36.147 9.70143C37.0121 9.75182 37.796 10.0626 38.5071 10.5525C39.7306 11.3952 40.6237 12.4983 41.0884 13.9149C41.3292 14.6512 41.3712 15.4212 41.3572 16.1967C41.3432 16.8966 41.2144 17.5741 41.024 18.2404C40.7973 19.0299 40.4137 19.7438 39.921 20.4074C38.9075 21.7708 37.5357 22.6051 35.937 23.0474C35.1139 23.2742 34.2432 23.3414 33.3893 23.4366C32.8714 23.4954 32.3451 23.4702 31.8215 23.4758C31.6228 23.4758 31.5192 23.5542 31.5164 23.7586C31.508 24.3885 31.494 25.0212 31.4856 25.6511C31.466 27.037 31.452 28.4228 31.4352 29.8086C31.4352 29.8814 31.4436 29.9542 31.4492 30.0802L31.438 30.097ZM31.354 19.3827C31.354 19.3827 31.3736 19.3827 31.3848 19.3827C31.3848 19.4611 31.3848 19.5367 31.3848 19.6151C31.3904 20.4018 31.3876 21.1857 31.4072 21.9696C31.4156 22.3027 31.4688 22.3503 31.8103 22.3643C32.2331 22.3839 32.6558 22.3923 33.0786 22.3783C34.624 22.3307 35.9594 21.7652 37.0569 20.6789C37.6756 20.0658 38.1096 19.3323 38.2076 18.4476C38.2524 18.036 38.2468 17.6189 38.2664 17.2017C38.328 15.9279 38.0312 14.7352 37.3817 13.649C36.6902 12.4927 35.7103 11.7088 34.3272 11.5352C33.5405 11.4372 32.7566 11.3308 31.9699 11.258C31.3932 11.2049 31.4324 11.1097 31.3568 11.7704C31.3512 11.8152 31.3428 11.8628 31.3428 11.9076C31.3484 12.9378 31.3568 13.9653 31.3596 14.9956C31.3624 16.457 31.3596 17.9185 31.3596 19.3799L31.354 19.3827Z" fill="#4C1E00"/>
<path d="M29.8366 58.6732C45.7626 58.6732 58.6732 45.7626 58.6732 29.8366C58.6732 13.9106 45.7626 1 29.8366 1C13.9106 1 1 13.9106 1 29.8366C1 45.7626 13.9106 58.6732 29.8366 58.6732Z" stroke="#4C1E00" stroke-width="2" stroke-miterlimit="10"/>
</svg>
