<svg width="60" height="60" viewBox="0 0 60 60" fill="none" xmlns="http://www.w3.org/2000/svg">
<path d="M30 59C46.0163 59 59 46.0163 59 30C59 13.9837 46.0163 1 30 1C13.9837 1 1 13.9837 1 30C1 46.0163 13.9837 59 30 59Z" stroke="#4C1E00" stroke-width="2" stroke-miterlimit="10"/>
<path d="M9.42957 29.3018H22.5584V43.813H20.337V31.0136H11.637V43.813H9.42676V29.3018H9.42957Z" fill="#4C1E00" stroke="#4C1E00" stroke-width="2" stroke-miterlimit="10"/>
<path d="M20.1484 22.6234L28.1699 7.63916H31.1487L39.6967 22.6234H36.5489L34.1135 18.0848H25.3797L23.085 22.6234H20.1513H20.1484ZM26.1737 16.4715H33.2547L31.0755 12.3214C30.4111 11.06 29.9155 10.0239 29.5946 9.21304C29.3299 10.1731 28.9526 11.1276 28.4683 12.0764L26.1737 16.4715Z" fill="#4C1E00" stroke="#4C1E00" stroke-width="2" stroke-miterlimit="10"/>
<path d="M37.5286 43.8076V29.2964H39.9471L49.3088 40.688V29.2964H51.5696V43.8076H49.1511L39.7894 32.4047V43.8076H37.5286Z" fill="#4C1E00" stroke="#4C1E00" stroke-width="2" stroke-miterlimit="10"/>
</svg>
