<svg width="58" height="58" viewBox="0 0 58 58" fill="none" xmlns="http://www.w3.org/2000/svg">
<path d="M28.8369 0.5C44.4866 0.50018 57.1729 13.1872 57.1729 28.8369C57.1727 44.4865 44.4865 57.1727 28.8369 57.1729C13.1872 57.1729 0.50018 44.4866 0.5 28.8369C0.5 13.1871 13.1871 0.5 28.8369 0.5Z" stroke="#798A8D" stroke-miterlimit="10"/>
<path d="M28.8361 27.0968C29.7968 27.0968 30.5761 27.8754 30.5763 28.8361C30.5763 29.7969 29.7969 30.5763 28.8361 30.5763C27.8755 30.576 27.0968 29.7967 27.0968 28.8361C27.0971 27.8756 27.8756 27.0971 28.8361 27.0968Z" stroke="#798A8D"/>
<path d="M29.6837 9.96021L30.9806 18.2815L29.7003 21.6008L28.8361 23.8352L27.9728 21.6008L26.7209 18.3586L28.0314 9.96021L28.8566 4.66528L29.6837 9.96021Z" stroke="#798A8D"/>
<path d="M29.7003 36.072L30.9513 39.3132L29.6418 47.7136L28.8156 53.0066L27.9894 47.7126L26.6916 39.3904L27.9728 36.072L28.8361 33.8376L29.7003 36.072Z" stroke="#798A8D"/>
<path d="M21.6008 27.8579L23.8352 28.7212L21.6008 29.5854L18.3537 30.8384L9.96017 29.5298L4.66525 28.7026L9.96017 27.8774L18.2815 26.5767L21.6008 27.8579Z" stroke="#798A8D"/>
<path d="M28.8367 25.697C30.5706 25.6971 31.9763 27.1028 31.9763 28.8367C31.9763 30.5705 30.5705 31.9763 28.8367 31.9763C27.1028 31.9763 25.6971 30.5706 25.697 28.8367C25.697 27.1027 27.1027 25.697 28.8367 25.697Z" stroke="#798A8D" stroke-miterlimit="10"/>
<path d="M39.3133 26.606L47.7127 27.9165L53.0066 28.7427L47.7137 29.5688L39.3904 30.8657L36.0721 29.5854L33.8377 28.7212L36.0721 27.8579L39.3133 26.606Z" stroke="#798A8D"/>
<path d="M16.0857 14.8898L22.8894 19.8575L24.3308 23.1095L25.2995 25.2999L23.1091 24.3312L19.9294 22.921L14.9206 16.0577H14.9196L11.7614 11.7335L16.0857 14.8898Z" stroke="#798A8D"/>
<path d="M34.5636 33.3419L37.7433 34.7511L42.753 41.6154L45.9112 45.9406L41.587 42.7843L34.7823 37.8146L33.3419 34.5636L32.3722 32.3722L34.5636 33.3419Z" stroke="#798A8D"/>
<path d="M24.2499 34.4824L22.8417 37.6611L15.9765 42.6748L11.6513 45.8311L14.8105 41.5059H14.8114L19.7773 34.7002L23.0282 33.2637L25.2196 32.292L24.2499 34.4824Z" stroke="#798A8D"/>
<path d="M42.7031 16.0073L37.7353 22.8101L34.4824 24.2495L32.2929 25.2192L33.2636 23.0278L34.6679 19.8511L41.5371 14.8394L45.8584 11.6831L42.7031 16.0073Z" stroke="#798A8D"/>
</svg>
