<svg class="icon" viewBox="0 0 75 75" fill="none" xmlns="http://www.w3.org/2000/svg">

<path d="M69.39 0H5.28C2.36394 0 0 2.36394 0 5.28V69.39C0 72.3061 2.36394 74.67 5.28 74.67H69.39C72.3061 74.67 74.67 72.3061 74.67 69.39V5.28C74.67 2.36394 72.3061 0 69.39 0Z" fill="#A7BDC6"/>
<path d="M52.95 32.63C54.92 33.81 55.88 36.15 55.42 38.4L55.23 39.36L50.25 64.01H39.62L44.58 39.45L44.79 38.4L44.96 37.54C44.96 37.54 44.96 37.46 44.96 37.42C44.96 36.98 44.91 36.55 44.81 36.14C44.23 33.74 42.73 32.05 40.15 32.05L51.15 31.96C51.79 32.08 52.39 32.31 52.94 32.63H52.95Z" fill="white"/>
<path d="M38.65 16.03C38.65 16.24 38.63 16.44 38.59 16.64L38.36 17.8L35.03 34.28L34.16 38.59L29.03 64.01H18.21L27.46 18.21L27.77 16.68L27.8 16.53C27.9 16.03 27.92 15.52 27.83 15.03C27.42 12.82 25.68 11.08 23.47 10.66H34.22C36.76 11.13 38.68 13.36 38.68 16.03H38.65Z" fill="white"/>
</svg>
