<svg width="75" height="75" viewBox="0 0 75 75" fill="none" xmlns="http://www.w3.org/2000/svg">
<path d="M33.5051 22.3671C34.0363 22.1272 34.5532 22.1015 35.073 22.4185C35.7212 22.8126 35.8355 23.4609 35.2871 24.2063C35.3071 23.9721 35.3157 23.8293 35.3357 23.6865C35.4471 22.8469 34.8302 22.3014 33.9934 22.4814C33.4537 22.5956 33.171 22.9497 33.0396 23.4438C32.8311 24.2292 32.457 24.9317 31.9886 25.5828C31.7801 25.8741 31.5288 26.1312 31.229 26.4853C31.4517 26.4853 31.5974 26.4796 31.7402 26.4853C32.3999 26.5196 33.0567 26.571 33.7164 26.5852C34.3076 26.5995 34.9073 26.6366 35.4871 26.5453C36.1411 26.4425 36.3552 25.8227 36.5152 25.2915C36.6694 24.7832 36.281 24.4633 35.8183 24.2806C35.8783 24.2063 35.9154 24.1463 35.9269 24.1492C36.4866 24.3548 37.0835 24.4376 37.529 24.9317C38.0916 25.5571 38.737 26.1026 39.3453 26.6852C39.4938 26.828 39.6709 26.9622 39.7566 27.1393C40.0793 27.7904 40.3706 28.4558 40.7076 29.1927C39.9936 29.1927 39.5938 28.6786 39.0426 28.5387C39.0426 28.4044 39.0369 28.2902 39.0426 28.1788C39.0855 27.5448 38.8798 27.1678 38.4172 27.0422C37.9831 26.9251 37.2863 27.2507 37.0921 27.6876C36.8693 28.1845 36.6951 28.7014 36.4609 29.1927C36.2353 29.6639 35.9554 30.1065 35.6955 30.5663C35.8869 30.8947 36.181 30.9147 36.478 30.9119C37.3462 30.9033 38.2001 30.9747 39.0398 31.2203C39.6195 31.3888 39.9908 31.226 40.1421 30.8319C40.342 30.3093 40.165 29.9009 39.6138 29.601C39.4396 29.5068 39.2711 29.3954 39.094 29.2869C39.194 29.0441 39.3596 28.9813 39.5424 29.0698C39.9108 29.2469 40.2678 29.4497 40.6248 29.6496C40.8589 29.781 40.9361 29.9951 40.9989 30.2607C41.1074 30.7205 41.2902 31.1661 41.4587 31.6087C41.5301 31.8001 41.6843 31.9628 41.7414 32.1542C42.0555 33.2565 42.878 33.942 43.8119 34.416C45.0828 35.0586 45.7025 36.0439 45.9224 37.4004C46.0795 38.3714 46.5078 38.8483 47.3932 39.1939C47.1561 38.7998 46.9134 38.4799 46.7563 38.1201C46.5535 37.666 46.4222 37.1834 46.2508 36.7121C46.1423 36.4151 46.0823 36.081 45.9024 35.8325C45.3341 35.0358 44.7829 34.1818 43.8233 33.8077C42.8895 33.445 42.5239 32.6511 42.1526 31.8457C41.8985 31.2917 41.6614 30.732 41.453 30.1579C41.3873 29.9809 41.4273 29.7581 41.453 29.5582C41.5015 29.1612 41.5701 28.7643 41.63 28.3673C41.5758 28.3473 41.5186 28.3273 41.4644 28.3073C41.3273 28.5958 41.1874 28.8842 40.9903 29.2983C40.7818 28.6386 40.6133 28.1274 40.4563 27.6134C40.2935 27.0793 40.0622 26.6138 39.5938 26.2568C39.3882 26.0997 39.2654 25.7742 39.1997 25.5029C39.0883 25.0402 39.0597 24.5547 38.9741 24.0835C38.9455 23.935 38.8398 23.8008 38.7028 23.5266C38.5114 24.1749 39.1169 24.6318 38.7113 25.1116C38.1459 24.7032 35.6813 21.7074 35.3585 21.0277C35.2386 21.042 35.1072 21.0591 34.8588 21.0877C35.5813 22.1272 36.3809 23.0068 37.2063 24.0264H36.4009C36.4895 23.9122 36.5466 23.8408 36.6294 23.7379C35.6413 22.6784 34.913 21.3904 33.785 20.5251C33.4451 20.7536 33.0624 21.0077 32.6655 21.2733C33.131 21.6931 33.8478 21.5646 34.4075 21.8702C33.2652 22.0844 32.3713 21.4475 31.486 21.0077C31.4517 20.7164 31.4032 20.4737 31.4003 20.2309C31.3889 19.6312 31.3061 19.0829 30.9891 18.5231C30.6606 17.9405 30.7806 17.7521 31.229 17.0809C30.9862 16.3841 31.0262 15.8529 32.2913 15.6187C32.2171 15.4759 32.1314 15.3446 32.0829 15.2018C32 14.9562 32.0743 14.7277 32.2913 14.6049C32.7626 14.3336 33.2652 14.2136 33.7907 14.4535C34.1419 14.6135 34.2562 15.099 34.0106 15.4474C33.8821 15.6301 33.705 15.7844 33.5022 16.0043C33.6964 16.0528 33.8535 16.0928 34.0477 16.1413C34.1648 15.7986 34.1676 15.3903 34.5903 15.2675C34.9187 15.1732 35.2272 15.079 35.5784 15.2589C36.2096 15.5816 36.2896 15.89 35.8269 16.684C36.3924 16.9124 36.8779 17.218 36.8093 17.9405C36.7436 18.6317 36.1296 18.783 35.6184 19.0772C35.7184 19.2085 35.7841 19.2942 35.8498 19.3828C36.2667 19.9482 36.2981 20.0367 35.904 20.5936C35.6441 20.962 35.6727 21.2562 35.9354 21.5789C36.1582 21.8559 36.3695 22.1415 36.5951 22.4328C36.6694 22.3443 36.7208 22.3129 36.7208 22.2843C36.6551 21.3704 37.0521 20.7421 37.806 20.2281C38.3429 19.8625 38.7856 19.3456 39.2311 18.8601C39.4339 18.6402 39.5395 18.3289 39.7423 17.9691C38.817 17.952 38.3001 18.6145 37.5319 18.8173C39.074 17.3408 42.9723 16.5383 44.7829 17.3208C43.1094 17.0495 41.4815 17.1466 39.848 17.8463C39.9508 18.6831 40.0136 19.4827 40.7533 20.0967C41.8014 20.9678 41.9699 22.3157 41.2502 23.3496C40.7875 24.0121 40.185 24.1549 39.4738 23.7722C39.3767 23.7208 39.2768 23.6723 39.1768 23.6237C38.9141 22.9897 38.8199 22.9412 38.3515 23.201C38.0545 23.221 37.7603 23.241 37.4005 23.2639C37.7203 23.7294 37.9859 24.1206 38.46 24.3548C38.4172 23.935 38.3801 23.5637 38.3429 23.1896C38.48 23.2439 38.6199 23.2867 38.7513 23.3524C38.9027 23.4295 39.0483 23.5238 39.194 23.6094C39.2825 24.3034 39.3539 25.0002 39.4681 25.6885C39.5167 25.9884 39.6052 26.0284 40.165 26.3111C40.1935 26.1483 40.2421 25.9998 40.2421 25.8484C40.2478 25.223 40.5905 24.826 41.116 24.5804C41.7443 24.2863 42.3925 24.0292 43.0323 23.7579L43.0208 23.7437C42.8009 24.1663 42.3668 24.2634 41.9784 24.4376C41.6072 24.6033 41.2131 24.7432 40.8761 24.966C40.482 25.2259 40.3049 25.9741 40.4705 26.3882C40.6076 26.728 41.1302 27.0079 41.6072 26.9965C41.7614 26.9936 41.9156 26.9965 42.1355 26.9965C42.1355 27.2192 42.1355 27.4163 42.1355 27.6134C42.1384 27.819 42.1298 28.0246 42.1555 28.2274C42.2098 28.6643 42.5068 28.9099 42.8895 29.047C43.2979 29.1955 43.6063 28.9899 43.8405 28.6872C44.0204 28.4558 44.2089 28.2074 44.2945 27.9332C44.8172 26.2654 44.4145 24.669 43.9319 23.0411C43.7662 23.1125 43.6663 23.1554 43.5634 23.201L43.5806 23.2153C43.6748 23.044 43.7691 22.8726 43.9461 22.5499C44.0889 23.0068 44.206 23.3096 44.2803 23.6237C44.5287 24.6861 44.8315 25.7485 44.7201 26.8566C44.6287 27.7819 44.4202 28.6643 43.5577 29.2441C44.8057 29.7096 45.9852 29.4497 47.3503 28.3759C46.8734 29.601 47.0704 30.7748 46.9733 31.9257C46.9248 32.4997 46.7849 33.0481 46.4564 33.5393C46.1594 33.9848 45.8224 34.3732 45.1599 34.456C45.6025 35.0415 46.0081 35.5755 46.425 36.1267C46.6278 35.8754 46.8191 35.6098 47.0419 35.3699C47.3046 35.09 47.6388 34.9472 48.03 34.9958C49.3751 35.1614 50.4804 34.6331 51.4885 33.8106C51.5142 33.7906 51.5684 33.802 51.6541 33.7963C51.4999 34.2847 51.3542 34.7559 51.2029 35.2271C51.0401 35.7326 50.9601 36.2438 51.0372 36.7778C51.0772 37.072 51.0858 37.369 51.0887 37.666C51.0972 38.557 50.7174 39.1996 49.8663 39.5337C49.7635 39.5737 49.6607 39.6223 49.5236 39.6822C49.6407 39.8993 49.7435 40.0878 49.8349 40.2563C49.695 40.579 49.4494 40.5447 49.2323 40.4905C48.5926 40.3277 47.9586 40.1735 47.4189 39.7365C46.8734 39.2967 46.1966 39.014 45.811 38.1801C45.7111 38.4971 45.6511 38.6513 45.614 38.8112C45.5311 39.1511 45.3284 39.4081 45.0057 39.4966C44.146 39.7394 43.2864 39.9336 42.3983 39.5566C42.0298 39.3995 41.6072 39.3624 41.2045 39.2881C40.9389 39.2367 40.6676 39.2167 40.3563 39.1768C40.2049 39.9221 39.7908 40.4505 38.9769 40.539C38.4058 40.6018 37.9945 40.2763 37.7489 39.8222C37.5033 39.371 37.4033 38.8569 37.8032 38.3771C37.8032 38.6427 37.7832 38.914 37.806 39.1768C37.8603 39.7736 38.3258 40.2506 38.837 40.2677C39.3853 40.2848 39.8708 39.8907 39.9879 39.2996C40.0336 39.0654 39.9879 38.8112 40.0336 38.577C40.0679 38.3885 40.1478 38.1943 40.2564 38.0373C40.5277 37.6432 40.8447 37.2776 41.1131 36.8806C41.2845 36.6265 41.4016 36.338 41.4872 35.9982C40.7276 36.5893 39.9793 37.1577 38.9741 37.0406C38.5343 36.9892 38.103 36.8521 37.5633 36.7293C37.7289 36.5094 37.8003 36.3723 37.906 36.2781C38.6771 35.5898 39.0026 34.7273 38.9255 33.7049C38.9141 33.545 38.917 33.3851 38.9112 33.2251C38.8713 32.137 39.9651 31.6601 40.8418 31.8857C41.1274 31.9571 41.2845 32.1656 41.2531 32.5254C40.9789 32.0599 40.5591 32.0457 40.125 32.1113C39.5024 32.2056 39.1683 32.6054 39.1568 33.2423C39.154 33.4707 39.1768 33.6992 39.1825 33.9277C39.194 34.8101 38.9141 35.5841 38.3144 36.2381C38.2544 36.3038 38.2001 36.378 38.1459 36.4523C38.1344 36.4665 38.1402 36.4951 38.1259 36.5922C38.9198 36.9149 39.7052 36.9063 40.4249 36.4151C41.0046 36.021 41.5586 35.5869 41.9699 34.9815C42.1784 34.6731 42.5725 34.4874 42.8838 34.2447C42.7695 34.1076 42.6315 34.0847 42.4697 34.1761C42.2269 33.9248 41.9956 33.6878 41.7728 33.4536C41.0731 33.7135 40.9903 34.4132 40.5791 34.8416C40.6904 34.0533 41.0903 33.4622 41.8699 33.0623C41.6043 32.5254 41.3216 32.0314 41.1074 31.5116C40.8961 31.0004 40.7533 30.4635 40.4648 29.9495C40.4648 30.1608 40.4848 30.3721 40.462 30.5806C40.3877 31.2517 40.0336 31.543 39.3539 31.5088C39.2168 31.503 39.074 31.4945 38.9484 31.4488C38.1601 31.1603 37.3405 31.1632 36.518 31.1689C35.9611 31.1746 35.8697 31.1261 35.33 30.6691C35.6156 30.1665 35.924 29.6639 36.1925 29.1441C36.4009 28.7414 36.6037 28.3302 36.7351 27.8989C36.9036 27.3392 37.2406 26.9936 37.786 26.8308C38.6485 26.571 39.3453 27.1079 39.3225 28.016C39.3225 28.1274 39.3111 28.2416 39.3054 28.3787C39.4339 28.4444 39.551 28.5101 39.6738 28.5615C39.7908 28.6129 39.9165 28.65 40.1364 28.73C39.8594 27.9132 39.6281 27.2221 38.9741 26.7023C38.3515 26.2111 37.8289 25.5971 37.2606 25.0374C37.152 24.9317 37.0321 24.8317 36.8207 24.6404C36.8836 25.3429 36.598 25.8142 36.2924 26.2825C36.0611 26.6367 35.7469 26.8251 35.3243 26.8308C34.6417 26.8394 33.9677 26.868 33.2795 26.788C32.4941 26.6938 31.6888 26.788 30.892 26.7994C30.7863 26.7994 30.6835 26.7994 30.4636 26.7994C30.9748 26.2911 31.4117 25.8599 31.9058 25.3686C30.9148 24.9346 30.6664 24.172 30.6349 23.281C31.0262 23.9179 30.9919 24.8831 32.0829 25.0574C32.2942 24.5947 32.5027 24.1206 32.7254 23.6523C32.9282 23.2239 33.1424 22.8012 33.3509 22.3757C33.4051 22.3728 33.4594 22.3671 33.5165 22.3643L33.5051 22.3671ZM34.953 18.8401C35.4642 18.8744 35.9469 18.8173 36.3353 18.4346C36.6751 18.0976 36.678 17.4893 36.3038 17.238C35.9611 17.0067 35.5699 16.8867 35.1415 16.9895C34.7931 17.0724 34.6103 17.2951 34.5303 17.6378C34.4133 18.1433 34.6589 18.5089 34.9673 18.8544C34.1905 18.8059 34.3333 18.1262 34.2105 17.7178C33.7964 17.792 33.4337 17.8549 33.0424 17.9234C33.0282 18.1376 33.0167 18.3604 33.0053 18.5203C33.3423 18.7773 33.6279 18.9944 33.9477 19.24C34.2105 18.9544 34.7017 19.2285 34.953 18.8373V18.8401ZM44.1832 32.5826C44.5002 32.4369 44.82 32.2941 45.137 32.1485C44.94 32.3941 44.6944 32.5397 44.4345 32.6397C44.0975 32.7711 44.0004 33.0138 44.0404 33.3422C44.0775 33.6478 44.2089 33.8477 44.5516 33.8677C44.6801 33.8763 44.8086 33.942 44.9314 33.9934C45.4398 34.2104 45.6082 34.2161 45.9567 33.8106C46.2165 33.5079 46.445 33.1452 46.5792 32.771C46.7135 32.3941 46.7563 31.9685 46.7706 31.563C46.7991 30.7577 46.7792 29.9523 46.7792 29.1498C46.3879 29.2812 45.9909 29.4668 45.574 29.5439C45.1542 29.6239 44.6972 29.681 44.286 29.601C43.4806 29.4411 42.8038 29.6296 42.1755 30.1151C42.424 29.8723 42.6724 29.6325 42.918 29.3926C42.5982 29.1641 42.2669 28.9242 41.8842 28.6472C41.8099 29.0499 41.7243 29.4211 41.6786 29.7952C41.6529 30.0151 41.67 30.2522 41.9642 30.3207C41.8128 31.3631 42.6124 32.3427 43.632 32.3398C43.8776 32.3398 44.0861 32.3398 44.1974 32.5883H42.7981C42.9437 33.0909 43.2979 33.3365 43.6891 33.4222C43.8833 33.0966 44.0347 32.8396 44.1889 32.5826H44.1832ZM40.3078 38.4628C40.4306 38.8483 40.6933 38.9569 41.0389 39.014C41.5929 39.1054 42.1384 39.2596 42.6924 39.371C42.9809 39.4309 43.2864 39.5337 43.5663 39.488C45.1485 39.2396 45.4112 39.4281 45.4712 37.6717C45.5054 36.6579 45.2884 36.4351 44.2374 36.3266C44.1832 36.0896 44.1375 35.8268 44.0632 35.5727C43.9176 35.0757 43.4978 34.7559 42.9551 34.7045C42.4554 34.6588 42.3183 35.0643 42.1212 35.3842C42.0384 35.5184 42.0127 35.684 41.9413 35.8268C41.6957 36.3123 41.4701 36.8092 41.1845 37.269C40.9246 37.6917 40.5991 38.0744 40.3135 38.4599L40.3078 38.4628ZM51.1629 34.3989C51.1429 34.396 51.1172 34.3789 51.1058 34.3875C50.1119 35.0043 49.0638 35.3927 47.8672 35.2014C47.8244 35.1957 47.7758 35.2071 47.733 35.2157C47.179 35.3242 46.742 35.8497 46.7135 36.4408C46.6878 36.9263 46.9648 37.2519 47.5617 37.449C47.7244 37.5032 47.8872 37.5632 48.1842 37.666C47.5559 37.8288 47.1675 37.5289 46.7106 37.3376C47.1247 38.5199 47.6673 39.1796 48.3956 39.4252C48.2071 38.9911 47.8415 38.597 48.1585 37.9459C48.2356 38.2686 48.2699 38.4628 48.3299 38.6513C48.5241 39.2624 48.9039 39.4795 49.5379 39.3453C50.389 39.1653 50.8773 38.5827 50.8488 37.6888C50.8116 36.615 50.7574 35.5441 51.1943 34.5246C51.2086 34.4931 51.1743 34.4417 51.1629 34.3989ZM39.7223 18.5774C39.3396 19.0143 39.0483 19.3942 38.7056 19.7255C38.3629 20.0567 37.9888 20.3623 37.6004 20.6365C37.0435 21.0334 36.9064 21.5761 36.9921 22.2043C37.0635 22.7384 37.4976 23.0897 38.0174 22.944C38.6428 22.7698 39.0912 22.8298 39.4824 23.4124C39.7651 23.8293 40.4763 23.8208 40.8304 23.4981C41.4872 22.9012 41.7014 21.9816 41.3073 21.1848C41.1302 20.825 40.8818 20.4651 40.5819 20.2052C40.2135 19.8882 40.0079 19.5113 39.8737 19.0686C39.828 18.9201 39.7823 18.7716 39.7252 18.5803L39.7223 18.5774ZM32.8654 18.8201C32.6283 18.8658 32.517 18.883 32.4084 18.9087C31.8744 19.0315 31.6602 19.2428 31.6116 19.6998C31.5574 20.211 31.7173 20.4737 32.2228 20.7079C32.9396 21.0392 33.3252 20.8078 33.5793 19.9511C33.6622 19.6741 33.7735 19.4227 33.5079 19.2171C33.2852 19.0458 33.031 18.9201 32.8654 18.8201ZM32.7169 18.5574C32.9025 17.772 32.8225 17.4436 32.4027 17.258C31.9601 17.0609 31.4289 17.2066 31.2033 17.5864C30.9691 17.9834 31.1262 18.5517 31.5774 18.943C31.9572 18.8144 32.337 18.6859 32.7169 18.5574ZM34.8759 19.2571C34.1191 19.2514 33.8849 19.5512 34.0677 20.2795C34.1934 20.7793 34.2619 20.8392 34.7731 20.765C35.0415 20.725 35.3157 20.6736 35.5613 20.5622C35.9469 20.388 36.004 20.0168 35.7669 19.6569C35.5499 19.3256 35.23 19.2628 34.8759 19.2571ZM33.2966 14.4678C32.9568 14.5735 32.6997 14.6163 32.4855 14.7334C32.377 14.7934 32.2457 15.0504 32.2828 15.1018C32.4827 15.3703 32.7026 15.6444 32.9739 15.8301C33.2309 16.0043 33.4337 15.7358 33.6165 15.5759C33.8278 15.3931 34.0677 15.1675 33.8678 14.8819C33.7307 14.6877 33.4651 14.5849 33.2966 14.4678ZM35.0501 15.396C34.6017 15.4017 34.3476 15.6102 34.359 15.9643C34.3704 16.3156 34.7417 16.5869 35.2015 16.5811C35.5585 16.5783 35.9097 16.2813 35.9154 15.9814C35.924 15.6644 35.5156 15.3903 35.0473 15.396H35.0501ZM32.6826 17.0152C32.8168 16.7068 32.9425 16.4184 33.0739 16.1214C32.9511 16.0757 32.8282 16.03 32.6969 15.9786C32.6255 16.2299 32.7511 16.5326 32.5341 16.6411C32.4256 16.4069 32.3799 16.1185 32.22 16.0214C32.0743 15.9329 31.7602 15.9871 31.5974 16.0928C31.2946 16.2899 31.2946 16.6126 31.4032 16.8896C31.8715 16.9353 32.2913 16.9753 32.6855 17.0124L32.6826 17.0152ZM33.5279 17.655C33.8249 17.6664 34.2133 17.2751 34.239 16.9381C34.259 16.6954 33.9135 16.3184 33.6422 16.287C33.3994 16.2584 33.0253 16.5583 33.0082 16.7925C32.9825 17.1266 33.2966 17.6464 33.5279 17.655ZM41.8699 27.2906C41.3787 27.185 40.956 27.0936 40.5105 26.9965C40.6562 27.4334 40.8104 27.8932 40.9446 28.2988C41.2673 28.1874 41.5415 28.0931 41.8699 27.9818V27.2935V27.2906ZM45.2027 36.1638C44.88 35.4327 44.8086 35.367 44.2803 35.2471C44.3317 35.5355 44.3802 35.8183 44.4288 36.101C44.6801 36.121 44.9028 36.141 45.2027 36.1638ZM48.6526 40.0107C48.9468 40.0678 49.1124 40.1021 49.3694 40.1535C49.1981 39.7851 49.0239 39.7879 48.6526 40.0107Z" stroke="#4C1E00" stroke-width="0.5" stroke-miterlimit="10"/>
<path d="M28.99 43.295C29.247 43.5234 29.7211 43.7462 29.8039 44.0803C30.0124 44.9399 30.6207 45.5796 30.9777 46.3564C31.0633 46.5421 31.3461 46.6592 31.5602 46.7563C31.7145 46.8248 31.9058 46.8048 32.0772 46.8248C32.02 47.6844 31.843 47.8501 31.0862 47.95C30.3808 48.0443 29.8182 47.8444 29.2556 47.3988C28.316 46.6506 27.5478 45.7539 26.8195 44.8143C26.5225 44.4316 26.1655 44.1888 25.68 44.1374C24.6748 44.0289 23.6838 45.077 23.8408 46.0851C23.9237 46.6163 24.3435 46.9248 24.8804 46.7877C25.2973 46.6792 25.6914 46.4935 26.0998 46.3479C26.3883 46.2451 26.6796 46.148 26.9709 46.048C26.9909 46.0937 27.0109 46.1365 27.0308 46.1822C26.9366 46.2479 26.8509 46.3336 26.7481 46.3736C26.0656 46.6335 25.4087 46.9019 24.8947 47.4702C24.6262 47.7672 24.2435 47.9672 23.8951 48.1813C23.1183 48.664 22.7128 49.3608 22.6414 50.2661C22.61 50.6517 22.5957 51.0429 22.5443 51.4256C22.4672 51.9882 22.4101 52.5622 22.2616 53.1077C21.9474 54.2501 21.0764 54.7099 19.9397 54.39C19.7684 54.3414 19.5999 54.2758 19.4057 54.2101C19.6399 54.6185 20.1054 54.8698 20.7051 55.0326C21.2906 55.1896 21.7304 54.7584 22.3044 54.6527C21.7761 55.3324 21.1678 55.5009 20.3567 55.2182C20.0711 55.1182 19.8027 54.9669 19.5313 55.3895C20.0397 55.8922 20.5852 56.3434 21.282 56.5919C21.6647 56.7289 22.0417 56.8917 22.4329 56.9945C22.61 57.0431 22.8184 56.9746 23.0669 56.9574C22.7271 57.2601 22.4272 57.5314 22.0131 57.9027C22.5757 57.9027 22.9698 57.917 23.3639 57.8941C23.5353 57.8856 23.7238 57.8285 23.8694 57.7371C24.392 57.4201 24.8832 57.0431 25.423 56.7575C25.9371 56.4862 26.294 56.0835 26.5339 55.5866C26.8538 54.9298 27.1422 54.2558 27.1565 53.5018C27.1594 53.3362 27.225 53.1734 27.3736 53.0192C27.385 53.1591 27.4107 53.3019 27.4078 53.4418C27.3736 54.4528 27.0251 55.3667 26.4483 56.1806C26.2455 56.4691 25.9485 56.7175 25.6458 56.9003C25.2602 57.1345 25.0403 57.4315 24.9718 57.8713C24.9204 58.2054 24.8404 58.5367 24.7576 58.9565C25.4259 58.611 26.0484 58.3539 26.4854 57.7599C27.265 56.7004 27.9504 55.6066 28.1418 54.2729C28.1503 54.2101 28.2046 54.153 28.2446 54.0987C28.2532 54.0873 28.2874 54.0987 28.4102 54.0987C28.3645 54.4071 28.3588 54.7184 28.2646 54.9983C28.1047 55.4724 27.9333 55.955 27.6848 56.3834C27.3421 56.9745 27.3393 57.58 27.425 58.3111C27.5849 58.1883 27.6963 58.1255 27.7762 58.0369C28.3388 57.4029 29.0442 56.9917 29.8467 56.7546C30.5636 56.5405 31.1519 56.1321 31.7287 55.6694C32.2599 55.2439 32.8625 54.9126 33.4394 54.5442C33.4794 54.5185 33.5594 54.5556 33.7421 54.5785C33.5279 54.7384 33.3966 54.8412 33.2623 54.9355C32.7226 55.3153 32.1971 55.7151 31.6402 56.0692C31.1433 56.3862 30.6407 56.7204 30.0952 56.9203C29.2184 57.2401 28.4217 57.64 27.8134 58.3682C27.6906 58.5167 27.5135 58.6252 27.3478 58.7623C26.9537 58.4053 27.2793 57.9313 26.9937 57.5086C26.3911 58.5139 25.4458 58.9851 24.3092 59.462C24.5063 58.7138 24.6633 58.1169 24.8204 57.5172C24.7804 57.4915 24.7433 57.4629 24.7033 57.4372C24.5662 57.5286 24.4035 57.5971 24.2949 57.7142C23.9551 58.0826 23.5467 58.1597 23.0612 58.1597C22.6043 58.1597 22.1502 58.3054 21.6533 58.3939C21.6761 57.9256 22.0245 57.6114 22.3072 57.2202C22.0788 57.1516 21.9103 57.0888 21.7361 57.0488C20.9079 56.8632 20.2253 56.4205 19.597 55.8779C19.1201 55.4638 19.1144 55.441 19.4 54.8327C19.1629 54.5613 18.806 54.3215 18.9887 53.7703C19.1744 53.8045 19.3628 53.8245 19.5428 53.8788C19.7827 53.9502 20.0083 54.0758 20.251 54.1273C21.0078 54.29 21.6504 53.9645 21.8789 53.2305C22.0531 52.6708 22.1302 52.0739 22.2187 51.4913C22.2844 51.0629 22.3758 50.5746 22.4158 50.1433C22.4986 49.2009 22.7385 48.6583 23.5581 48.1442C23.9008 47.9272 25.2716 47.0019 25.5572 46.7163C24.986 47.0019 23.8437 46.7163 23.8437 45.8595C23.9008 45.3112 24.1293 44.4316 24.7005 44.146C25.6058 44.0175 24.1893 44.2088 24.1293 44.146C23.3296 43.2892 23.264 42.4268 24.1978 41.7242C24.5006 41.4958 24.6433 41.2901 24.4206 40.9446L24.4006 40.9531C24.769 40.9332 24.7033 41.2759 24.7804 41.4301C25.4487 41.4929 26.0713 41.5786 26.6939 41.6071C27.3764 41.6386 27.6963 42.4154 28.4131 42.7209M31.7859 47.1618C30.5921 47.3589 30.2494 47.139 30.0352 46.1251C30.3751 46.4193 30.3751 47.0618 30.9948 46.9876C30.7006 46.4935 30.4065 46.0423 30.1552 45.5654C29.7868 44.8714 29.464 44.1517 29.0814 43.4663C28.9528 43.235 28.7444 42.9665 28.5159 42.8923C27.7591 42.6467 27.2765 41.8013 26.3254 41.9613C25.977 42.0184 25.5886 41.8013 25.2145 41.7756C24.6862 41.7357 24.2321 41.9127 23.9437 42.3982C23.6838 42.8352 23.7066 43.2664 23.9665 43.6919C24.0922 43.9004 24.2607 44.0403 24.5263 44.0004C24.9661 43.9347 25.4087 43.8718 25.8685 43.8033C25.7828 43.4435 25.7057 43.1065 25.6258 42.7666C26.117 43.5986 26.5235 44.0841 26.8452 44.2231C26.7852 43.8347 26.5968 43.4749 26.6796 43.095C26.8509 43.4492 26.9623 43.8147 27.1108 44.166C27.2679 44.5401 27.4507 44.9028 27.6391 45.2627C27.8134 45.5911 28.0675 45.851 28.3645 46.0594C27.6306 44.4316 27.5335 43.9689 27.8505 43.3692C27.8705 43.4035 27.9076 43.4378 27.9047 43.472C27.8505 44.5315 28.2589 45.4283 28.89 46.2451C28.9728 46.3507 29.0642 46.4593 29.1185 46.5821C29.5326 47.5102 30.6092 47.9414 31.4946 47.5131C31.5802 47.4702 31.6316 47.356 31.7887 47.1647L31.7859 47.1618Z" stroke="#4C1E00" stroke-width="0.5" stroke-miterlimit="10"/>
<path d="M24.4206 41.0104C24.2921 41.019 24.1636 40.9476 24.0436 40.9819C23.084 41.2446 22.1645 40.8134 21.7475 39.8938C21.3248 38.9571 21.5419 37.9375 22.3644 37.3092C22.8327 36.9523 23.3611 36.6781 23.9237 36.3325C23.9522 35.9841 23.918 35.5329 24.0465 35.1388C24.175 34.7475 24.4691 34.4134 24.7205 34.0079C24.6462 33.9479 24.5091 33.8394 24.3692 33.728C23.2897 32.8569 23.1098 31.7317 23.9094 30.5865C24.235 30.121 24.6291 29.7041 24.9975 29.2671C25.2317 28.9901 25.4858 28.7502 25.3745 28.3104C25.3288 28.1248 25.4773 27.8792 25.5715 27.6764C25.6772 27.4508 25.82 27.2452 25.9628 27.011C25.5458 26.4198 24.8861 25.8886 25.5201 25.0947C23.621 23.7353 23.6695 21.7219 24.195 20.2426C24.4149 19.6229 24.7147 19.026 25.0317 18.4462C25.3773 17.818 25.4373 17.2468 24.9232 16.687C24.8718 16.6328 24.8547 16.5442 24.7947 16.4186C25.5458 16.8127 25.9599 17.3125 26.5225 18.4748C26.6053 18.2606 26.6739 18.0864 26.7424 17.9151C26.8566 17.9436 26.9537 17.9665 27.1537 18.015C26.9309 17.3667 26.7338 16.8013 26.4968 16.113C27.662 16.5471 28.019 17.6066 28.7272 18.4091C28.7072 17.1754 27.9619 16.4014 27.2051 15.6018C28.0732 15.6875 28.9357 15.7874 29.484 16.5557C30.1066 17.4296 30.6664 18.3349 30.7206 19.4715C30.7578 20.214 30.912 20.9537 31.0148 21.6934C30.9634 21.7076 30.9091 21.7191 30.8577 21.7333C30.812 21.5591 30.7492 21.3906 30.7235 21.2136C30.6235 20.491 30.5436 19.7628 30.4436 19.0403C30.3037 18.0293 29.7582 17.2125 29.1299 16.4557C28.8386 16.1044 28.4017 15.9417 27.7705 15.9102C29.0614 17.2268 29.0699 18.8032 29.1699 20.3483C29.1985 20.7795 29.1556 21.2164 29.1585 21.6505C29.1642 22.3102 29.1299 22.9757 29.4212 23.6296C29.5897 23.6411 29.7582 23.6496 29.9553 23.6639C29.4326 24.0152 29.2099 23.9809 29.1128 23.4611C28.9985 22.8586 28.9671 22.2417 28.9329 21.6277C28.91 21.2193 28.9157 20.8052 28.95 20.3968C29.0414 19.3287 28.5388 18.4891 27.9419 17.6809C27.6877 17.3382 27.4307 17.0012 27.1765 16.6585C27.1365 16.6785 27.0965 16.6985 27.0566 16.7185C27.068 16.8127 27.0623 16.9126 27.0937 16.9983C27.4307 17.9493 27.4592 18.9203 27.3079 19.9056C27.1965 20.6338 27.1137 21.3678 27.4478 22.0589C27.6934 22.5673 27.9733 23.067 28.2989 23.5297C28.4188 23.701 28.713 23.7524 28.9014 23.8438C28.5616 24.0552 28.396 24.0694 28.1561 23.7696C27.3479 22.7615 26.7995 21.662 27.0109 20.3083C27.0765 19.8799 27.1222 19.4458 27.1365 19.0146C27.1451 18.7804 27.0708 18.5433 27.0109 18.1607C26.8395 18.3806 26.731 18.4662 26.6967 18.5719C26.4483 19.3516 26.177 20.1284 25.9885 20.9251C25.7457 21.9561 26.1255 22.8643 26.7338 23.6782C27.0537 24.1066 27.4792 24.3579 28.1304 24.0038C27.7962 24.6092 27.3821 24.4007 26.9966 24.3179L27.008 24.3322C25.6658 23.0499 25.3916 21.5306 26.0284 19.8256C26.2969 19.1031 26.374 18.412 25.8857 17.7466C25.8314 17.6723 25.7886 17.5923 25.7086 17.4638C25.2602 18.452 24.8147 19.3201 24.4691 20.2283C24.0008 21.4506 23.9665 22.6815 24.6862 23.8467C24.7804 24.0009 24.9061 24.138 25.0175 24.2808C25.2745 24.6063 25.5801 24.8063 26.0227 24.7063C26.1284 24.6835 26.2455 24.7177 26.4425 24.732C26.2369 24.9262 26.0856 25.069 25.9342 25.2118C25.4573 25.6545 25.4373 25.92 25.8485 26.4113C25.9199 26.4969 26.017 26.5598 26.117 26.6454C26.8823 26.4284 27.5363 25.8658 28.4131 25.98C28.3074 26.04 28.2046 26.1114 28.0932 26.1599C27.8219 26.2742 27.5506 26.4141 27.265 26.4827C26.4682 26.6683 26.0799 27.2652 25.7429 27.922C25.6743 28.0562 25.6001 28.2561 25.6515 28.3732C25.82 28.7731 25.6029 29.0072 25.3687 29.27C25.0032 29.6755 24.6491 30.0953 24.3064 30.518C23.1412 31.9516 23.8323 33.2396 25.0203 33.7851C25.0974 33.8222 25.1631 33.8822 25.2802 33.965C24.9546 34.3563 24.5434 34.679 24.3749 35.0988C24.1978 35.5386 24.255 36.0755 24.2093 36.561C23.6809 36.8723 23.1155 37.1636 22.5957 37.5206C22.0474 37.8947 21.8189 38.4487 21.8589 39.1199C21.9074 39.9281 22.4044 40.4107 23.0583 40.7363C23.2697 40.8419 23.5952 41.0561 23.858 41.0162C24.095 40.979 24.1978 40.8048 24.4292 40.7306C24.4606 40.7705 24.6062 40.5906 24.6376 40.6306C24.5919 40.7249 24.769 40.6849 24.4177 40.9619L24.4292 41.0162L24.4206 41.0104Z" stroke="#4C1E00" stroke-width="0.5" stroke-miterlimit="10"/>
<path d="M54.1159 48.684C54.1159 49.298 54.1044 49.9149 54.1159 50.5289C54.1301 51.2314 54.1187 51.9397 54.6128 52.5394C54.3358 52.7422 54.0787 52.7022 53.856 52.6194C53.1706 52.3681 52.5994 51.9711 52.3167 51.2571C52.2396 51.0658 52.1339 50.883 52.0911 50.6831C51.8597 49.5979 50.9544 48.9753 50.3747 47.9814C50.329 48.1928 50.2947 48.2556 50.3033 48.3099C50.506 49.3608 50.3118 50.3461 49.8578 51.3057C49.378 52.3195 49.378 53.3305 49.972 54.3158C50.1062 54.5385 50.1919 54.7955 50.329 55.0983C49.7778 55.1382 49.438 54.8555 49.1152 54.6042C47.7159 53.5075 47.1675 52.0082 47.1504 50.2776C47.1504 50.1862 47.1647 50.0948 47.1675 50.0034C47.199 48.6526 47.4246 48.7211 45.9652 47.7587C45.0314 47.1447 44.1146 46.505 43.1865 45.8824C42.7124 45.5654 42.3868 45.137 42.2098 44.5972C42.0127 43.9918 41.7785 43.3921 41.6557 42.7695C41.433 41.6586 41.8556 40.7761 42.7724 40.0621C42.878 40.342 42.7038 40.4848 42.5696 40.6076C41.8699 41.2587 41.7443 42.0841 41.9584 42.9408C42.1327 43.6434 42.424 44.3202 42.7152 44.9885C42.8181 45.2227 43.0465 45.4283 43.2636 45.5825C44.1746 46.2308 45.0999 46.8534 46.0223 47.4874C46.0795 47.5274 46.1394 47.5588 46.1994 47.5902C47.1875 48.0871 47.5788 48.8268 47.4674 49.9777C47.3103 51.6198 47.793 53.0963 49.101 54.2129C49.2038 54.3015 49.3037 54.3957 49.418 54.4728C49.4894 54.5242 49.5807 54.5471 49.7664 54.6299C49.5893 54.1101 49.438 53.6732 49.2894 53.2391C48.5955 53.0049 48.7497 52.3481 48.5983 51.8454C48.4184 51.2543 48.6754 50.7316 48.8582 50.189C49.0324 49.675 49.1467 49.1409 49.3066 48.5355C49.3494 48.704 49.4322 48.8411 49.4065 48.9553C49.2894 49.4893 49.1724 50.0234 49.001 50.5403C48.7354 51.3428 48.7468 51.8483 49.1381 52.6965C49.1581 52.6879 49.1952 52.6822 49.1981 52.6679C49.4894 51.7826 49.8692 50.9144 50.0434 50.0063C50.3061 48.6497 50.0777 47.376 48.9981 46.3622C48.287 45.691 47.5245 45.0713 46.9391 44.2688C46.1851 43.2379 45.9881 41.5957 46.6392 40.4191C46.6021 40.6704 46.5935 40.7904 46.5678 40.9046C46.2679 42.1755 46.385 43.3607 47.336 44.3431C47.9529 44.9828 48.6155 45.5768 49.2209 46.2251C49.5408 46.5678 49.7692 46.9962 50.0662 47.3674C50.3433 47.7159 50.6574 48.0329 50.9487 48.3698C51.2771 48.7497 51.6227 49.1152 51.9111 49.5236C52.0911 49.7778 52.1967 50.0891 52.311 50.3832C52.5309 50.9573 52.6822 51.5713 53.2448 51.934C53.4476 52.0653 53.6675 52.171 53.8588 52.2767C53.8588 51.2743 53.8731 50.3233 53.8503 49.3751C53.8446 49.1095 53.7275 48.8468 53.6504 48.5869C53.5675 48.3156 53.4676 48.0528 53.3762 47.7844C53.4276 47.7615 53.479 47.7358 53.5333 47.713C53.736 48.0414 53.9388 48.367 54.1416 48.6954L54.1216 48.6726L54.1159 48.684Z" stroke="#4C1E00" stroke-width="0.5" stroke-miterlimit="10"/>
<path d="M29.4183 51.6371C30.1523 50.966 31.0119 50.5605 32.0286 50.5405C32.9882 50.5205 33.9363 50.4862 34.8645 50.1721C35.6584 49.9007 36.3667 49.5181 36.9464 48.9069C37.0749 48.7698 37.2291 48.6584 37.3748 48.5356C37.4119 48.5699 37.449 48.6013 37.489 48.6356C37.4348 48.7384 37.3862 48.8469 37.3234 48.9469C37.1092 49.2896 36.8265 49.6066 36.6865 49.975C36.4066 50.7032 35.9897 51.2973 35.3528 51.7513C35.1072 51.9256 34.7759 52.0798 34.8473 52.5367C35.4128 52.7538 36.004 52.9794 36.5951 53.205C37.4576 53.5334 37.6432 53.799 37.5233 54.6957C37.4662 55.1213 37.3034 55.5297 37.1863 55.9466C36.955 56.7577 36.7208 57.5687 36.4923 58.3798C36.4638 58.4798 36.4752 58.594 36.4638 58.7825C36.815 58.5169 37.112 58.3113 37.3862 58.0828C38.8798 56.8462 40.4248 55.6667 41.71 54.196C42.6467 53.1222 43.7005 52.1769 44.9657 51.5086C45.4255 51.2659 45.9367 51.1259 46.4307 50.9546C46.5221 50.9231 46.6392 50.9717 46.7706 51.0888C46.4707 51.1973 46.1766 51.3115 45.8738 51.4115C44.7429 51.7828 43.8062 52.471 42.9551 53.2678C42.324 53.859 41.7785 54.5472 41.1302 55.1213C39.7309 56.3607 38.2887 57.5545 36.8664 58.7682C36.6551 58.9481 36.4495 59.0595 36.1696 58.7796C36.2639 57.8343 36.5609 56.9062 36.8779 55.978C37.0378 55.5068 37.1949 55.0242 37.2663 54.533C37.3576 53.8961 37.2234 53.7162 36.6437 53.4849C36.1153 53.2735 35.5756 53.0793 35.0473 52.8709C34.736 52.748 34.4875 52.768 34.2705 53.065C33.8592 53.6305 33.308 54.036 32.7026 54.3702C31.5688 54.9985 30.4265 55.6153 29.287 56.2351C29.2584 56.2493 29.2042 56.2208 29.0928 56.1979C29.5154 55.8238 29.9867 55.6239 30.435 55.3697C31.486 54.7786 32.5141 54.1446 33.5165 53.4734C33.8592 53.2421 34.0963 52.848 34.4218 52.4825C32.5198 52.491 30.9148 53.1878 29.3612 54.0503C29.3412 54.0103 29.3212 53.9732 29.2984 53.9332C29.3469 53.8733 29.3841 53.7904 29.4469 53.7533C30.6092 53.0593 31.7944 52.4139 33.1795 52.3197C34.2819 52.2454 35.1044 51.6571 35.824 50.9003C36.0439 50.669 36.161 50.3377 36.3238 50.0521L36.2267 49.955C36.1268 49.9836 36.024 50.0007 35.9326 50.0435C34.6903 50.6376 33.3766 50.8546 32.0086 50.8061C31.2204 50.7775 30.5607 51.1659 29.8981 51.52C29.7639 51.5914 29.6411 51.6857 29.5097 51.7685C29.4783 51.7199 29.4498 51.6742 29.4183 51.6257V51.6371Z" stroke="#4C1E00" stroke-width="0.5" stroke-miterlimit="10"/>
<path d="M55.1897 27.2879C55.1811 27.1794 55.1725 27.0709 55.1611 26.9138C56.0007 26.8653 56.8232 26.7796 57.5372 26.0913C57.2716 25.9314 57.0374 25.7914 56.8032 25.6515H56.7861C56.4434 25.2317 56.1121 24.7976 55.7523 24.3949C55.3896 23.9865 55.0012 23.601 54.6128 23.2126C53.9045 22.5015 53.1991 21.7904 52.4766 21.0935C51.874 20.511 51.0829 20.351 50.3061 20.154C49.7407 20.0112 49.1866 19.817 48.6269 19.6428C48.6355 19.5971 48.644 19.5514 48.6526 19.5085C48.7211 19.5085 48.7954 19.4943 48.8611 19.5085C49.6493 19.7284 50.4518 19.9169 51.2229 20.1911C51.7084 20.3624 52.2139 20.5881 52.5937 20.9222C53.3962 21.6276 54.1244 22.4187 54.8841 23.1755C55.8665 24.1522 56.7318 25.2517 57.9227 26.0742C57.4058 26.7482 56.6233 26.9338 55.7951 27.1994C57.0317 28.1133 57.323 29.4412 57.6343 30.7407C57.8542 31.6631 58.2112 32.5199 58.6624 33.3395C58.8423 33.6679 59.145 33.9307 59.4135 34.202C59.5506 34.3419 59.7305 34.4362 59.939 34.5875C59.2364 35.2301 58.4111 35.0787 57.6457 35.1615C57.1631 36.4781 57.2573 37.9917 58.2654 38.7999C58.8566 39.2711 59.008 39.3739 60.1132 39.4253C60.1646 39.8109 59.8819 40.0051 59.6305 40.1507C58.7452 40.6705 57.7942 40.9618 56.749 40.7933C55.1754 40.5363 54.9041 40.3649 54.0102 39.0684C53.7103 38.6343 53.4733 37.5519 53.6189 36.8322C53.6932 37.1521 53.7903 37.4691 53.8388 37.7918C53.9302 38.4258 54.173 38.9684 54.6442 39.4139C54.827 39.5853 54.9641 39.8023 55.1326 39.988C55.2211 40.0879 55.3182 40.2136 55.4353 40.2507C56.8375 40.6905 58.2169 40.7647 59.5192 39.9337C59.5877 39.8909 59.6305 39.8023 59.6934 39.7252C57.0431 39.0227 56.8004 36.955 57.4487 34.9159C58.0941 34.8445 58.7852 34.9731 59.4563 34.6503C59.1365 34.3133 58.7823 34.0649 58.6024 33.725C58.2026 32.9597 57.8313 32.1714 57.5629 31.3518C57.2345 30.358 57.066 29.3099 56.5491 28.3789C56.2435 27.8248 55.8122 27.4307 55.184 27.2794V27.2879H55.1897Z" stroke="#4C1E00" stroke-width="0.5" stroke-miterlimit="10"/>
<path d="M50.9944 43.1808C51.1115 43.4121 51.1886 43.5006 51.2 43.5949C51.2743 44.2317 51.6084 44.7544 51.9311 45.277C52.4109 46.0538 53.1249 46.5136 54.0045 46.7335C55.2554 47.0476 56.4948 47.0048 57.7114 46.5821C57.997 46.4822 58.2512 46.2965 58.6453 46.0852C56.6719 45.2627 54.9898 44.326 54.2101 42.2212C54.4757 42.2555 54.6442 42.2926 54.8127 42.2955C54.9812 42.2955 55.1497 42.264 55.461 42.2298C54.9184 41.7528 54.2473 41.5501 54.1787 40.859C54.1587 40.6562 54.2473 40.442 54.3615 40.2335C54.4243 40.6448 54.2958 41.096 54.6985 41.3702C55.0298 41.5986 55.3867 41.79 55.7609 42.0156C55.6352 42.5553 55.1811 42.5582 54.6985 42.601C54.9755 43.1808 55.2211 43.7262 55.718 44.1175C56.6576 44.8572 57.6429 45.5054 58.8224 45.8025C58.8852 45.8167 58.9394 45.8681 59.0251 45.9167C58.8423 46.3936 58.4254 46.6078 58.017 46.762C56.3949 47.3789 54.7385 47.4303 53.1506 46.7049C51.8769 46.1223 51.2514 44.9828 50.9573 43.6548C50.9344 43.5549 50.9716 43.4435 50.9944 43.1808Z" stroke="#4C1E00" stroke-width="0.5" stroke-miterlimit="10"/>
<path d="M41.9042 14.2052C41.6814 14.3166 41.5387 14.3822 41.4016 14.4594C40.8789 14.7535 40.3335 14.9277 39.7223 14.982C39.1397 15.0334 38.5571 15.199 37.9974 15.3818C37.4433 15.5617 36.995 15.9187 36.6865 16.4328C36.6237 16.5384 36.5352 16.627 36.4238 16.6955C36.638 15.8759 37.2463 15.4275 37.9831 15.1619C38.5171 14.9677 39.0826 14.8021 39.6424 14.7678C40.4563 14.7192 41.1388 14.4108 41.7928 13.9796C41.8442 13.9453 41.9128 13.931 42.0299 13.8882C42.2041 14.5593 42.0927 15.159 41.7443 15.7131C41.3816 16.2871 40.8818 16.7126 40.2421 16.9611C39.4853 17.2552 38.6599 17.4038 38.0802 18.0749C38.0459 18.0349 38.0117 17.9949 37.9774 17.9549C38.0545 17.8407 38.1059 17.6808 38.2144 17.6237C38.6714 17.3752 39.1283 17.1096 39.6167 16.9354C40.3649 16.6698 41.0532 16.3442 41.5129 15.6645C41.7871 15.259 41.9642 14.8278 41.9071 14.2138L41.9042 14.2052Z" stroke="#4C1E00" stroke-width="0.5" stroke-miterlimit="10"/>
<path d="M33.5108 46.3222C33.9021 45.8824 34.4218 45.7367 34.9359 45.5796C35.567 45.3854 36.2096 45.217 36.8236 44.9685C38.0659 44.4687 38.797 43.1493 38.6199 41.8185C38.5942 41.6243 38.58 41.4272 38.6742 41.1902C38.737 41.2844 38.837 41.3701 38.8627 41.4729C39.2197 42.9665 38.4172 44.6001 36.9921 45.1941C36.3638 45.4568 35.6927 45.6168 35.0415 45.8281C34.696 45.9395 34.3504 46.0566 34.0049 46.1708C33.8421 46.2251 33.6764 46.2736 33.5137 46.325L33.5108 46.3222Z" stroke="#4C1E00" stroke-width="0.5" stroke-miterlimit="10"/>
<path d="M48.4584 47.2761C48.2471 46.5621 47.6616 46.1937 47.1019 45.8053C46.5592 45.4312 46.0252 45.0714 45.6054 44.5259C44.9514 43.6748 44.7086 42.7381 44.8172 41.7043C44.8714 41.1902 45.0342 40.6847 45.1599 40.1793C45.1827 40.0879 45.2798 40.0136 45.434 39.9736C45.4083 40.0907 45.3941 40.2135 45.3541 40.3249C45.0713 41.1131 44.9714 41.9242 45.0942 42.7495C45.2513 43.8005 45.8424 44.5887 46.682 45.2056C47.139 45.5426 47.6102 45.8653 48.05 46.228C48.3527 46.4793 48.5726 46.802 48.4584 47.2761Z" stroke="#4C1E00" stroke-width="0.5" stroke-miterlimit="10"/>
<path d="M50.706 39.9736C51.1029 39.928 51.2229 40.1764 51.36 40.3592C51.7683 40.8989 51.974 41.5158 52.0625 42.1841C52.2653 43.712 53.0992 44.6287 54.5956 45.02C54.9069 45.1028 55.2097 45.2284 55.6209 45.3741C55.4381 45.4712 55.381 45.5312 55.3353 45.5226C54.0273 45.3084 52.9078 44.7601 52.171 43.6177C51.9911 43.3407 51.854 42.9923 51.8283 42.6667C51.7455 41.67 51.4571 40.7676 50.706 39.9794V39.9736Z" stroke="#4C1E00" stroke-width="0.5" stroke-miterlimit="10"/>
<path d="M39.3082 43.4177C39.3396 43.5748 39.4082 43.7376 39.391 43.8918C39.3368 44.403 39.154 44.8685 38.8027 45.2512C37.9545 46.1736 36.9236 46.7677 35.6641 46.8905C34.9616 46.959 34.2648 46.9961 33.5337 47.5159C33.8707 46.999 34.1134 46.8448 34.6417 46.7562C35.2015 46.6591 35.7669 46.5877 36.3267 46.4878C37.3034 46.3136 38.0117 45.6881 38.6342 44.9885C38.8884 44.7029 38.9627 44.2545 39.0997 43.8747C39.1511 43.7347 39.1511 43.5777 39.1769 43.4291C39.2197 43.4263 39.2625 43.4234 39.3082 43.4206V43.4177Z" stroke="#4C1E00" stroke-width="0.5" stroke-miterlimit="10"/>
<path d="M37.0349 40.0165C36.7579 40.8447 36.2353 41.473 35.4214 41.8699C34.5618 42.2898 33.705 42.7124 32.8511 43.1408C32.2856 43.4235 31.8715 43.8748 31.5117 44.3831C31.4374 44.4859 31.366 44.5916 31.2946 44.6944C31.2547 44.6744 31.2118 44.6516 31.1718 44.6316C31.2575 44.4345 31.2946 44.1946 31.4346 44.049C31.7944 43.6748 32.1543 43.2636 32.5969 43.0066C33.4594 42.5039 34.3761 42.0841 35.2786 41.6529C35.8126 41.3959 36.221 41.0217 36.518 40.5134C36.638 40.3078 36.7665 40.1079 36.8893 39.908C36.9378 39.9451 36.9835 39.9794 37.0321 40.0165H37.0349Z" stroke="#4C1E00" stroke-width="0.5" stroke-miterlimit="10"/>
<path d="M32.3627 35.17C32.3228 35.2243 32.2856 35.2843 32.2371 35.3271C31.6288 35.8897 29.6011 36.0725 28.8672 35.6298L28.8843 35.6498C29.167 35.6184 29.4526 35.5898 29.7696 35.5556C29.8581 35.4356 29.9638 35.2728 30.0923 35.1329C30.5093 34.6788 30.5635 34.3447 30.2694 33.922C30.0038 33.5422 29.5925 33.4508 29.0556 33.6536C29.0014 33.6736 28.9443 33.685 28.8186 33.6022C28.9471 33.5108 29.0756 33.3423 29.2013 33.3451C29.5326 33.3537 29.9095 33.3537 30.1837 33.5051C30.8548 33.8792 30.8748 34.6017 30.2551 35.5213C30.7949 35.5527 31.2632 35.4613 31.7316 35.3185C31.9429 35.2528 32.1657 35.2271 32.3827 35.1843L32.3656 35.1672L32.3627 35.17Z" stroke="#4C1E00" stroke-width="0.5" stroke-miterlimit="10"/>
<path d="M32.3799 35.19C31.4689 34.279 30.635 33.288 29.4441 32.6912C28.8586 32.3999 28.3788 32.3713 27.8819 32.8025C27.7391 32.9253 27.5592 33.0053 27.3793 33.0738C27.9761 32.1628 28.6216 31.9772 29.5183 32.4513C30.3265 32.8768 31.0833 33.3651 31.6802 34.0877C31.9915 34.4618 32.4256 34.7331 32.8597 35.0987C32.6683 35.1244 32.5141 35.1472 32.3599 35.1701L32.3799 35.19Z" stroke="#4C1E00" stroke-width="0.5" stroke-miterlimit="10"/>
<path d="M45.0856 16.6269C46.2051 16.8125 47.3303 16.9867 48.447 17.1837C49.0353 17.2866 49.615 17.3608 50.2091 17.2095C50.389 17.1638 50.5917 17.2037 50.9459 17.2037C50.1491 18.1605 49.4351 18.9344 48.2271 19.0115C48.6098 18.8144 49.0153 18.6517 49.3723 18.4146C49.7236 18.1804 50.0206 17.872 50.289 17.475C50.1434 17.475 49.9977 17.4893 49.8578 17.475C48.8639 17.3608 47.873 17.2523 46.882 17.1209C46.4336 17.0609 45.9881 16.9638 45.5454 16.8582C45.3855 16.8182 45.2456 16.7011 45.0971 16.6183L45.0856 16.6297V16.6269Z" stroke="#4C1E00" stroke-width="0.5" stroke-miterlimit="10"/>
<path d="M27.4678 32.3598C27.4964 32.2228 27.4878 32.1399 27.5278 32.1C28.0247 31.5916 29.2184 30.9005 30.1152 31.2832C30.7349 31.5459 31.3089 31.8287 31.6459 32.4627C31.7944 32.7397 32.0343 32.9624 32.2285 33.2137C32.3171 33.328 32.3942 33.4508 32.4313 33.6079C31.9315 33.4394 31.6573 33.031 31.4203 32.6169C31.1547 32.1571 30.7835 31.8629 30.3122 31.6487C29.7096 31.3746 29.127 31.3517 28.5502 31.703C28.2075 31.9115 27.8648 32.1171 27.4649 32.3627L27.4678 32.3598Z" stroke="#4C1E00" stroke-width="0.5" stroke-miterlimit="10"/>
<path d="M47.4674 22.3645C46.9648 22.1674 46.6706 21.899 46.425 21.5905C45.6797 20.6595 44.7201 20.2854 43.5406 20.3711C43.0894 20.4025 42.6325 20.3682 42.1812 20.3254C41.8756 20.2968 41.5843 20.1855 41.4273 19.8513C42.2155 20.2797 43.0551 20.1912 43.8833 20.1512C44.9685 20.0998 45.8225 20.5282 46.5193 21.3307C46.7934 21.6477 47.0876 21.9504 47.4703 22.3645H47.4674Z" stroke="#4C1E00" stroke-width="0.5" stroke-miterlimit="10"/>
<path d="M25.6857 37.1178C25.9542 36.8237 26.2969 36.7123 26.6939 36.7666C27.4135 36.8637 28.0418 37.1692 28.5445 37.6919C28.9643 38.1288 29.0042 38.7342 28.7129 39.1798C28.5959 38.7599 28.5844 38.2345 28.3217 37.9118C28.0275 37.5519 27.5335 37.2835 27.0765 37.1435C26.6567 37.0179 26.1655 37.1178 25.6886 37.1178H25.6857Z" stroke="#4C1E00" stroke-width="0.5" stroke-miterlimit="10"/>
<path d="M55.6123 34.7302C54.2558 34.2419 53.3333 32.5141 53.5361 30.7777C53.6903 32.377 54.2244 33.7735 55.6123 34.7302Z" stroke="#4C1E00" stroke-width="0.5" stroke-miterlimit="10"/>
<path d="M52.7536 27.9104C52.4538 27.3078 52.0768 26.7509 51.9654 26.0541C51.8912 25.5943 51.7084 25.1517 51.5542 24.629C51.8826 24.9203 52.0311 25.2402 52.0968 25.5972C52.2253 26.274 52.4309 26.9194 52.805 27.5077C52.8707 27.6106 52.8707 27.7505 52.9021 27.8733C52.8536 27.8847 52.8022 27.899 52.7536 27.9104Z" stroke="#4C1E00" stroke-width="0.5" stroke-miterlimit="10"/>
<path d="M24.809 39.871C25.5344 39.3512 25.7686 39.3055 26.2198 39.7025C26.5539 39.9966 26.8881 40.2022 27.405 40.1108C27.028 40.4907 26.7967 40.5392 26.5054 40.3365C26.4311 40.2851 26.3683 40.2165 26.3112 40.148C25.9828 39.7539 25.6029 39.5911 25.1146 39.8652C25.066 39.8909 24.9918 39.8681 24.809 39.8681V39.871Z" stroke="#4C1E00" stroke-width="0.5" stroke-miterlimit="10"/>
<path d="M27.7134 48.5842C26.5653 48.7726 26.0741 49.6037 25.4201 50.2748C25.3973 49.4409 26.7681 48.3471 27.7134 48.5842Z" stroke="#4C1E00" stroke-width="0.5" stroke-miterlimit="10"/>
<path d="M48.7954 26.8252C48.4984 25.8456 48.2242 24.9489 47.9786 24.1378C48.4298 24.4405 48.8896 25.7799 48.7954 26.8252Z" stroke="#4C1E00" stroke-width="0.5" stroke-miterlimit="10"/>
<path d="M33.0396 25.7229C33.6336 25.1803 34.2276 24.6377 34.8531 24.0665C34.9359 24.335 34.7474 24.4835 34.6017 24.612C34.1305 25.029 33.6422 25.4288 33.1595 25.8343C33.1195 25.7972 33.0796 25.7601 33.0424 25.7229H33.0396Z" stroke="#4C1E00" stroke-width="0.5" stroke-miterlimit="10"/>
<path d="M37.3177 30.0438C37.7004 29.7011 38.0802 29.3584 38.4629 29.0186C38.4943 29.0528 38.5257 29.0899 38.5543 29.1242C38.2401 29.5469 37.9688 30.021 37.3177 30.0438Z" stroke="#4C1E00" stroke-width="0.5" stroke-miterlimit="10"/>
<path d="M29.4012 34.7731C29.327 34.6874 29.2899 34.6589 29.2727 34.6217C29.1928 34.4418 29.0671 34.2505 29.2927 34.0963C29.3413 34.062 29.4898 34.0877 29.5269 34.1362C29.7011 34.3533 29.7068 34.5646 29.4012 34.776V34.7731Z" stroke="#4C1E00" stroke-width="0.5" stroke-miterlimit="10"/>
<path d="M51.1658 34.399C51.1772 34.4418 51.2086 34.4932 51.1972 34.5246C50.7602 35.5442 50.8145 36.6151 50.8516 37.6889C50.883 38.5857 50.3947 39.1654 49.5408 39.3453C48.9068 39.4796 48.5269 39.2625 48.3327 38.6514C48.2728 38.4657 48.2385 38.2715 48.1614 37.946C47.8444 38.5971 48.2071 38.9912 48.3984 39.4253C47.6702 39.1797 47.1247 38.52 46.7135 37.3377C47.1704 37.5262 47.5588 37.8289 48.1871 37.6661C47.8872 37.5604 47.7273 37.5005 47.5645 37.449C46.9676 37.252 46.6935 36.9264 46.7163 36.4409C46.7449 35.8498 47.1818 35.3271 47.7359 35.2158C47.7816 35.2072 47.8273 35.1929 47.8701 35.2015C49.0667 35.3928 50.1148 35.0044 51.1086 34.3876C51.1201 34.379 51.1458 34.3933 51.1658 34.399ZM49.9492 36.4181C49.5436 36.9521 49.141 37.4862 48.7383 38.0231C48.7326 38.0288 48.7554 38.0631 48.7697 38.0745C48.784 38.0859 48.8068 38.0888 48.8582 38.1059C49.3694 37.6518 49.8863 37.192 49.9492 36.4181Z" stroke="#4C1E00" stroke-width="0.5" stroke-miterlimit="10"/>
<path d="M39.7252 18.5776C39.7851 18.7689 39.8308 18.9174 39.8737 19.0659C40.0079 19.5086 40.2135 19.8855 40.5819 20.2026C40.8846 20.4624 41.1303 20.8194 41.3073 21.1821C41.7014 21.9789 41.4872 22.8985 40.8304 23.4954C40.4734 23.8209 39.7623 23.8266 39.4824 23.4097C39.0883 22.8299 38.6428 22.7671 38.0174 22.9413C37.4976 23.087 37.0635 22.7357 36.9921 22.2017C36.9093 21.5762 37.0435 21.0308 37.6004 20.6338C37.9888 20.3568 38.3629 20.054 38.7056 19.7228C39.0483 19.3915 39.3396 19.0117 39.7223 18.5747L39.7252 18.5776ZM39.6195 20.828C39.5253 21.3278 39.4339 21.8247 39.3396 22.3245C39.7195 21.8761 39.7252 21.3535 39.6195 20.828Z" stroke="#4C1E00" stroke-width="0.5" stroke-miterlimit="10"/>
<path d="M43.8376 36.8407C43.2693 37.726 42.7981 38.023 42.2897 37.9259C42.8066 37.5632 43.3207 37.2034 43.8376 36.8407Z" stroke="#4C1E00" stroke-width="0.5" stroke-miterlimit="10"/>
<path d="M43.4663 25.6029C43.4463 26.2883 43.255 26.8452 42.7495 27.2507C42.9894 26.7024 43.2293 26.1512 43.4663 25.6029Z" stroke="#4C1E00" stroke-width="0.5" stroke-miterlimit="10"/>
<path d="M37.5 67C53.7924 67 67 53.7924 67 37.5C67 21.2076 53.7924 8 37.5 8C21.2076 8 8 21.2076 8 37.5C8 53.7924 21.2076 67 37.5 67Z" stroke="#4C1E00" stroke-miterlimit="10"/>
</svg>
