<svg width="59" height="59" viewBox="0 0 59 59" fill="none" xmlns="http://www.w3.org/2000/svg">
<path d="M29.3366 58.1732C45.2626 58.1732 58.1732 45.2626 58.1732 29.3366C58.1732 13.4106 45.2626 0.5 29.3366 0.5C13.4106 0.5 0.5 13.4106 0.5 29.3366C0.5 45.2626 13.4106 58.1732 29.3366 58.1732Z" stroke="#798A8D" stroke-miterlimit="10"/>
<path d="M23.1941 37.3186L41.8287 18.684C42.2906 18.222 42.8366 17.8581 43.4385 17.6061C44.0404 17.3569 44.6872 17.2281 45.3367 17.2281C45.9862 17.2281 46.6329 17.3569 47.2349 17.6061C47.8368 17.8553 48.3827 18.222 48.8447 18.684C49.3066 19.1459 49.6706 19.6919 49.9225 20.2938C50.1717 20.8957 50.3005 21.5424 50.3005 22.192C50.3005 22.8415 50.1717 23.4882 49.9225 24.0901C49.6734 24.6921 49.3066 25.238 48.8447 25.6999L37.2456 37.3158C35.3811 39.1775 32.853 40.2218 30.2185 40.2218C27.584 40.2218 25.0559 39.1775 23.1913 37.3158L23.1941 37.3186Z" stroke="#798A8D"/>
<path d="M35.5546 21.2316L16.9201 39.8662C16.4581 40.3282 15.9122 40.6921 15.3102 40.9441C14.7083 41.1933 14.0616 41.322 13.4121 41.322C12.7625 41.322 12.1158 41.1933 11.5139 40.9441C10.912 40.6949 10.366 40.3282 9.90409 39.8662C8.9746 38.9339 8.45386 37.6713 8.45386 36.3582C8.45386 35.0452 8.9746 33.7825 9.90409 32.8502L21.5031 21.2344C23.3677 19.3726 25.8958 18.3284 28.5303 18.3284C31.1648 18.3284 33.6929 19.3726 35.5574 21.2344L35.5546 21.2316Z" stroke="#798A8D"/>
</svg>
