<svg width="68" height="68" viewBox="0 0 68 68" fill="none" xmlns="http://www.w3.org/2000/svg">
<path d="M34 67C52.2254 67 67 52.2254 67 34C67 15.7746 52.2254 1 34 1C15.7746 1 1 15.7746 1 34C1 52.2254 15.7746 67 34 67Z" stroke="#4C1E00" stroke-width="2" stroke-miterlimit="10"/>
<path d="M34.0001 36.5637C35.4157 36.5637 36.5632 35.4162 36.5632 34.0006C36.5632 32.585 35.4157 31.4375 34.0001 31.4375C32.5846 31.4375 31.437 32.585 31.437 34.0006C31.437 35.4162 32.5846 36.5637 34.0001 36.5637Z" fill="#4C1E00"/>
<path d="M35.5349 12.3098L34.0227 2.63086L32.5136 12.3098L31.0046 21.9855H30.9565L32.4784 25.9263L34.0002 29.8639L35.5221 25.9263L37.0439 21.9855L35.5349 12.3098Z" fill="#4C1E00"/>
<path d="M32.4656 55.6888L33.9778 65.3678L35.4868 55.6888L36.9959 46.0131H37.0439L35.5221 42.0723L34.0002 38.1348L32.4784 42.0723L30.9565 46.0131L32.4656 55.6888Z" fill="#4C1E00"/>
<path d="M12.3098 32.3365L2.63086 33.8455L12.3098 35.3577L21.9855 36.8667V36.9116L25.9263 35.3898L29.8639 33.8679L25.9263 32.3461L21.9855 30.8242L12.3098 32.3365Z" fill="#4C1E00"/>
<path d="M34 38.166C36.3003 38.166 38.1651 36.3013 38.1651 34.001C38.1651 31.7007 36.3003 29.8359 34 29.8359C31.6997 29.8359 29.835 31.7007 29.835 34.001C29.835 36.3013 31.6997 38.166 34 38.166Z" stroke="#4C1E00" stroke-miterlimit="10"/>
<path d="M55.6903 35.4026L65.3692 33.8935L55.6903 32.3813L46.0146 30.8723V30.8242L42.0738 32.3461L38.1362 33.8679L42.0738 35.3898L46.0146 36.9116L55.6903 35.4026Z" fill="#4C1E00"/>
<path d="M19.7458 17.5781L11.8354 11.8047L17.6121 19.7151L23.3855 27.6255L23.3534 27.6575L27.2141 29.3684L31.0748 31.076L29.3671 27.2154L27.6562 23.3547L19.7458 17.5781Z" fill="#4C1E00"/>
<path d="M48.254 50.4218L56.1644 56.1952L50.3878 48.2848L44.6144 40.3744L44.6464 40.3424L40.7857 38.6315L36.925 36.9238L38.6327 40.7845L40.3436 44.6452L48.254 50.4218Z" fill="#4C1E00"/>
<path d="M17.4873 48.161L11.7107 56.0714L19.6211 50.298L27.5315 44.5214L27.5635 44.5566L29.2744 40.6927L30.9853 36.832L27.1214 38.5429L23.2607 40.2506L17.4873 48.161Z" fill="#4C1E00"/>
<path d="M50.3302 19.6565L56.1036 11.7461L48.1965 17.5195L40.2861 23.2929L40.2508 23.2609L38.5432 27.1215L36.8323 30.9854L40.693 29.2745L44.5568 27.5637L50.3302 19.6565Z" fill="#4C1E00"/>
</svg>
