<svg width="58" height="58" viewBox="0 0 58 58" fill="none" xmlns="http://www.w3.org/2000/svg">
<path d="M10.6814 18.0835C10.7152 18.0862 10.7651 18.0903 10.8181 18.0903H15.7478C15.8299 18.0903 15.8907 18.0923 15.9373 18.0933C15.9489 18.1365 15.9656 18.1921 15.9842 18.2681V18.269C16.036 18.4817 16.0741 18.6672 16.0828 18.8413V18.8433C16.129 19.7234 16.2448 20.5979 16.4578 21.4644C16.535 21.7784 16.5953 22.0997 16.658 22.437C16.7198 22.7695 16.7847 23.1181 16.8699 23.4634V23.4644C17.216 24.8599 17.6859 26.2136 18.3123 27.521V27.522C18.8938 28.7333 19.5521 29.9191 20.4178 30.9946L20.4187 30.9956C21.4737 32.3006 22.7499 33.382 24.4217 33.9507V33.9517C24.5406 33.9924 24.6673 34.026 24.7957 34.0503C24.8713 34.0652 24.9387 34.0686 24.9832 34.0698C25.0393 34.0713 25.0629 34.0703 25.1101 34.0728L25.6013 34.0981L25.6346 33.6069C25.6438 33.4678 25.6638 33.2741 25.6638 33.1011C25.6652 30.636 25.6664 28.171 25.6678 25.7065C25.6692 23.2423 25.6703 20.778 25.6717 18.313V18.2065L25.6736 18.0894C25.7019 18.0885 25.7339 18.0876 25.7703 18.0874H30.8504L30.9842 18.0913L30.9881 18.2427V27.4585L31.6072 27.3062C31.9599 27.2198 32.4021 27.1456 32.7713 27.0103H32.7722C34.8713 26.2363 36.5757 24.9257 37.9558 23.2026L37.9568 23.2017C38.9366 21.9747 39.6733 20.6154 40.2371 19.1743C40.3391 18.918 40.3935 18.6509 40.4373 18.4321L40.4383 18.4331C40.4894 18.1836 40.542 18.1361 40.5476 18.1313C40.5514 18.1281 40.6016 18.0874 40.8357 18.0874H45.8728C45.9362 18.0874 45.9852 18.0902 46.0222 18.0942C46.0179 18.1258 46.012 18.1665 45.9998 18.2173C45.6397 19.7089 45.0568 21.1141 44.2762 22.4497C43.3135 24.0942 42.1304 25.5539 40.7303 26.8394H40.7293C39.9277 27.5778 39.0972 28.2368 38.159 28.7231L38.157 28.7241C38.0783 28.7653 38.0181 28.8144 37.9803 28.8462C37.9618 28.8617 37.9406 28.8801 37.9256 28.8931C37.9086 28.9077 37.8921 28.922 37.8738 28.937L37.2508 29.4468L37.9832 29.7788C38.1453 29.8523 38.2858 29.9133 38.4158 29.9712L38.7888 30.147C40.7625 31.1527 42.3814 32.5882 43.7742 34.3306V34.3315C44.5699 35.3262 45.2696 36.3716 45.8387 37.4927L46.074 37.978C46.4273 38.7394 46.7127 39.5186 47.0418 40.3345V40.3354C47.0375 40.3243 47.0398 40.3246 47.0428 40.3462C47.0458 40.3691 47.0475 40.3956 47.0506 40.4429V40.4438C47.0523 40.4703 47.0526 40.4943 47.0535 40.5161C47.0398 40.5163 47.0252 40.5181 47.0096 40.5181H47.0076C45.1957 40.5236 43.3653 40.5129 41.5457 40.5269C41.4971 40.5272 41.4721 40.5209 41.4627 40.5181C41.4553 40.5159 41.4556 40.5154 41.4578 40.5171C41.4554 40.515 41.4294 40.4906 41.3914 40.3931H41.3924C40.9885 39.344 40.4676 38.3621 39.8513 37.4341L39.5818 37.0405C38.3178 35.2384 36.6704 33.9183 34.6238 33.106C33.4297 32.6306 32.4171 32.3681 31.5076 32.3374L31.2908 32.3306L30.9851 32.6362V40.1392C30.9851 40.3224 30.9898 40.4466 30.9803 40.5796V40.5874C30.9781 40.6258 30.971 40.6541 30.9676 40.6753C30.9463 40.6781 30.9177 40.6853 30.8787 40.686H30.8767C30.249 40.7007 29.6923 40.7374 29.1404 40.6802H29.1394C28.1582 40.5798 27.1922 40.4611 26.2547 40.2573H26.2537C25.2922 40.0473 24.3425 39.7964 23.4549 39.4468C21.612 38.7194 19.9525 37.6745 18.4783 36.3364H18.4773C16.8573 34.8666 15.5156 33.1801 14.4236 31.2808V31.2798L14.117 30.7358C13.4168 29.4617 12.8203 28.152 12.3865 26.7769V26.7759L12.1004 25.8647C11.8186 24.9539 11.5532 24.0448 11.3318 23.1284V23.1274L11.2605 22.8071C11.1077 22.0608 11.0438 21.3158 10.908 20.4829L10.8406 20.1382C10.8162 20.0262 10.7911 19.9175 10.7683 19.8169C10.7446 19.712 10.7229 19.6129 10.7049 19.5171L10.6629 19.2378L10.6394 18.9233C10.6263 18.6487 10.6315 18.367 10.6463 18.0806C10.656 18.0814 10.6676 18.0824 10.6814 18.0835Z" stroke="#798A8D"/>
<path d="M28.8369 0.5C44.4866 0.50018 57.1729 13.1872 57.1729 28.8369C57.1727 44.4865 44.4865 57.1727 28.8369 57.1729C13.1872 57.1729 0.50018 44.4866 0.5 28.8369C0.5 13.1871 13.1871 0.5 28.8369 0.5Z" stroke="#798A8D" stroke-miterlimit="10"/>
</svg>
