<svg width="58" height="58" viewBox="0 0 58 58" fill="none" xmlns="http://www.w3.org/2000/svg">
<mask id="path-1-inside-1_301_22" fill="white">
<path d="M30.438 29.097C30.6144 29.013 30.7543 28.957 30.8803 28.8814C31.947 28.2515 33.0137 27.6188 34.0775 26.9833C35.161 26.3365 36.2501 25.701 37.3196 25.0291C38.0475 24.5699 38.7418 24.0604 39.4529 23.5733C40.1052 23.1281 40.2312 22.5318 39.982 21.8123C39.8645 21.4707 39.7777 21.118 39.6825 20.7708C39.6293 20.5776 39.6825 20.4124 39.8533 20.3089C40.0296 20.2025 40.2032 20.2865 40.3068 20.418C40.6512 20.8576 41.0151 21.2915 41.2979 21.7731C41.953 22.8845 42.5829 24.0156 43.1877 25.1551C43.4816 25.7094 43.714 26.2973 43.9492 26.8797C44.0416 27.112 43.9212 27.2156 43.6776 27.1372C43.5348 27.0896 43.3864 27.0253 43.2689 26.9329C42.5969 26.3953 41.8802 26.3925 41.1523 26.7677C39.9149 27.406 38.6802 28.0499 37.4595 28.7191C36.4881 29.251 35.5306 29.8109 34.5815 30.3821C33.9544 30.76 33.3468 31.1688 32.7449 31.5803C32.367 31.8379 32.3614 32.0087 32.7477 32.2718C33.3496 32.6834 33.9628 33.0837 34.5983 33.4421C35.6426 34.0328 36.7008 34.5984 37.7675 35.1471C38.949 35.7546 40.1388 36.3537 41.3427 36.9193C42.1826 37.314 42.0734 37.3 42.8377 36.6729C43.1233 36.4405 43.3724 36.1634 43.644 35.9142C43.8456 35.7294 44.0668 35.5866 44.3635 35.6006C44.6855 35.6174 44.8059 35.7658 44.6771 36.0654C44.5259 36.4181 44.3635 36.7709 44.1704 37.0985C43.5488 38.1427 42.9021 39.173 42.2806 40.2173C41.8746 40.8976 41.5023 41.5947 41.1047 42.2806C40.8779 42.6698 40.5168 42.751 40.2956 42.4458C40.1976 42.3114 40.1528 42.1015 40.164 41.9307C40.1808 41.6647 40.2564 41.4016 40.3292 41.1412C40.3796 40.962 40.332 40.8444 40.206 40.71C39.4781 39.9401 38.5934 39.3774 37.6947 38.8427C35.8609 37.7564 34.0188 36.6897 32.1738 35.6202C31.8154 35.4131 31.4459 35.2199 31.0763 35.0351C30.8299 34.9091 30.7319 34.9595 30.7179 35.2395C30.6844 35.9366 30.6564 36.6365 30.6536 37.3336C30.6536 38.8875 30.6564 40.4441 30.6844 41.9979C30.7095 43.4537 30.7599 44.9067 30.8215 46.3598C30.8355 46.6593 30.9251 46.9645 31.0203 47.2529C31.1463 47.6336 31.4543 47.8576 31.8014 48.0312C32.0002 48.132 32.2046 48.2243 32.3865 48.3503C32.4761 48.4119 32.5209 48.5407 32.5853 48.6387C32.4873 48.6947 32.3977 48.7815 32.2942 48.7983C31.9694 48.8543 31.6418 48.9047 31.3115 48.9215C30.7655 48.9523 30.2196 48.9663 29.6737 48.9746C28.5202 48.9942 27.3639 49.0055 26.2105 49.0167C26.0733 49.0167 25.9305 49.0167 25.7989 48.9803C25.5526 48.9159 25.4994 48.6947 25.6925 48.5323C25.8073 48.4371 25.9473 48.3559 26.0901 48.3083C26.7032 48.104 27.07 47.6896 27.1652 47.0513C27.2128 46.7321 27.2744 46.413 27.2828 46.091C27.3052 45.2763 27.3024 44.4616 27.3108 43.6441C27.3192 42.4122 27.3303 41.1804 27.3359 39.9485C27.3387 38.8875 27.3415 37.8264 27.3359 36.7653C27.3331 36.2334 27.3108 35.7042 27.2968 35.1723C27.2968 35.0911 27.28 35.0071 27.2632 34.8755C27.0448 34.9735 26.8488 35.0379 26.6752 35.1415C26.0481 35.5166 25.4322 35.9086 24.8078 36.2866C24.0715 36.7317 23.3268 37.1657 22.5877 37.608C21.4454 38.2883 20.2976 38.963 19.1637 39.6574C18.7298 39.9205 18.3294 40.2341 17.9095 40.5225C17.4251 40.8556 17.2319 41.2896 17.3747 41.8775C17.4335 42.1211 17.4559 42.3786 17.4643 42.6334C17.4671 42.751 17.4195 42.9498 17.3523 42.9694C17.2347 43.003 17.0528 42.9694 16.9576 42.8882C16.77 42.7342 16.5992 42.5438 16.4676 42.3394C15.8993 41.4547 15.345 40.5561 14.785 39.6658C14.4407 39.1198 14.0879 38.5767 13.7548 38.0252C13.6204 37.804 13.5084 37.5632 13.4244 37.3168C13.3908 37.216 13.4132 37.0341 13.486 36.9725C13.5588 36.9081 13.7408 36.9053 13.8387 36.9501C14.0095 37.0285 14.1551 37.1629 14.3063 37.2832C14.5107 37.4456 14.715 37.6108 14.911 37.7816C15.0846 37.9328 15.2722 37.944 15.4682 37.8488C16.1653 37.5072 16.8736 37.1881 17.5511 36.8073C19.5557 35.679 21.5462 34.5312 23.5396 33.3805C24.1051 33.0529 24.6567 32.703 25.211 32.353C25.463 32.1934 25.4686 32.1039 25.211 31.9387C24.7127 31.6195 24.2115 31.3031 23.6936 31.0148C22.2573 30.2141 20.8211 29.4078 19.3653 28.6407C18.0998 27.9771 16.812 27.3528 15.5213 26.7397C14.9082 26.4485 14.673 26.5297 14.2111 27.0421C14.0571 27.2128 13.9087 27.392 13.7464 27.5572C13.626 27.6804 13.5336 27.8876 13.2956 27.7644C13.038 27.6272 12.8953 27.3528 12.9737 27.0896C13.0352 26.8853 13.1136 26.6809 13.2116 26.4905C13.514 25.911 13.8275 25.3371 14.1411 24.7631C14.6507 23.8336 15.1574 22.8985 15.6809 21.9775C15.8237 21.7255 16.0085 21.4931 16.2045 21.2775C16.2801 21.1935 16.4592 21.1152 16.5432 21.1516C16.6552 21.1991 16.7868 21.3531 16.7924 21.4679C16.8064 21.8403 16.812 22.2238 16.7392 22.5878C16.658 22.9853 16.8064 23.2597 17.0836 23.4753C17.5035 23.8 17.9263 24.1276 18.3798 24.3936C20.236 25.4854 22.1006 26.5577 23.9679 27.6328C24.847 28.1395 25.7373 28.6295 26.6192 29.1278C26.8964 29.2846 26.9804 29.2594 27 28.943C27.0392 28.3523 27.0616 27.7588 27.0616 27.168C27.0616 25.729 27.0448 24.29 27.0308 22.851C27.0112 20.8268 26.9944 18.7998 26.9664 16.7757C26.9412 15.0203 26.9188 13.2649 26.8656 11.5095C26.8544 11.1399 26.7424 10.7704 26.6416 10.4092C26.5548 10.1013 26.3225 9.95568 25.9949 9.90529C25.5946 9.84369 25.2054 9.72611 24.8134 9.62532C24.7519 9.60852 24.6763 9.56653 24.6455 9.51333C24.5643 9.37335 24.4411 9.21377 24.4579 9.07379C24.4691 8.9814 24.6819 8.86661 24.8162 8.84421C25.3174 8.76582 25.8213 8.67903 26.3253 8.67063C28.3746 8.63704 30.4212 8.62024 32.4705 8.62024C33.3636 8.62024 34.2567 8.65104 35.147 8.70143C36.0121 8.75182 36.796 9.06259 37.5071 9.55253C38.7306 10.3952 39.6237 11.4983 40.0884 12.9149C40.3292 13.6512 40.3712 14.4212 40.3572 15.1967C40.3432 15.8966 40.2144 16.5741 40.024 17.2404C39.7973 18.0299 39.4137 18.7438 38.921 19.4074C37.9075 20.7708 36.5357 21.6051 34.937 22.0474C34.1139 22.2742 33.2432 22.3414 32.3893 22.4366C31.8714 22.4954 31.3451 22.4702 30.8215 22.4758C30.6228 22.4758 30.5192 22.5542 30.5164 22.7586C30.508 23.3885 30.494 24.0212 30.4856 24.6511C30.466 26.037 30.452 27.4228 30.4352 28.8086C30.4352 28.8814 30.4436 28.9542 30.4492 29.0802L30.438 29.097ZM30.354 18.3827C30.354 18.3827 30.3736 18.3827 30.3848 18.3827C30.3848 18.4611 30.3848 18.5367 30.3848 18.6151C30.3904 19.4018 30.3876 20.1857 30.4072 20.9696C30.4156 21.3027 30.4688 21.3503 30.8103 21.3643C31.2331 21.3839 31.6558 21.3923 32.0786 21.3783C33.624 21.3307 34.9594 20.7652 36.0569 19.6789C36.6756 19.0658 37.1096 18.3323 37.2076 17.4476C37.2524 17.036 37.2468 16.6189 37.2664 16.2017C37.328 14.9279 37.0312 13.7352 36.3817 12.649C35.6902 11.4927 34.7103 10.7088 33.3272 10.5352C32.5405 10.4372 31.7566 10.3308 30.9699 10.258C30.3932 10.2049 30.4324 10.1097 30.3568 10.7704C30.3512 10.8152 30.3428 10.8628 30.3428 10.9076C30.3484 11.9378 30.3568 12.9653 30.3596 13.9956C30.3624 15.457 30.3596 16.9185 30.3596 18.3799L30.354 18.3827Z"/>
</mask>
<path d="M30.438 29.097C30.6144 29.013 30.7543 28.957 30.8803 28.8814C31.947 28.2515 33.0137 27.6188 34.0775 26.9833C35.161 26.3365 36.2501 25.701 37.3196 25.0291C38.0475 24.5699 38.7418 24.0604 39.4529 23.5733C40.1052 23.1281 40.2312 22.5318 39.982 21.8123C39.8645 21.4707 39.7777 21.118 39.6825 20.7708C39.6293 20.5776 39.6825 20.4124 39.8533 20.3089C40.0296 20.2025 40.2032 20.2865 40.3068 20.418C40.6512 20.8576 41.0151 21.2915 41.2979 21.7731C41.953 22.8845 42.5829 24.0156 43.1877 25.1551C43.4816 25.7094 43.714 26.2973 43.9492 26.8797C44.0416 27.112 43.9212 27.2156 43.6776 27.1372C43.5348 27.0896 43.3864 27.0253 43.2689 26.9329C42.5969 26.3953 41.8802 26.3925 41.1523 26.7677C39.9149 27.406 38.6802 28.0499 37.4595 28.7191C36.4881 29.251 35.5306 29.8109 34.5815 30.3821C33.9544 30.76 33.3468 31.1688 32.7449 31.5803C32.367 31.8379 32.3614 32.0087 32.7477 32.2718C33.3496 32.6834 33.9628 33.0837 34.5983 33.4421C35.6426 34.0328 36.7008 34.5984 37.7675 35.1471C38.949 35.7546 40.1388 36.3537 41.3427 36.9193C42.1826 37.314 42.0734 37.3 42.8377 36.6729C43.1233 36.4405 43.3724 36.1634 43.644 35.9142C43.8456 35.7294 44.0668 35.5866 44.3635 35.6006C44.6855 35.6174 44.8059 35.7658 44.6771 36.0654C44.5259 36.4181 44.3635 36.7709 44.1704 37.0985C43.5488 38.1427 42.9021 39.173 42.2806 40.2173C41.8746 40.8976 41.5023 41.5947 41.1047 42.2806C40.8779 42.6698 40.5168 42.751 40.2956 42.4458C40.1976 42.3114 40.1528 42.1015 40.164 41.9307C40.1808 41.6647 40.2564 41.4016 40.3292 41.1412C40.3796 40.962 40.332 40.8444 40.206 40.71C39.4781 39.9401 38.5934 39.3774 37.6947 38.8427C35.8609 37.7564 34.0188 36.6897 32.1738 35.6202C31.8154 35.4131 31.4459 35.2199 31.0763 35.0351C30.8299 34.9091 30.7319 34.9595 30.7179 35.2395C30.6844 35.9366 30.6564 36.6365 30.6536 37.3336C30.6536 38.8875 30.6564 40.4441 30.6844 41.9979C30.7095 43.4537 30.7599 44.9067 30.8215 46.3598C30.8355 46.6593 30.9251 46.9645 31.0203 47.2529C31.1463 47.6336 31.4543 47.8576 31.8014 48.0312C32.0002 48.132 32.2046 48.2243 32.3865 48.3503C32.4761 48.4119 32.5209 48.5407 32.5853 48.6387C32.4873 48.6947 32.3977 48.7815 32.2942 48.7983C31.9694 48.8543 31.6418 48.9047 31.3115 48.9215C30.7655 48.9523 30.2196 48.9663 29.6737 48.9746C28.5202 48.9942 27.3639 49.0055 26.2105 49.0167C26.0733 49.0167 25.9305 49.0167 25.7989 48.9803C25.5526 48.9159 25.4994 48.6947 25.6925 48.5323C25.8073 48.4371 25.9473 48.3559 26.0901 48.3083C26.7032 48.104 27.07 47.6896 27.1652 47.0513C27.2128 46.7321 27.2744 46.413 27.2828 46.091C27.3052 45.2763 27.3024 44.4616 27.3108 43.6441C27.3192 42.4122 27.3303 41.1804 27.3359 39.9485C27.3387 38.8875 27.3415 37.8264 27.3359 36.7653C27.3331 36.2334 27.3108 35.7042 27.2968 35.1723C27.2968 35.0911 27.28 35.0071 27.2632 34.8755C27.0448 34.9735 26.8488 35.0379 26.6752 35.1415C26.0481 35.5166 25.4322 35.9086 24.8078 36.2866C24.0715 36.7317 23.3268 37.1657 22.5877 37.608C21.4454 38.2883 20.2976 38.963 19.1637 39.6574C18.7298 39.9205 18.3294 40.2341 17.9095 40.5225C17.4251 40.8556 17.2319 41.2896 17.3747 41.8775C17.4335 42.1211 17.4559 42.3786 17.4643 42.6334C17.4671 42.751 17.4195 42.9498 17.3523 42.9694C17.2347 43.003 17.0528 42.9694 16.9576 42.8882C16.77 42.7342 16.5992 42.5438 16.4676 42.3394C15.8993 41.4547 15.345 40.5561 14.785 39.6658C14.4407 39.1198 14.0879 38.5767 13.7548 38.0252C13.6204 37.804 13.5084 37.5632 13.4244 37.3168C13.3908 37.216 13.4132 37.0341 13.486 36.9725C13.5588 36.9081 13.7408 36.9053 13.8387 36.9501C14.0095 37.0285 14.1551 37.1629 14.3063 37.2832C14.5107 37.4456 14.715 37.6108 14.911 37.7816C15.0846 37.9328 15.2722 37.944 15.4682 37.8488C16.1653 37.5072 16.8736 37.1881 17.5511 36.8073C19.5557 35.679 21.5462 34.5312 23.5396 33.3805C24.1051 33.0529 24.6567 32.703 25.211 32.353C25.463 32.1934 25.4686 32.1039 25.211 31.9387C24.7127 31.6195 24.2115 31.3031 23.6936 31.0148C22.2573 30.2141 20.8211 29.4078 19.3653 28.6407C18.0998 27.9771 16.812 27.3528 15.5213 26.7397C14.9082 26.4485 14.673 26.5297 14.2111 27.0421C14.0571 27.2128 13.9087 27.392 13.7464 27.5572C13.626 27.6804 13.5336 27.8876 13.2956 27.7644C13.038 27.6272 12.8953 27.3528 12.9737 27.0896C13.0352 26.8853 13.1136 26.6809 13.2116 26.4905C13.514 25.911 13.8275 25.3371 14.1411 24.7631C14.6507 23.8336 15.1574 22.8985 15.6809 21.9775C15.8237 21.7255 16.0085 21.4931 16.2045 21.2775C16.2801 21.1935 16.4592 21.1152 16.5432 21.1516C16.6552 21.1991 16.7868 21.3531 16.7924 21.4679C16.8064 21.8403 16.812 22.2238 16.7392 22.5878C16.658 22.9853 16.8064 23.2597 17.0836 23.4753C17.5035 23.8 17.9263 24.1276 18.3798 24.3936C20.236 25.4854 22.1006 26.5577 23.9679 27.6328C24.847 28.1395 25.7373 28.6295 26.6192 29.1278C26.8964 29.2846 26.9804 29.2594 27 28.943C27.0392 28.3523 27.0616 27.7588 27.0616 27.168C27.0616 25.729 27.0448 24.29 27.0308 22.851C27.0112 20.8268 26.9944 18.7998 26.9664 16.7757C26.9412 15.0203 26.9188 13.2649 26.8656 11.5095C26.8544 11.1399 26.7424 10.7704 26.6416 10.4092C26.5548 10.1013 26.3225 9.95568 25.9949 9.90529C25.5946 9.84369 25.2054 9.72611 24.8134 9.62532C24.7519 9.60852 24.6763 9.56653 24.6455 9.51333C24.5643 9.37335 24.4411 9.21377 24.4579 9.07379C24.4691 8.9814 24.6819 8.86661 24.8162 8.84421C25.3174 8.76582 25.8213 8.67903 26.3253 8.67063C28.3746 8.63704 30.4212 8.62024 32.4705 8.62024C33.3636 8.62024 34.2567 8.65104 35.147 8.70143C36.0121 8.75182 36.796 9.06259 37.5071 9.55253C38.7306 10.3952 39.6237 11.4983 40.0884 12.9149C40.3292 13.6512 40.3712 14.4212 40.3572 15.1967C40.3432 15.8966 40.2144 16.5741 40.024 17.2404C39.7973 18.0299 39.4137 18.7438 38.921 19.4074C37.9075 20.7708 36.5357 21.6051 34.937 22.0474C34.1139 22.2742 33.2432 22.3414 32.3893 22.4366C31.8714 22.4954 31.3451 22.4702 30.8215 22.4758C30.6228 22.4758 30.5192 22.5542 30.5164 22.7586C30.508 23.3885 30.494 24.0212 30.4856 24.6511C30.466 26.037 30.452 27.4228 30.4352 28.8086C30.4352 28.8814 30.4436 28.9542 30.4492 29.0802L30.438 29.097ZM30.354 18.3827C30.354 18.3827 30.3736 18.3827 30.3848 18.3827C30.3848 18.4611 30.3848 18.5367 30.3848 18.6151C30.3904 19.4018 30.3876 20.1857 30.4072 20.9696C30.4156 21.3027 30.4688 21.3503 30.8103 21.3643C31.2331 21.3839 31.6558 21.3923 32.0786 21.3783C33.624 21.3307 34.9594 20.7652 36.0569 19.6789C36.6756 19.0658 37.1096 18.3323 37.2076 17.4476C37.2524 17.036 37.2468 16.6189 37.2664 16.2017C37.328 14.9279 37.0312 13.7352 36.3817 12.649C35.6902 11.4927 34.7103 10.7088 33.3272 10.5352C32.5405 10.4372 31.7566 10.3308 30.9699 10.258C30.3932 10.2049 30.4324 10.1097 30.3568 10.7704C30.3512 10.8152 30.3428 10.8628 30.3428 10.9076C30.3484 11.9378 30.3568 12.9653 30.3596 13.9956C30.3624 15.457 30.3596 16.9185 30.3596 18.3799L30.354 18.3827Z" stroke="#798A8D" stroke-width="2" mask="url(#path-1-inside-1_301_22)"/>
<path d="M28.8369 0.5C44.4866 0.50018 57.1729 13.1872 57.1729 28.8369C57.1727 44.4865 44.4865 57.1727 28.8369 57.1729C13.1872 57.1729 0.50018 44.4866 0.5 28.8369C0.5 13.1871 13.1871 0.5 28.8369 0.5Z" stroke="#798A8D" stroke-miterlimit="10"/>
</svg>
