<svg width="50" height="50" viewBox="0 0 50 50" fill="none" xmlns="http://www.w3.org/2000/svg">
<rect x="0.5" y="0.5" width="49" height="49" rx="24.5" stroke="white"/>
<path d="M23.0215 34.8154C24.0008 34.8154 24.7793 35.593 24.7793 36.5332C24.7791 37.4732 24.0007 38.25 23.0215 38.25C22.0423 38.25 21.2639 37.4732 21.2637 36.5332C21.2637 35.593 22.0421 34.8154 23.0215 34.8154ZM31.1484 34.8154C32.1276 34.8156 32.9053 35.5931 32.9053 36.5332C32.9051 37.4731 32.1275 38.2498 31.1484 38.25C30.1692 38.25 29.3908 37.4732 29.3906 36.5332C29.3906 35.593 30.1691 34.8154 31.1484 34.8154ZM10.8965 11.75H14.7646C14.9843 11.75 15.361 11.7924 15.7354 12.0225C16.0982 12.2456 16.5068 12.6741 16.7598 13.5342L16.7607 13.5352L18.2109 18.4482L18.3174 18.8066H37.8545C37.9858 18.8067 38.1074 18.8696 38.1807 18.9707V18.9717C38.2526 19.0721 38.269 19.1989 38.2275 19.3115L38.2236 19.3213L33.9307 31.7773C33.8771 31.9243 33.7311 32.0301 33.5576 32.0303H21.3682C21.1854 32.0303 21.0342 31.9123 20.9873 31.7549L15.9961 13.7412L15.9941 13.7334L15.9375 13.5586C15.7993 13.1664 15.6179 12.8944 15.3945 12.7227C15.1224 12.5134 14.8618 12.5117 14.7637 12.5117H10.8965C10.6694 12.5116 10.5001 12.3322 10.5 12.1309C10.5 11.9542 10.6294 11.7947 10.8145 11.7578L10.8965 11.75ZM18.7129 20.1982L21.5664 30.8984L21.666 31.2695H33.2842L33.4004 30.9316L37.0537 20.2305L37.2793 19.5693H18.5449L18.7129 20.1982Z" fill="white" stroke="white"/>
</svg>
