<svg width="58" height="58" viewBox="0 0 58 58" fill="none" xmlns="http://www.w3.org/2000/svg">
<rect x="0.5" y="0.5" width="57" height="57" rx="28.5" stroke="#798A8D"/>
<path d="M26.7045 40.3059C27.8833 40.3059 28.8236 41.242 28.8236 42.3782C28.8236 43.5143 27.8833 44.4504 26.7045 44.4504C25.5258 44.4502 24.5863 43.5142 24.5863 42.3782C24.5863 41.2422 25.5258 40.3062 26.7045 40.3059ZM36.1322 40.3059C37.3109 40.3061 38.2504 41.2422 38.2504 42.3782C38.2503 43.5142 37.3109 44.4502 36.1322 44.4504C34.9533 44.4504 34.0131 43.5143 34.0131 42.3782C34.0131 41.242 34.9533 40.3059 36.1322 40.3059ZM12.64 13.55H17.1273C17.3913 13.5501 17.8436 13.6003 18.2943 13.8772C18.6789 14.1135 19.0989 14.5374 19.3978 15.3196L19.5189 15.678L21.2015 21.3772L21.308 21.7356H43.9115C44.089 21.7357 44.2537 21.8211 44.3539 21.9592V21.9602C44.4527 22.098 44.4766 22.2732 44.4193 22.429L44.4154 22.4387L39.4349 36.8889C39.361 37.0922 39.1604 37.2356 38.9261 37.2356H24.7875C24.57 37.2356 24.3828 37.1112 24.2972 36.9329L24.267 36.8528L18.4789 15.9622L18.476 15.9534C18.3118 15.3969 18.0864 15.036 17.809 14.8225C17.5144 14.596 17.2344 14.593 17.1263 14.593H12.64C12.3337 14.593 12.1 14.3507 12.1 14.0715C12.1 13.7921 12.333 13.5501 12.64 13.55ZM21.7836 23.4094L25.0951 35.8225L25.1937 36.1936H38.5531L38.6683 35.8547L42.9066 23.4417L43.1322 22.7805H21.6166L21.7836 23.4094Z" stroke="#798A8D"/>
</svg>
