<svg width="58" height="58" viewBox="0 0 58 58" fill="none" xmlns="http://www.w3.org/2000/svg">
<path d="M28.8369 0.5C44.4866 0.50018 57.1729 13.1872 57.1729 28.8369C57.1727 44.4865 44.4865 57.1727 28.8369 57.1729C13.1872 57.1729 0.50018 44.4866 0.5 28.8369C0.5 13.1871 13.1871 0.5 28.8369 0.5Z" stroke="#798A8D" stroke-miterlimit="10"/>
<path d="M28.6837 6.19397C30.8275 4.5047 33.7342 4.83758 35.7668 7.12659C35.7116 7.20198 35.6468 7.28535 35.5763 7.3678C35.3583 7.62212 35.2324 7.80015 35.0509 7.99866C34.5992 7.69442 34.138 7.37483 33.6652 7.11292H33.6642C32.2227 6.31696 30.4298 6.4531 29.3127 7.46838L29.0978 7.68323C28.4798 8.36834 28.116 9.16833 28.1066 10.0172C28.0984 10.7628 28.3644 11.4971 28.8918 12.1735L29.1339 12.4596C31.1837 14.7059 33.4014 16.8288 35.5002 18.983V18.984C35.9734 19.4689 36.3957 19.9807 36.9523 20.6285C36.1819 21.3341 35.4427 21.9191 34.6925 22.5182C33.836 23.2022 32.968 23.903 32.0636 24.8063C30.1774 26.4345 29.373 28.6053 29.4171 30.9762C29.3772 32.0214 29.4425 33.3661 29.4425 34.735V35.235H37.1486L37.2277 34.8317C37.3199 34.3618 37.4004 33.8433 37.5265 33.3112V33.3102C37.7742 32.2613 38.3141 31.4873 39.0197 31.0172C39.7248 30.5474 40.6339 30.3551 41.6691 30.5406C43.2925 30.8327 44.5453 32.6531 44.2931 34.61C44.2855 34.6686 44.2615 34.7407 44.0978 34.8209C43.9666 34.8852 43.769 34.9371 43.4914 34.9694C43.4482 34.7649 43.4084 34.554 43.3488 34.2994C43.2712 33.9683 43.1673 33.6076 42.9855 33.274L42.9025 33.1334C42.7058 32.8212 42.3907 32.4907 42.0627 32.2457C41.897 32.122 41.7131 32.0085 41.5236 31.9313C41.3414 31.8571 41.1068 31.797 40.8634 31.8414C40.4346 31.9187 40.0339 32.1697 39.715 32.4489C39.39 32.7335 39.1041 33.0872 38.9132 33.4371C38.7115 33.8061 38.6548 34.225 38.6378 34.5944C38.6297 34.7714 38.6307 34.9649 38.6339 35.15L38.6418 35.6569C38.6376 38.188 38.6396 40.7192 38.6427 43.2506L38.6535 50.8453C38.6534 51.3752 38.5027 51.658 38.299 51.817C38.1318 51.9475 37.8654 52.0455 37.4582 52.0641V37.5758H29.4933V52.5406C29.2592 52.544 29.0376 52.5384 28.8068 52.5309C28.5764 52.5234 28.336 52.5169 28.0744 52.5201C27.9898 50.2156 28.0235 47.9381 28.0334 45.6246C28.0439 43.1512 28.0254 40.6442 27.7951 38.0651L27.7541 37.609H27.297C26.2302 37.609 25.1644 37.6044 24.0802 37.6002C22.9962 37.596 21.8932 37.5924 20.7541 37.5924H20.297L20.256 38.0475C20.1766 38.9348 20.1309 39.7803 20.1252 40.611V40.6129C20.1182 42.3379 20.1234 44.0717 20.13 45.8043L20.1418 50.9899C20.141 51.4886 20.1396 51.7654 20.1105 51.941C20.1068 51.9635 20.1011 51.9806 20.0978 51.9938C20.0758 51.9982 20.046 52.0027 20.006 52.0065C19.9133 52.0151 19.792 52.0184 19.6232 52.0182C19.3911 52.0179 19.0872 52.012 18.7111 52.0172C18.7048 51.7852 18.6971 51.5821 18.6877 51.3834C18.672 51.0538 18.657 50.7346 18.6584 50.2946C18.6668 47.7205 18.6753 45.1472 18.6837 42.5739C18.6921 40.0004 18.7007 37.4264 18.7091 34.8522V34.8502C18.7091 34.6089 18.676 34.2193 18.63 33.8541C18.5852 33.4983 18.5199 33.1017 18.4425 32.8678C18.177 32.055 17.4965 31.7026 16.8293 31.528L16.8039 31.5211L16.7785 31.5172L16.6193 31.5016C16.2511 31.4872 15.9112 31.616 15.6369 31.7721C15.319 31.9531 15.0381 32.1991 14.8224 32.4225C14.4959 32.7602 14.3796 33.2428 14.3175 33.6217C14.2847 33.8225 14.263 34.0281 14.2433 34.2106C14.2229 34.3995 14.2055 34.5616 14.1808 34.7028L14.173 34.7457V34.7897C14.1735 34.9723 14.1337 35.0575 14.1086 35.0944C14.0856 35.1279 14.0486 35.1611 13.9699 35.1871C13.8389 35.2304 13.65 35.2342 13.4191 35.2067C13.0758 32.9016 14.0247 31.0893 15.4709 30.6129L15.6193 30.569C16.2506 30.4053 16.7587 30.3764 17.1828 30.4586C17.5985 30.5393 17.9647 30.7325 18.3087 31.069C19.0247 31.7693 19.6347 33.0724 20.2785 35.194L20.3859 35.5494H20.757C22.0215 35.5494 23.7452 35.5212 25.0783 35.5016H25.0793C25.7557 35.4901 26.4476 35.4111 27.4455 35.3375L27.9084 35.3033V34.8395C27.9084 33.0898 27.9228 31.3842 27.9074 29.694L27.881 28.0074C27.874 27.7053 27.7531 27.4223 27.6232 27.2008C27.4892 26.9724 27.3186 26.764 27.1564 26.6002H27.1554C25.612 25.0484 24.0279 23.5275 22.338 21.8795L22.0138 21.5641L21.6671 21.8551C20.6114 22.7405 19.6483 23.5412 18.6925 24.3512H18.6916C18.2787 24.7013 17.934 24.7769 17.6232 24.7057C17.355 24.6442 17.041 24.4569 16.6867 24.0836C18.285 22.6523 19.9053 21.2003 21.6642 19.6237C24.0207 21.8343 26.2312 23.9097 28.632 26.1608L28.9689 26.4772L29.3107 26.1656C31.0605 24.567 32.7156 23.0545 34.5968 21.3385L34.9543 21.0123L34.6398 20.6442C33.9534 19.8411 33.3311 19.0408 32.6525 18.3336C31.0952 16.7103 29.5108 15.2908 28.0763 13.6471L27.8693 13.4C26.8709 12.161 26.4696 10.8899 26.5724 9.71252C26.682 8.45754 27.3711 7.22958 28.6837 6.19397Z" stroke="#798A8D"/>
</svg>
