<svg width="120" height="29" viewBox="0 0 120 29" fill="none" xmlns="http://www.w3.org/2000/svg">
<path d="M1.89069 16.9983V2.00167H7.51691C8.66293 2.00167 9.58134 2.15315 10.2737 2.45691C10.9661 2.76066 11.5078 3.2278 11.9004 3.85831C12.2921 4.48882 12.4888 5.14868 12.4888 5.83788C12.4888 6.4787 12.3151 7.08224 11.967 7.64852C11.6188 8.21479 11.0938 8.67161 10.3919 9.01898C11.2992 9.28467 11.9963 9.73832 12.4841 10.3791C12.9718 11.02 13.2153 11.7774 13.2153 12.6498C13.2153 13.3525 13.067 14.0052 12.7704 14.6087C12.4738 15.2123 12.1073 15.6778 11.6704 16.0054C11.2342 16.3329 10.6869 16.5804 10.0286 16.7469C9.37038 16.9143 8.5638 16.9975 7.6097 16.9975H1.89069V16.9983ZM3.87501 8.30361H7.11798C7.99753 8.30361 8.62804 8.24572 9.01031 8.12992C9.51472 7.98003 9.8954 7.731 10.1508 7.38283C10.4062 7.03466 10.5346 6.59846 10.5346 6.07343C10.5346 5.57536 10.4157 5.13757 10.177 4.75927C9.93823 4.38096 9.5972 4.12162 9.15386 3.98203C8.71052 3.84245 7.94994 3.77265 6.87292 3.77265H3.87581V8.30441L3.87501 8.30361ZM3.87501 15.2289H7.60891C8.24973 15.2289 8.70021 15.2051 8.95955 15.1575C9.41637 15.0759 9.79865 14.9394 10.1056 14.7483C10.4125 14.5572 10.6647 14.2796 10.8622 13.9148C11.0597 13.5499 11.1588 13.1288 11.1588 12.6514C11.1588 12.0922 11.0153 11.6061 10.7289 11.1937C10.4426 10.7812 10.0453 10.491 9.53693 10.3244C9.02855 10.1571 8.29732 10.0738 7.34243 10.0738H3.87501V15.2297V15.2289Z" fill="#FFA300" stroke="#512E05" stroke-width="0.1"/>
<path d="M42.3386 2.00167V3.77107H34.2879L39.4026 9.21329L34.2879 15.2281H42.7582V16.9975H32.1402V14.9315L37.0399 9.21329L32.1402 3.99631V2.00167H42.3394H42.3386Z" fill="#FFA300" stroke="#512E05" stroke-width="0.1"/>
<path d="M45.254 16.9983V2.00167H57.018V16.9983H55.0337V3.77186H47.2392V16.9983H45.2548H45.254Z" fill="#FFA300" stroke="#512E05" stroke-width="0.1"/>
<path d="M76.6178 16.9983V2.00167H82.275C83.2703 2.00167 84.0309 2.04926 84.5559 2.14522C85.2927 2.26815 85.9097 2.50132 86.4078 2.84553C86.9058 3.18973 87.3064 3.67272 87.6101 4.29293C87.9139 4.91392 88.0653 5.59598 88.0653 6.33911C88.0653 7.61441 87.6593 8.69382 86.8479 9.57653C86.0366 10.46 84.5702 10.901 82.4494 10.901H78.6029V16.9975H76.6186L76.6178 16.9983ZM78.6021 9.1316H82.4788C83.7612 9.1316 84.6709 8.89288 85.2102 8.41544C85.7487 7.93799 86.0184 7.26624 86.0184 6.40018C86.0184 5.77284 85.8597 5.23592 85.5425 4.7894C85.2253 4.34289 84.8073 4.04786 84.2894 3.90431C83.9555 3.81548 83.3377 3.77107 82.4375 3.77107H78.6013V9.1316H78.6021Z" fill="#FFA300" stroke="#512E05" stroke-width="0.1"/>
<path d="M110.436 16.9983V10.6456L104.656 2.00167H107.07L110.027 6.52311C110.573 7.36855 111.081 8.21479 111.551 9.06023C112.001 8.27585 112.547 7.39314 113.188 6.41049L116.093 2.00167H118.405L112.421 10.6456V16.9983H110.436Z" fill="#FFA300" stroke="#512E05" stroke-width="0.1"/>
<path d="M22.7158 1.70267C18.4014 1.70267 14.9038 5.20023 14.9038 9.51467C14.9038 13.8291 18.4014 17.3267 22.7158 17.3267C27.0302 17.3267 30.5278 13.8291 30.5278 9.51467C30.5278 5.20023 27.0302 1.70267 22.7158 1.70267ZM22.7158 15.3439C19.4966 15.3439 16.8865 12.7338 16.8865 9.51467C16.8865 6.29549 19.4966 3.68541 22.7158 3.68541C25.935 3.68541 28.5451 6.29549 28.5451 9.51467C28.5451 12.7338 25.935 15.3439 22.7158 15.3439Z" fill="#FFA300" stroke="#512E05" stroke-width="0.1"/>
<path d="M66.8659 1.67413C62.5514 1.67413 59.0539 5.17168 59.0539 9.48612C59.0539 13.8006 62.5514 17.2981 66.8659 17.2981C71.1803 17.2981 74.6779 13.8006 74.6779 9.48612C74.6779 5.17168 71.1803 1.67413 66.8659 1.67413ZM66.8659 15.3154C63.6467 15.3154 61.0366 12.7053 61.0366 9.48612C61.0366 6.26695 63.6467 3.65687 66.8659 3.65687C70.0851 3.65687 72.6951 6.26695 72.6951 9.48612C72.6951 12.7053 70.0851 15.3154 66.8659 15.3154Z" fill="#FFA300" stroke="#512E05" stroke-width="0.1"/>
<path d="M97.1622 1.67413C92.8477 1.67413 89.3502 5.17168 89.3502 9.48612C89.3502 13.8006 92.8477 17.2981 97.1622 17.2981C101.477 17.2981 104.974 13.8006 104.974 9.48612C104.974 5.17168 101.477 1.67413 97.1622 1.67413ZM97.1622 15.3154C93.943 15.3154 91.3329 12.7053 91.3329 9.48612C91.3329 6.26695 93.943 3.65687 97.1622 3.65687C100.381 3.65687 102.991 6.26695 102.991 9.48612C102.991 12.7053 100.381 15.3154 97.1622 15.3154Z" fill="#FFA300" stroke="#512E05" stroke-width="0.1"/>
<path d="M2.94309 17.8692C4.01622 17.8692 4.88617 16.9992 4.88617 15.9261C4.88617 14.853 4.01622 13.983 2.94309 13.983C1.86995 13.983 1 14.853 1 15.9261C1 16.9992 1.86995 17.8692 2.94309 17.8692Z" fill="#FFA300" stroke="#512E05" stroke-width="0.1"/>
<path d="M2.94309 4.9417C4.01622 4.9417 4.88617 4.07176 4.88617 2.99862C4.88617 1.92548 4.01622 1.05553 2.94309 1.05553C1.86995 1.05553 1 1.92548 1 2.99862C1 4.07176 1.86995 4.9417 2.94309 4.9417Z" fill="#FFA300" stroke="#512E05" stroke-width="0.1"/>
<path d="M32.9095 4.88617C33.9826 4.88617 34.8525 4.01622 34.8525 2.94309C34.8525 1.86995 33.9826 1 32.9095 1C31.8363 1 30.9664 1.86995 30.9664 2.94309C30.9664 4.01622 31.8363 4.88617 32.9095 4.88617Z" fill="#FFA300" stroke="#512E05" stroke-width="0.1"/>
<path d="M41.3163 4.88617C42.3894 4.88617 43.2593 4.01622 43.2593 2.94309C43.2593 1.86995 42.3894 1 41.3163 1C40.2431 1 39.3732 1.86995 39.3732 2.94309C39.3732 4.01622 40.2431 4.88617 41.3163 4.88617Z" fill="#FFA300" stroke="#512E05" stroke-width="0.1"/>
<path d="M37.668 11.0723C38.7411 11.0723 39.6111 10.2024 39.6111 9.12923C39.6111 8.0561 38.7411 7.18615 37.668 7.18615C36.5949 7.18615 35.7249 8.0561 35.7249 9.12923C35.7249 10.2024 36.5949 11.0723 37.668 11.0723Z" fill="#FFA300" stroke="#512E05" stroke-width="0.1"/>
<path d="M32.9095 17.8136C33.9826 17.8136 34.8525 16.9437 34.8525 15.8706C34.8525 14.7974 33.9826 13.9275 32.9095 13.9275C31.8363 13.9275 30.9664 14.7974 30.9664 15.8706C30.9664 16.9437 31.8363 17.8136 32.9095 17.8136Z" fill="#FFA300" stroke="#512E05" stroke-width="0.1"/>
<path d="M41.3163 18.0516C42.3894 18.0516 43.2593 17.1816 43.2593 16.1085C43.2593 15.0354 42.3894 14.1654 41.3163 14.1654C40.2431 14.1654 39.3732 15.0354 39.3732 16.1085C39.3732 17.1816 40.2431 18.0516 41.3163 18.0516Z" fill="#FFA300" stroke="#512E05" stroke-width="0.1"/>
<path d="M46.3921 5.0448C47.4652 5.0448 48.3351 4.17485 48.3351 3.10171C48.3351 2.02858 47.4652 1.15863 46.3921 1.15863C45.3189 1.15863 44.449 2.02858 44.449 3.10171C44.449 4.17485 45.3189 5.0448 46.3921 5.0448Z" fill="#FFA300" stroke="#512E05" stroke-width="0.1"/>
<path d="M56.0678 4.88617C57.141 4.88617 58.0109 4.01622 58.0109 2.94309C58.0109 1.86995 57.141 1 56.0678 1C54.9947 1 54.1248 1.86995 54.1248 2.94309C54.1248 4.01622 54.9947 4.88617 56.0678 4.88617Z" fill="#FFA300" stroke="#512E05" stroke-width="0.1"/>
<path d="M46.3921 18.0516C47.4652 18.0516 48.3351 17.1816 48.3351 16.1085C48.3351 15.0354 47.4652 14.1654 46.3921 14.1654C45.3189 14.1654 44.449 15.0354 44.449 16.1085C44.449 17.1816 45.3189 18.0516 46.3921 18.0516Z" fill="#FFA300" stroke="#512E05" stroke-width="0.1"/>
<path d="M56.0678 18.0516C57.141 18.0516 58.0109 17.1816 58.0109 16.1085C58.0109 15.0354 57.141 14.1654 56.0678 14.1654C54.9947 14.1654 54.1248 15.0354 54.1248 16.1085C54.1248 17.1816 54.9947 18.0516 56.0678 18.0516Z" fill="#FFA300" stroke="#512E05" stroke-width="0.1"/>
<path d="M77.7194 5.0448C78.7925 5.0448 79.6625 4.17485 79.6625 3.10171C79.6625 2.02858 78.7925 1.15863 77.7194 1.15863C76.6463 1.15863 75.7763 2.02858 75.7763 3.10171C75.7763 4.17485 76.6463 5.0448 77.7194 5.0448Z" fill="#FFA300" stroke="#512E05" stroke-width="0.1"/>
<path d="M77.7194 18.4481C78.7925 18.4481 79.6625 17.5782 79.6625 16.505C79.6625 15.4319 78.7925 14.562 77.7194 14.562C76.6463 14.562 75.7763 15.4319 75.7763 16.505C75.7763 17.5782 76.6463 18.4481 77.7194 18.4481Z" fill="#FFA300" stroke="#512E05" stroke-width="0.1"/>
<path d="M105.954 4.88617C107.027 4.88617 107.897 4.01622 107.897 2.94309C107.897 1.86995 107.027 1 105.954 1C104.88 1 104.01 1.86995 104.01 2.94309C104.01 4.01622 104.88 4.88617 105.954 4.88617Z" fill="#FFA300" stroke="#512E05" stroke-width="0.1"/>
<path d="M117.057 4.88617C118.13 4.88617 119 4.01622 119 2.94309C119 1.86995 118.13 1 117.057 1C115.984 1 115.114 1.86995 115.114 2.94309C115.114 4.01622 115.984 4.88617 117.057 4.88617Z" fill="#FFA300" stroke="#512E05" stroke-width="0.1"/>
<path d="M111.505 18.4481C112.578 18.4481 113.448 17.5782 113.448 16.505C113.448 15.4319 112.578 14.562 111.505 14.562C110.432 14.562 109.562 15.4319 109.562 16.505C109.562 17.5782 110.432 18.4481 111.505 18.4481Z" fill="#FFA300" stroke="#512E05" stroke-width="0.1"/>
<path d="M7.00449 28.1437H4.95751V27.8962C5.01303 27.8915 5.09551 27.8843 5.20337 27.8756C5.31123 27.8661 5.38499 27.8526 5.42465 27.8336C5.49444 27.8058 5.5452 27.763 5.57771 27.7067C5.61023 27.6496 5.62688 27.5758 5.62688 27.4854V24.3987L3.23491 27.3839V27.464C3.23491 27.5457 3.24839 27.6107 3.27536 27.6607C3.30232 27.7106 3.35467 27.7566 3.43397 27.7987C3.47363 27.8193 3.54659 27.8407 3.65366 27.8613C3.76073 27.8819 3.84401 27.8938 3.90507 27.8962V28.1437H1.8573V27.8962C1.91282 27.8915 1.99371 27.8843 2.09999 27.8756C2.20547 27.8661 2.27843 27.8526 2.31809 27.8336C2.38788 27.8058 2.43864 27.763 2.47116 27.7067C2.50367 27.6496 2.52033 27.5758 2.52033 27.4854V23.9141C2.52033 23.8395 2.50526 23.7713 2.47512 23.7103C2.44498 23.6484 2.39264 23.6 2.31809 23.5659C2.25543 23.5358 2.1793 23.5088 2.08968 23.4858C2.00006 23.4628 1.92313 23.4485 1.85809 23.4438V23.1963H3.90507V23.4438C3.84004 23.4462 3.75914 23.4565 3.66239 23.4755C3.56563 23.4937 3.49425 23.5112 3.44825 23.5278C3.36894 23.5556 3.3166 23.6024 3.28963 23.6674C3.26267 23.7325 3.24918 23.8038 3.24918 23.88V26.8898L5.64116 23.9077C5.64116 23.8237 5.62609 23.7547 5.59595 23.6999C5.56582 23.6452 5.51347 23.6008 5.43892 23.5659C5.38103 23.5382 5.30092 23.512 5.19861 23.4874C5.0963 23.4628 5.0162 23.4485 4.9583 23.4438V23.1963H7.00529V23.4438C6.94025 23.4462 6.86015 23.4565 6.76656 23.4755C6.67219 23.4937 6.60239 23.5112 6.5556 23.5278C6.47629 23.5556 6.42395 23.6024 6.39698 23.6674C6.37002 23.7325 6.35653 23.8038 6.35653 23.88V27.4473C6.35653 27.529 6.37002 27.5972 6.39698 27.6527C6.42395 27.7083 6.47629 27.7574 6.5556 27.7995C6.59526 27.8201 6.66584 27.8415 6.76656 27.8621C6.86808 27.8827 6.94739 27.8946 7.00529 27.897V28.1445L7.00449 28.1437Z" fill="#798A8D"/>
<path d="M9.88026 28.2626C9.58523 28.2626 9.3021 28.2047 9.03165 28.0881C8.76121 27.9715 8.5209 27.8042 8.31231 27.5853C8.10531 27.3664 7.94035 27.0999 7.81742 26.7843C7.69449 26.4694 7.63263 26.1133 7.63263 25.7183C7.63263 25.3234 7.69291 24.9641 7.81346 24.6421C7.93401 24.3201 8.10135 24.0425 8.31549 23.8101C8.52645 23.5802 8.77627 23.4017 9.06496 23.2764C9.35286 23.1511 9.66058 23.0876 9.98813 23.0876C10.2316 23.0876 10.4529 23.1178 10.6504 23.1781C10.8478 23.2383 11.0358 23.3232 11.215 23.4326L11.3578 23.1955H11.637L11.6687 24.9601H11.3824C11.3451 24.788 11.2896 24.6017 11.215 24.4002C11.1405 24.1988 11.0533 24.029 10.9541 23.8895C10.8423 23.7316 10.7106 23.6079 10.5568 23.5183C10.4037 23.4287 10.2284 23.3843 10.031 23.3843C9.80571 23.3843 9.59634 23.4342 9.40203 23.5342C9.20851 23.6341 9.04037 23.7816 8.89841 23.9775C8.76358 24.1662 8.6581 24.4058 8.58117 24.6968C8.50424 24.9879 8.46617 25.3123 8.46617 25.6708C8.46617 25.9872 8.50583 26.2775 8.58593 26.5416C8.66603 26.8057 8.78024 27.038 8.92934 27.2379C9.07765 27.4354 9.25372 27.59 9.45675 27.7019C9.65978 27.8137 9.88661 27.8692 10.138 27.8692C10.326 27.8692 10.4989 27.8399 10.6567 27.7804C10.8145 27.7209 10.9517 27.6424 11.0675 27.5448C11.1833 27.4425 11.2856 27.3259 11.3737 27.1959C11.4617 27.0658 11.5339 26.9238 11.5894 26.7708L11.8511 26.8961C11.6512 27.387 11.3864 27.7368 11.0564 27.9477C10.7265 28.1579 10.3339 28.2634 9.87868 28.2634L9.88026 28.2626Z" fill="#798A8D"/>
<path d="M16.3123 24.5383H16.072C16.0514 24.4542 16.0133 24.3551 15.9586 24.2401C15.9039 24.1251 15.8428 24.0164 15.7754 23.9141C15.7056 23.807 15.6295 23.7134 15.5462 23.6333C15.4629 23.5532 15.3836 23.5072 15.3067 23.4953C15.2345 23.4858 15.1433 23.4795 15.0338 23.4747C14.9244 23.47 14.8229 23.4676 14.7301 23.4676H14.527V27.4259C14.527 27.5029 14.5429 27.5726 14.5762 27.6369C14.6087 27.7011 14.6658 27.7503 14.7467 27.7852C14.7888 27.8019 14.876 27.8233 15.01 27.8518C15.1441 27.8796 15.248 27.8946 15.3225 27.897V28.1445H12.9861V27.897C13.0511 27.8923 13.1502 27.8827 13.2843 27.8693C13.4183 27.855 13.5103 27.8375 13.5619 27.8169C13.6388 27.7868 13.6951 27.7432 13.7308 27.6861C13.7665 27.629 13.7847 27.5528 13.7847 27.4576V23.4684H13.5825C13.5103 23.4684 13.4207 23.47 13.3136 23.4739C13.2065 23.4771 13.1042 23.485 13.0067 23.4969C12.9298 23.5064 12.8504 23.5524 12.768 23.6349C12.6855 23.7174 12.6093 23.811 12.5395 23.9157C12.4698 24.0204 12.4079 24.1314 12.3548 24.2488C12.3016 24.3662 12.2643 24.4629 12.2429 24.5398H11.9987V23.1971H16.3123V24.5398V24.5383Z" fill="#798A8D"/>
<path d="M20.7037 23.7809C20.9226 24.0085 21.0931 24.2837 21.216 24.6057C21.3389 24.9277 21.4008 25.2838 21.4008 25.6748C21.4008 26.0658 21.3381 26.4243 21.2128 26.7455C21.0875 27.0667 20.913 27.3395 20.6894 27.5647C20.4729 27.7876 20.2222 27.9597 19.9359 28.081C19.6496 28.2016 19.3451 28.2627 19.0223 28.2627C18.6781 28.2627 18.3601 28.1984 18.0682 28.0691C17.7763 27.9399 17.5257 27.7606 17.3163 27.5306C17.107 27.3054 16.9428 27.0318 16.823 26.709C16.7033 26.387 16.6438 26.042 16.6438 25.6748C16.6438 25.2727 16.7065 24.9142 16.8318 24.5986C16.9571 24.2837 17.1308 24.0109 17.3512 23.7809C17.5701 23.5533 17.8239 23.3788 18.1134 23.2574C18.4029 23.1369 18.7058 23.0758 19.0215 23.0758C19.3372 23.0758 19.6584 23.1377 19.9494 23.2606C20.2397 23.3835 20.4911 23.5572 20.7029 23.7801L20.7037 23.7809ZM20.1842 27.2895C20.3142 27.0778 20.4094 26.8383 20.4681 26.571C20.5276 26.3037 20.5569 26.0047 20.5569 25.6748C20.5569 25.3449 20.5236 25.0237 20.4578 24.7405C20.3912 24.4566 20.2944 24.2155 20.1667 24.0148C20.039 23.8174 19.878 23.6635 19.6853 23.5525C19.4926 23.4422 19.2713 23.3867 19.0231 23.3867C18.7439 23.3867 18.5068 23.4509 18.3117 23.5786C18.1166 23.7063 17.9572 23.8776 17.8342 24.091C17.7177 24.2956 17.6312 24.5351 17.5741 24.8095C17.517 25.0839 17.4884 25.3718 17.4884 25.6748C17.4884 26.0095 17.5186 26.3116 17.5789 26.5813C17.6391 26.8509 17.7343 27.0905 17.8652 27.2998C17.9905 27.5045 18.1491 27.6647 18.3394 27.7797C18.5298 27.8947 18.7582 27.9526 19.0231 27.9526C19.2721 27.9526 19.4958 27.8947 19.6964 27.7781C19.8963 27.6615 20.0589 27.4989 20.185 27.2895H20.1842Z" fill="#798A8D"/>
<path d="M25.8088 24.4161C25.8088 24.6739 25.7581 24.9023 25.6573 25.1014C25.5558 25.3004 25.4162 25.4646 25.237 25.5947C25.0601 25.7247 24.8658 25.8199 24.6549 25.881C24.4431 25.9413 24.2187 25.9714 23.9815 25.9714H23.4271V27.4711C23.4271 27.5528 23.4406 27.6242 23.4676 27.6853C23.4946 27.7471 23.5493 27.7939 23.6334 27.8264C23.6754 27.8431 23.7491 27.8582 23.8546 27.8717C23.9601 27.8859 24.0577 27.8939 24.1457 27.8962V28.1437H22.0218V27.8962C22.0773 27.8915 22.1582 27.8835 22.2645 27.8717C22.3699 27.8598 22.4437 27.8447 22.4857 27.8264C22.5555 27.7963 22.6063 27.7519 22.6372 27.694C22.6689 27.6361 22.684 27.5616 22.684 27.4711V23.8998C22.684 23.8181 22.6721 23.7452 22.6491 23.6801C22.6261 23.6151 22.5714 23.5659 22.4849 23.5334C22.3969 23.5033 22.3089 23.4819 22.2216 23.4692C22.1344 23.4565 22.0598 23.4478 21.9964 23.443V23.1956H24.2559C24.7159 23.1956 25.0903 23.3066 25.3774 23.5287C25.6645 23.7507 25.808 24.0465 25.808 24.4161H25.8088ZM24.7484 25.26C24.8278 25.1482 24.8801 25.0324 24.9055 24.9126C24.9309 24.7929 24.9435 24.685 24.9435 24.5898C24.9435 24.4574 24.9277 24.3225 24.8968 24.1853C24.865 24.0481 24.8111 23.9284 24.735 23.8261C24.6533 23.7166 24.547 23.6318 24.4138 23.5715C24.2813 23.5112 24.1163 23.4811 23.9189 23.4811H23.4271V25.6676H23.7825C24.0339 25.6676 24.2377 25.6288 24.3947 25.5511C24.5518 25.4733 24.6699 25.3758 24.7484 25.26Z" fill="#798A8D"/>
<path d="M31.5246 28.1437H29.4777V27.8962C29.5332 27.8915 29.6157 27.8843 29.7235 27.8756C29.8314 27.8661 29.9051 27.8526 29.9448 27.8336C30.0146 27.8058 30.0653 27.763 30.0979 27.7067C30.1304 27.6496 30.147 27.5758 30.147 27.4854V24.3987L27.7551 27.3839V27.464C27.7551 27.5457 27.7685 27.6107 27.7955 27.6607C27.8225 27.7106 27.8748 27.7566 27.9541 27.7987C27.9938 27.8193 28.0667 27.8407 28.1738 27.8613C28.2809 27.8819 28.3641 27.8938 28.4252 27.8962V28.1437H26.3782V27.8962C26.4338 27.8915 26.5146 27.8843 26.6209 27.8756C26.7264 27.8661 26.7994 27.8526 26.839 27.8336C26.9088 27.8058 26.9596 27.763 26.9921 27.7067C27.0246 27.6496 27.0413 27.5758 27.0413 27.4854V23.9141C27.0413 23.8395 27.0262 23.7713 26.9961 23.7103C26.9659 23.6484 26.9136 23.6 26.839 23.5659C26.7764 23.5358 26.7002 23.5088 26.6106 23.4858C26.521 23.4628 26.4441 23.4485 26.379 23.4438V23.1963H28.426V23.4438C28.361 23.4462 28.2801 23.4565 28.1833 23.4755C28.0866 23.4937 28.0152 23.5112 27.9692 23.5278C27.8899 23.5556 27.8375 23.6024 27.8106 23.6674C27.7836 23.7325 27.7701 23.8038 27.7701 23.88V26.8898L30.1621 23.9077C30.1621 23.8237 30.147 23.7547 30.1169 23.6999C30.0868 23.6452 30.0344 23.6008 29.9599 23.5659C29.902 23.5382 29.8219 23.512 29.7195 23.4874C29.6172 23.4628 29.5371 23.4485 29.4792 23.4438V23.1963H31.5262V23.4438C31.4612 23.4462 31.3811 23.4565 31.2875 23.4755C31.1931 23.4937 31.1233 23.5112 31.0765 23.5278C30.9972 23.5556 30.9449 23.6024 30.9179 23.6674C30.891 23.7325 30.8775 23.8038 30.8775 23.88V27.4473C30.8775 27.529 30.891 27.5972 30.9179 27.6527C30.9449 27.7083 30.9972 27.7574 31.0765 27.7995C31.1162 27.8201 31.1868 27.8415 31.2875 27.8621C31.389 27.8827 31.4683 27.8946 31.5262 27.897V28.1445L31.5246 28.1437Z" fill="#798A8D"/>
<path d="M36.5394 28.1437H34.4472V27.8962C34.5027 27.8915 34.5836 27.8835 34.6899 27.8716C34.7954 27.8597 34.8691 27.8447 34.9112 27.8264C34.981 27.7963 35.0317 27.7519 35.0627 27.694C35.0944 27.6361 35.1094 27.5615 35.1094 27.4711V25.9016H34.7819C34.5146 25.9016 34.3076 25.9563 34.1617 26.0658C34.015 26.1752 33.8603 26.4108 33.6969 26.774C33.5923 27.0088 33.4995 27.2253 33.4194 27.4228C33.3393 27.6202 33.2473 27.8613 33.145 28.1445H31.7903V27.897C31.8435 27.8899 31.9038 27.8827 31.9696 27.8764C32.0362 27.8693 32.1012 27.8605 32.1663 27.8486C32.2614 27.8304 32.3384 27.7947 32.3963 27.7424C32.4542 27.69 32.5184 27.5909 32.5882 27.4442C32.6485 27.3117 32.7199 27.1594 32.8007 26.9873C32.8824 26.8152 32.9451 26.6804 32.9887 26.5829C33.0934 26.3529 33.2155 26.1768 33.3567 26.0562C33.4971 25.9357 33.6747 25.8389 33.8889 25.7668V25.7176C33.7239 25.6827 33.5685 25.6343 33.4233 25.5733C33.2782 25.5114 33.1497 25.4321 33.0379 25.3345C32.9261 25.2346 32.8388 25.114 32.7746 24.9737C32.7103 24.8333 32.6786 24.6683 32.6786 24.4804C32.6786 24.271 32.7214 24.0862 32.8079 23.926C32.8935 23.7658 33.0101 23.631 33.1568 23.5215C33.2964 23.4168 33.4614 23.3367 33.6517 23.2812C33.8421 23.2257 34.0412 23.1971 34.2481 23.1971H36.5394V23.4446C36.4744 23.447 36.3895 23.4589 36.2848 23.4795C36.1801 23.5001 36.1032 23.5191 36.0548 23.535C35.9755 23.5628 35.9224 23.6103 35.8946 23.6778C35.8669 23.7452 35.8526 23.8173 35.8526 23.8943V27.4727C35.8526 27.5544 35.8653 27.6258 35.8906 27.6869C35.916 27.7487 35.9708 27.7955 36.0548 27.828C36.0969 27.8447 36.1698 27.8597 36.2745 27.8732C36.3792 27.8875 36.4672 27.8954 36.5394 27.8978V28.1453V28.1437ZM35.1094 25.601V23.4803H34.5099C34.2077 23.4803 33.9674 23.577 33.7897 23.7713C33.6121 23.9649 33.5233 24.2163 33.5233 24.5248C33.5233 24.8777 33.6256 25.145 33.8302 25.3274C34.0348 25.5098 34.3053 25.601 34.6431 25.601H35.1102H35.1094Z" fill="#798A8D"/>
<path d="M42.7089 28.1437H41.0387V27.9137C41.0918 27.9089 41.1473 27.9042 41.2044 27.8994C41.2615 27.8946 41.3107 27.8851 41.3527 27.8716C41.4178 27.851 41.4677 27.8137 41.5026 27.7614C41.5375 27.7091 41.555 27.6409 41.555 27.5576V25.7509L39.9719 27.4632V27.5227C39.9719 27.602 39.9878 27.667 40.0211 27.7178C40.0536 27.7693 40.1028 27.8082 40.1678 27.8367C40.2186 27.8597 40.2733 27.8772 40.3296 27.8891C40.3867 27.901 40.4462 27.9089 40.5089 27.9137V28.1437H38.8386V27.9137C38.8917 27.9089 38.9473 27.9042 39.0044 27.8994C39.0615 27.8946 39.1106 27.8851 39.1527 27.8716C39.2177 27.851 39.2661 27.8137 39.2978 27.7614C39.3295 27.7091 39.3446 27.6409 39.3446 27.5576V25.3258C39.3446 25.2489 39.328 25.1846 39.2954 25.1323C39.2629 25.0799 39.2137 25.0395 39.1487 25.0117C39.0884 24.984 39.0297 24.9649 38.9726 24.9562C38.9155 24.9467 38.8624 24.9404 38.814 24.9356V24.7056H40.4843V24.9356C40.4169 24.9404 40.3582 24.9459 40.3082 24.9531C40.2583 24.9602 40.2123 24.9681 40.1702 24.9776C40.1052 24.9967 40.0568 25.0332 40.0251 25.0879C39.9934 25.1426 39.9783 25.2108 39.9783 25.2917V27.0706L41.5613 25.3552C41.5613 25.2528 41.5447 25.1775 41.5121 25.1283C41.4796 25.0792 41.4304 25.0411 41.3654 25.0133C41.3051 24.9856 41.2449 24.9665 41.1862 24.9578C41.1267 24.9483 41.0728 24.9419 41.0244 24.9372V24.7072H42.6946V24.9372C42.6272 24.9419 42.5685 24.9475 42.5186 24.9546C42.4686 24.9618 42.4226 24.9697 42.3806 24.9792C42.3155 24.9983 42.2672 25.0347 42.2354 25.0895C42.2037 25.1442 42.1887 25.2124 42.1887 25.2933V27.5251C42.1887 27.6068 42.2029 27.6718 42.2307 27.7217C42.2584 27.7717 42.306 27.8106 42.3734 27.8383C42.4226 27.8613 42.475 27.8788 42.5321 27.8907C42.5892 27.9026 42.6479 27.9105 42.7081 27.9153V28.1453L42.7089 28.1437Z" fill="#798A8D"/>
<path d="M49.7151 28.1437H48.3533C48.2574 27.874 48.1646 27.6274 48.0734 27.4053C47.9822 27.1832 47.8894 26.9667 47.7934 26.7574C47.6372 26.406 47.4794 26.1681 47.3207 26.0452C47.1613 25.9214 46.9472 25.8604 46.6775 25.8604H46.4229V27.4466C46.4229 27.5235 46.4372 27.5925 46.4666 27.6528C46.4959 27.713 46.5483 27.7622 46.6252 27.7995C46.6625 27.8161 46.7315 27.836 46.833 27.859C46.9345 27.882 47.0186 27.8954 47.086 27.897V28.1445H45.0319V27.897C45.085 27.8923 45.1635 27.8851 45.2658 27.8764C45.3681 27.8669 45.4403 27.8534 45.4823 27.8344C45.5521 27.8042 45.6029 27.759 45.6338 27.7003C45.6655 27.6409 45.6806 27.5695 45.6806 27.4862V23.9149C45.6806 23.8356 45.6671 23.7674 45.6402 23.7095C45.6132 23.6516 45.5609 23.604 45.4815 23.5667C45.4189 23.5366 45.3443 23.5096 45.2587 23.4866C45.173 23.4636 45.0969 23.4494 45.0319 23.4446V23.1971H47.086V23.4446C47.0209 23.447 46.9393 23.4573 46.8417 23.4763C46.7442 23.4946 46.672 23.512 46.6252 23.5287C46.5459 23.5564 46.4927 23.6032 46.465 23.6682C46.4372 23.7333 46.4229 23.8047 46.4229 23.8808V25.5756H46.7473C46.8338 25.5756 46.9178 25.5574 47.0003 25.5201C47.0828 25.4828 47.1589 25.4281 47.2287 25.356C47.3287 25.2536 47.4088 25.1283 47.469 24.9808C47.5293 24.8333 47.5944 24.6549 47.6641 24.4455C47.7292 24.2528 47.7966 24.0735 47.8664 23.9086C47.9362 23.7436 48.0385 23.5913 48.1733 23.4517C48.2637 23.3589 48.3708 23.2852 48.4945 23.232C48.6174 23.1789 48.7515 23.1519 48.8958 23.1519C48.9958 23.1519 49.083 23.1638 49.1575 23.1884C49.2321 23.213 49.2948 23.2471 49.3455 23.2915C49.3923 23.3312 49.4272 23.3772 49.4502 23.4311C49.4732 23.4842 49.4851 23.5429 49.4851 23.6056C49.4851 23.6571 49.4772 23.7071 49.4621 23.7555C49.447 23.8047 49.4256 23.8451 49.3979 23.8776C49.3653 23.9173 49.3289 23.9482 49.29 23.9704C49.2503 23.9926 49.1948 24.0037 49.1227 24.0037C49.0457 24.0037 48.9791 23.991 48.922 23.9657C48.8649 23.9403 48.8157 23.9054 48.7737 23.861C48.7317 23.8166 48.6944 23.765 48.6603 23.7055C48.6262 23.646 48.5944 23.5866 48.5643 23.5263C48.4993 23.5707 48.4438 23.6254 48.3986 23.6905C48.3533 23.7555 48.3129 23.8253 48.278 23.8998C48.2431 23.9744 48.2122 24.0529 48.1852 24.137C48.1582 24.221 48.1273 24.3138 48.0924 24.4161C48.0647 24.5018 48.0321 24.5978 47.9949 24.704C47.9576 24.8095 47.9148 24.9079 47.8656 24.9991C47.814 25.0966 47.7546 25.1942 47.6864 25.2917C47.6174 25.3893 47.5357 25.4813 47.4405 25.5669V25.6161C47.6982 25.6875 47.9132 25.8025 48.0837 25.9595C48.2542 26.1165 48.3978 26.3204 48.5143 26.5694C48.5794 26.7114 48.6508 26.8644 48.7285 27.0286C48.8062 27.1928 48.8712 27.3316 48.922 27.4458C48.9942 27.602 49.064 27.7059 49.1314 27.7582C49.1988 27.8106 49.267 27.8431 49.3368 27.8542C49.3971 27.8637 49.4621 27.8724 49.5319 27.8804C49.6017 27.8883 49.662 27.8947 49.7135 27.8994V28.1469L49.7151 28.1437Z" fill="#798A8D"/>
<path d="M54.5942 28.1437H52.5369V27.8962C52.7186 27.8843 52.8685 27.8613 52.9882 27.8264C53.108 27.7915 53.1675 27.7487 53.1675 27.6972C53.1675 27.6765 53.1651 27.6504 53.1603 27.6202C53.1556 27.5901 53.1484 27.5631 53.1397 27.5401L52.7297 26.4314H50.9928C50.9277 26.594 50.8746 26.7359 50.8342 26.8565C50.7937 26.977 50.7564 27.0888 50.7239 27.1912C50.6938 27.2911 50.6724 27.3728 50.6613 27.4354C50.6494 27.4981 50.6438 27.5496 50.6438 27.5885C50.6438 27.6813 50.7168 27.7535 50.8635 27.805C51.0102 27.8566 51.1752 27.8867 51.3584 27.8954V28.1429H49.4946V27.8954C49.5549 27.8907 49.6302 27.8772 49.7215 27.855C49.8119 27.8328 49.8864 27.8034 49.9443 27.7662C50.0371 27.7035 50.1093 27.6377 50.1608 27.5695C50.2116 27.5013 50.2623 27.4061 50.3107 27.2855C50.5598 26.6645 50.8342 25.9674 51.134 25.1933C51.4337 24.4193 51.701 23.7301 51.9358 23.125H52.2149L53.8646 27.3934C53.8995 27.4838 53.9391 27.5576 53.9836 27.6131C54.028 27.6686 54.089 27.7233 54.1683 27.7773C54.2215 27.8098 54.2913 27.8375 54.3777 27.8589C54.4634 27.8812 54.5355 27.893 54.5942 27.8954V28.1429V28.1437ZM52.6036 26.1213L51.8541 24.2012L51.1149 26.1213H52.6036Z" fill="#798A8D"/>
<path d="M58.5589 24.4161C58.5589 24.6739 58.5082 24.9023 58.4075 25.1014C58.3059 25.3004 58.1663 25.4646 57.9871 25.5947C57.8102 25.7247 57.6159 25.8199 57.405 25.881C57.1932 25.9413 56.9688 25.9714 56.7316 25.9714H56.1773V27.4711C56.1773 27.5528 56.1907 27.6242 56.2177 27.6853C56.2447 27.7471 56.2994 27.7939 56.3835 27.8264C56.4255 27.8431 56.4993 27.8582 56.6047 27.8717C56.7102 27.8859 56.8078 27.8939 56.8958 27.8962V28.1437H54.7719V27.8962C54.8274 27.8915 54.9083 27.8835 55.0146 27.8717C55.1201 27.8598 55.1938 27.8447 55.2359 27.8264C55.3057 27.7963 55.3564 27.7519 55.3873 27.694C55.4191 27.6361 55.4341 27.5616 55.4341 27.4711V23.8998C55.4341 23.8181 55.4222 23.7452 55.3992 23.6801C55.3762 23.6151 55.3215 23.5659 55.2351 23.5334C55.147 23.5033 55.059 23.4819 54.9718 23.4692C54.8845 23.4565 54.81 23.4478 54.7465 23.443V23.1956H57.0061C57.466 23.1956 57.8404 23.3066 58.1275 23.5287C58.4146 23.7507 58.5581 24.0465 58.5581 24.4161H58.5589ZM57.4986 25.26C57.5779 25.1482 57.6302 25.0324 57.6556 24.9126C57.681 24.7929 57.6937 24.685 57.6937 24.5898C57.6937 24.4574 57.6778 24.3225 57.6469 24.1853C57.6151 24.0481 57.5612 23.9284 57.4851 23.8261C57.4034 23.7166 57.2971 23.6318 57.1639 23.5715C57.0314 23.5112 56.8665 23.4811 56.669 23.4811H56.1773V25.6676H56.5326C56.784 25.6676 56.9878 25.6288 57.1448 25.5511C57.3019 25.4733 57.42 25.3758 57.4986 25.26Z" fill="#798A8D"/>
<path d="M63.1525 24.5383H62.9122C62.8916 24.4542 62.8535 24.3551 62.7988 24.2401C62.7441 24.1251 62.683 24.0164 62.6156 23.9141C62.5458 23.807 62.4697 23.7134 62.3864 23.6333C62.3031 23.5532 62.2238 23.5072 62.1469 23.4953C62.0747 23.4858 61.9835 23.4795 61.874 23.4747C61.7646 23.47 61.6631 23.4676 61.5703 23.4676H61.3673V27.4259C61.3673 27.5029 61.3831 27.5726 61.4164 27.6369C61.4489 27.7011 61.506 27.7503 61.5869 27.7852C61.629 27.8019 61.7162 27.8233 61.8503 27.8518C61.9843 27.8796 62.0882 27.8946 62.1627 27.897V28.1445H59.8263V27.897C59.8913 27.8923 59.9904 27.8827 60.1245 27.8693C60.2585 27.855 60.3505 27.8375 60.4021 27.8169C60.479 27.7868 60.5353 27.7432 60.571 27.6861C60.6067 27.629 60.6249 27.5528 60.6249 27.4576V23.4684H60.4227C60.3505 23.4684 60.2609 23.47 60.1538 23.4739C60.0467 23.4771 59.9444 23.485 59.8469 23.4969C59.77 23.5064 59.6906 23.5524 59.6082 23.6349C59.5257 23.7174 59.4495 23.811 59.3798 23.9157C59.31 24.0204 59.2481 24.1314 59.195 24.2488C59.1418 24.3662 59.1046 24.4629 59.0831 24.5398H58.8389V23.1971H63.1525V24.5398V24.5383Z" fill="#798A8D"/>
<path d="M68.1602 28.1437H66.1029V27.8962C66.2845 27.8843 66.4344 27.8613 66.5541 27.8264C66.6739 27.7915 66.7334 27.7487 66.7334 27.6972C66.7334 27.6765 66.731 27.6504 66.7262 27.6202C66.7215 27.5901 66.7143 27.5631 66.7056 27.5401L66.2956 26.4314H64.5587C64.4937 26.594 64.4405 26.7359 64.4001 26.8565C64.3596 26.977 64.3224 27.0888 64.2898 27.1912C64.2597 27.2911 64.2383 27.3728 64.2272 27.4354C64.2153 27.4981 64.2097 27.5496 64.2097 27.5885C64.2097 27.6813 64.2827 27.7535 64.4294 27.805C64.5762 27.8566 64.7411 27.8867 64.9243 27.8954V28.1429H63.0605V27.8954C63.1208 27.8907 63.1962 27.8772 63.2874 27.855C63.3778 27.8328 63.4523 27.8034 63.5102 27.7662C63.603 27.7035 63.6752 27.6377 63.7267 27.5695C63.7775 27.5013 63.8283 27.4061 63.8766 27.2855C64.1257 26.6645 64.4001 25.9674 64.6999 25.1933C64.9997 24.4193 65.2669 23.7301 65.5017 23.125H65.7809L67.4305 27.3934C67.4654 27.4838 67.5051 27.5576 67.5495 27.6131C67.5939 27.6686 67.655 27.7233 67.7343 27.7773C67.7874 27.8098 67.8572 27.8375 67.9436 27.8589C68.0293 27.8812 68.1015 27.893 68.1602 27.8954V28.1429V28.1437ZM66.1695 26.1213L65.42 24.2012L64.6808 26.1213H66.1695Z" fill="#798A8D"/>
</svg>
