<svg width="58" height="58" viewBox="0 0 58 58" fill="none" xmlns="http://www.w3.org/2000/svg">
<path d="M29 0.5C44.7401 0.500001 57.5 13.2599 57.5 29C57.5 44.7401 44.7401 57.5 29 57.5C13.2599 57.5 0.500001 44.7401 0.5 29C0.5 13.2599 13.2599 0.5 29 0.5Z" stroke="#798A8D" stroke-miterlimit="10"/>
<path d="M8.4297 28.3016H21.5585V42.8129H19.3371V30.0135H10.6371V42.8129H8.42688V28.3016H8.4297Z" stroke="#798A8D" stroke-miterlimit="10"/>
<path d="M19.1484 21.6233L27.1699 6.63904H30.1487L38.6967 21.6233H35.5489L33.1135 17.0847H24.3797L22.085 21.6233H19.1513H19.1484ZM25.1737 15.4714H32.2547L30.0755 11.3213C29.4111 10.0599 28.9155 9.0238 28.5946 8.21292C28.3299 9.17302 27.9526 10.1275 27.4683 11.0763L25.1737 15.4714Z" stroke="#798A8D" stroke-miterlimit="10"/>
<path d="M36.5287 42.8074V28.2961H38.9473L48.3089 39.6878V28.2961H50.5698V42.8074H48.1513L38.7896 31.4045V42.8074H36.5287Z" stroke="#798A8D" stroke-miterlimit="10"/>
</svg>
