<svg width="60" height="60" viewBox="0 0 60 60" fill="none" xmlns="http://www.w3.org/2000/svg">
<path d="M32.4851 33.8429C32.4851 34.0753 32.4851 34.2685 32.4851 34.4617C32.4851 36.6874 32.4851 38.9131 32.4851 41.1389C32.4851 41.2985 32.4907 41.458 32.4795 41.6148C32.4571 42.0208 32.3087 42.1775 31.8887 42.1859C31.2896 42.1999 30.6821 42.2391 30.0886 42.1775C29.1031 42.0768 28.1148 41.9564 27.1489 41.7464C26.1746 41.5336 25.1947 41.2761 24.2708 40.9121C22.3699 40.1618 20.6593 39.0839 19.1418 37.7065C17.4816 36.2003 16.107 34.4729 14.9899 32.5299C14.1444 31.0629 13.4193 29.5426 12.9098 27.9272C12.5234 26.7094 12.1455 25.4859 11.8459 24.2457C11.6331 23.3694 11.5603 22.4567 11.4148 21.5636C11.3448 21.138 11.2104 20.7181 11.1656 20.2897C11.118 19.8362 11.1264 19.3715 11.1544 18.9151C11.1628 18.8031 11.328 18.6687 11.4512 18.6043C11.5491 18.5539 11.6919 18.5903 11.8179 18.5903C13.4613 18.5903 15.1047 18.5903 16.7481 18.5903C17.3277 18.5903 17.3333 18.5903 17.4704 19.1503C17.5236 19.3687 17.5712 19.5926 17.5824 19.8166C17.6272 20.6705 17.7392 21.5132 17.9436 22.3447C18.106 23.0054 18.1928 23.6857 18.3551 24.3437C18.6939 25.7099 19.153 27.0313 19.7634 28.3052C20.3373 29.5007 20.9756 30.6485 21.8071 31.6816C22.8234 32.9386 24.0273 33.9493 25.5839 34.4785C25.6819 34.5121 25.7855 34.5401 25.889 34.5597C25.9562 34.5737 26.0262 34.5681 26.1354 34.5736C26.1466 34.4057 26.1634 34.2517 26.1634 34.1005C26.1662 29.1703 26.169 24.2429 26.1718 19.3127C26.1718 19.2763 26.1718 19.2427 26.1718 19.2063C26.1718 18.6519 26.2306 18.5903 26.7681 18.5875C28.0588 18.5847 29.3466 18.5875 30.6373 18.5875C31.0432 18.5875 31.4492 18.5875 31.8551 18.5875C32.4235 18.5931 32.4851 18.6519 32.4879 19.2399C32.4879 21.6616 32.4879 24.0805 32.4879 26.5022C32.4879 26.9222 32.4879 27.3421 32.4879 27.8209C32.8994 27.7201 33.2634 27.6641 33.5993 27.5409C35.6039 26.8018 37.2361 25.5503 38.5659 23.8901C39.5094 22.7087 40.2233 21.3956 40.7721 19.993C40.8561 19.783 40.9037 19.5562 40.9485 19.3323C41.0632 18.7723 41.2732 18.5875 41.836 18.5875C43.5158 18.5875 45.1928 18.5875 46.8726 18.5875C47.4521 18.5875 47.6201 18.7779 47.4857 19.3351C47.1133 20.8777 46.5114 22.3279 45.7079 23.7025C44.7196 25.3907 43.5046 26.8886 42.0683 28.2072C41.2508 28.9603 40.3829 29.6518 39.389 30.167C39.3303 30.1978 39.2827 30.2482 39.1903 30.3238C39.4926 30.4609 39.7586 30.5701 40.0162 30.7017C42.0655 31.746 43.7369 33.2326 45.1648 35.0188C46.0943 36.1807 46.9006 37.4181 47.5277 38.7676C47.8888 39.5459 48.1856 40.355 48.5076 41.1529C48.5384 41.2313 48.544 41.3236 48.5496 41.4104C48.5832 41.9172 48.5048 42.018 48.0092 42.018C46.1894 42.0236 44.3697 42.0124 42.5499 42.0264C42.1971 42.0292 42.0375 41.8612 41.9255 41.5728C41.4804 40.4166 40.8869 39.3415 40.173 38.328C38.9635 36.6034 37.3929 35.3464 35.4387 34.5709C34.2713 34.1061 33.3194 33.8653 32.4907 33.8373L32.4851 33.8429Z" fill="#4C1E00"/>
<path d="M29.8366 58.6732C45.7626 58.6732 58.6732 45.7626 58.6732 29.8366C58.6732 13.9106 45.7626 1 29.8366 1C13.9106 1 1 13.9106 1 29.8366C1 45.7626 13.9106 58.6732 29.8366 58.6732Z" stroke="#4C1E00" stroke-width="2" stroke-miterlimit="10"/>
</svg>
