<svg width="60" height="60" viewBox="0 0 60 60" fill="none" xmlns="http://www.w3.org/2000/svg">
<path d="M30 59C46.0163 59 59 46.0163 59 30C59 13.9837 46.0163 1 30 1C13.9837 1 1 13.9837 1 30C1 46.0163 13.9837 59 30 59Z" stroke="#467687" stroke-miterlimit="10"/>
<path d="M9.42957 29.3017H22.5584V43.813H20.337V31.0135H11.637V43.813H9.42676V29.3017H9.42957Z" fill="#467687" stroke="#467687" stroke-miterlimit="10"/>
<path d="M20.1484 22.6233L28.1699 7.63904H31.1487L39.6967 22.6233H36.5489L34.1135 18.0847H25.3797L23.085 22.6233H20.1513H20.1484ZM26.1737 16.4714H33.2547L31.0755 12.3213C30.4111 11.0599 29.9155 10.0238 29.5946 9.21292C29.3299 10.173 28.9526 11.1275 28.4683 12.0763L26.1737 16.4714Z" fill="#467687" stroke="#467687" stroke-miterlimit="10"/>
<path d="M37.5288 43.8073V29.2961H39.9474L49.309 40.6877V29.2961H51.5699V43.8073H49.1513L39.7897 32.4044V43.8073H37.5288Z" fill="#467687" stroke="#467687" stroke-miterlimit="10"/>
</svg>
