<svg width="52" height="52" viewBox="0 0 52 52" fill="none" xmlns="http://www.w3.org/2000/svg">
<path d="M25.8801 51C39.6209 51 50.7601 39.8071 50.7601 26C50.7601 12.1929 39.6209 1 25.8801 1C12.1392 1 1 12.1929 1 26C1 39.8071 12.1392 51 25.8801 51Z" stroke="white" stroke-miterlimit="10"/>
<path d="M20.5805 32.9194L36.6584 16.7641C37.0569 16.3636 37.528 16.0481 38.0473 15.8296C38.5666 15.6136 39.1246 15.502 39.685 15.502C40.2454 15.502 40.8034 15.6136 41.3228 15.8296C41.8421 16.0456 42.3132 16.3636 42.7117 16.7641C43.1103 17.1646 43.4243 17.6379 43.6417 18.1597C43.8567 18.6816 43.9678 19.2422 43.9678 19.8054C43.9678 20.3685 43.8567 20.9291 43.6417 21.451C43.4267 21.9728 43.1103 22.4461 42.7117 22.8466L32.7041 32.917C31.0954 34.5311 28.9142 35.4364 26.6411 35.4364C24.3681 35.4364 22.1869 34.5311 20.5781 32.917L20.5805 32.9194Z" fill="white"/>
<path d="M31.2452 18.974L15.1674 35.1294C14.7688 35.5298 14.2978 35.8454 13.7785 36.0638C13.2591 36.2799 12.7011 36.3915 12.1407 36.3915C11.5803 36.3915 11.0223 36.2799 10.503 36.0638C9.98364 35.8478 9.51261 35.5298 9.11404 35.1294C8.31208 34.3211 7.86279 33.2265 7.86279 32.0881C7.86279 30.9498 8.31208 29.8551 9.11404 29.0468L19.1216 18.9764C20.7304 17.3624 22.9116 16.457 25.1846 16.457C27.4577 16.457 29.6389 17.3624 31.2476 18.9764L31.2452 18.974Z" fill="white"/>
</svg>
