<svg width="51" height="50" viewBox="0 0 51 50" fill="none" xmlns="http://www.w3.org/2000/svg">
<path d="M27.7769 28.4726C27.7769 28.6741 27.7769 28.8415 27.7769 29.009C27.7769 30.9386 27.7769 32.8682 27.7769 34.7978C27.7769 34.9362 27.7817 35.0745 27.7721 35.2105C27.7528 35.5624 27.6247 35.6983 27.2624 35.7056C26.7455 35.7177 26.2213 35.7517 25.7092 35.6983C24.8589 35.611 24.0062 35.5066 23.1729 35.3245C22.3323 35.1401 21.4868 34.9168 20.6897 34.6012C19.0496 33.9508 17.5737 33.0163 16.2644 31.8221C14.832 30.5163 13.646 29.0187 12.6822 27.3343C11.9527 26.0624 11.3271 24.7444 10.8874 23.344C10.5541 22.2881 10.228 21.2275 9.96954 20.1522C9.78596 19.3925 9.72316 18.6012 9.59755 17.827C9.53716 17.458 9.42122 17.094 9.38257 16.7226C9.3415 16.3294 9.34875 15.9265 9.37291 15.5309C9.38015 15.4338 9.52267 15.3173 9.62895 15.2614C9.7135 15.2177 9.83669 15.2493 9.94539 15.2493C11.3633 15.2493 12.7812 15.2493 14.1992 15.2493C14.6992 15.2493 14.704 15.2493 14.8224 15.7347C14.8683 15.9241 14.9093 16.1182 14.919 16.3124C14.9576 17.0527 15.0543 17.7833 15.2306 18.5042C15.3707 19.077 15.4456 19.6668 15.5857 20.2372C15.878 21.4216 16.2741 22.5673 16.8007 23.6716C17.2959 24.708 17.8466 25.7032 18.564 26.5988C19.4409 27.6886 20.4796 28.5648 21.8226 29.0236C21.9071 29.0527 21.9965 29.077 22.0859 29.094C22.1439 29.1061 22.2043 29.1012 22.2985 29.1061C22.3081 28.9605 22.3226 28.827 22.3226 28.6959C22.325 24.4216 22.3274 20.1498 22.3299 15.8755C22.3299 15.844 22.3299 15.8148 22.3299 15.7833C22.3299 15.3027 22.3806 15.2493 22.8444 15.2469C23.9579 15.2444 25.0691 15.2469 26.1827 15.2469C26.5329 15.2469 26.8832 15.2469 27.2334 15.2469C27.7238 15.2517 27.7769 15.3027 27.7793 15.8124C27.7793 17.9119 27.7793 20.009 27.7793 22.1085C27.7793 22.4726 27.7793 22.8367 27.7793 23.2517C28.1344 23.1643 28.4484 23.1158 28.7383 23.009C30.4678 22.3682 31.8761 21.2833 33.0235 19.844C33.8375 18.8197 34.4535 17.6813 34.9269 16.4653C34.9994 16.2833 35.0404 16.0867 35.0791 15.8925C35.1781 15.4071 35.3593 15.2469 35.8448 15.2469C37.2941 15.2469 38.741 15.2469 40.1904 15.2469C40.6904 15.2469 40.8353 15.4119 40.7194 15.8949C40.3981 17.2323 39.8788 18.4896 39.1855 19.6813C38.3328 21.1449 37.2845 22.4435 36.0453 23.5867C35.34 24.2396 34.5911 24.8391 33.7336 25.2857C33.6829 25.3124 33.6418 25.3561 33.5621 25.4216C33.823 25.5406 34.0525 25.6352 34.2747 25.7493C36.0429 26.6546 37.485 27.9435 38.7169 29.492C39.5189 30.4993 40.2145 31.5721 40.7556 32.742C41.0672 33.4168 41.3233 34.1182 41.601 34.81C41.6276 34.8779 41.6324 34.958 41.6373 35.0333C41.6663 35.4726 41.5986 35.56 41.1711 35.56C39.601 35.5648 38.0309 35.5551 36.4608 35.5673C36.1564 35.5697 36.0187 35.4241 35.9221 35.1741C35.538 34.1716 35.0259 33.2396 34.41 32.361C33.3665 30.8658 32.0114 29.776 30.3253 29.1037C29.318 28.7008 28.4967 28.492 27.7817 28.4677L27.7769 28.4726Z" fill="white"/>
<path d="M25.4917 0.5C38.9542 0.5 49.8716 11.4668 49.8716 25C49.8716 38.5332 38.9542 49.5 25.4917 49.5C12.0293 49.4999 1.11182 38.5332 1.11182 25C1.11182 11.4668 12.0293 0.500098 25.4917 0.5Z" stroke="white" stroke-miterlimit="10"/>
</svg>
