<svg width="60" height="60" viewBox="0 0 60 60" fill="none" xmlns="http://www.w3.org/2000/svg">
<path d="M31.4379 30.0969C31.6143 30.013 31.7543 29.957 31.8803 29.8814C32.947 29.2515 34.0136 28.6187 35.0775 27.9832C36.161 27.3365 37.2501 26.701 38.3195 26.029C39.0474 25.5699 39.7418 25.0603 40.4529 24.5732C41.1052 24.1281 41.2312 23.5317 40.982 22.8122C40.8644 22.4707 40.7776 22.1179 40.6825 21.7707C40.6293 21.5776 40.6825 21.4124 40.8532 21.3088C41.0296 21.2024 41.2032 21.2864 41.3068 21.418C41.6511 21.8575 42.0151 22.2915 42.2979 22.773C42.953 23.8845 43.5829 25.0156 44.1876 26.155C44.4816 26.7094 44.714 27.2973 44.9491 27.8796C45.0415 28.112 44.9211 28.2156 44.6776 28.1372C44.5348 28.0896 44.3864 28.0252 44.2688 27.9328C43.5969 27.3953 42.8802 27.3925 42.1523 27.7676C40.9148 28.406 39.6802 29.0499 38.4595 29.719C37.488 30.2509 36.5305 30.8109 35.5815 31.382C34.9543 31.76 34.3468 32.1687 33.7449 32.5803C33.3669 32.8378 33.3613 33.0086 33.7477 33.2718C34.3496 33.6833 34.9627 34.0837 35.5983 34.442C36.6425 35.0328 37.7008 35.5983 38.7675 36.147C39.9489 36.7546 41.1388 37.3537 42.3427 37.9192C43.1826 38.314 43.0734 38.3 43.8377 37.6729C44.1232 37.4405 44.3724 37.1633 44.644 36.9141C44.8456 36.7294 45.0667 36.5866 45.3635 36.6006C45.6855 36.6174 45.8058 36.7658 45.6771 37.0653C45.5259 37.4181 45.3635 37.7708 45.1703 38.0984C44.5488 39.1427 43.9021 40.173 43.2805 41.2172C42.8746 41.8975 42.5022 42.5947 42.1047 43.2806C41.8779 43.6697 41.5168 43.7509 41.2956 43.4458C41.1976 43.3114 41.1528 43.1014 41.164 42.9306C41.1808 42.6647 41.2564 42.4015 41.3292 42.1411C41.3796 41.9619 41.332 41.8444 41.206 41.71C40.4781 40.9401 39.5934 40.3773 38.6947 39.8426C36.8609 38.7563 35.0187 37.6896 33.1737 36.6202C32.8154 36.413 32.4458 36.2198 32.0763 36.035C31.8299 35.9091 31.7319 35.9595 31.7179 36.2394C31.6843 36.9365 31.6563 37.6365 31.6535 38.3336C31.6535 39.8874 31.6563 41.444 31.6843 42.9978C31.7095 44.4536 31.7599 45.9067 31.8215 47.3597C31.8355 47.6593 31.9251 47.9644 32.0203 48.2528C32.1463 48.6335 32.4542 48.8575 32.8014 49.0311C33.0002 49.1319 33.2045 49.2243 33.3865 49.3503C33.4761 49.4119 33.5209 49.5406 33.5853 49.6386C33.4873 49.6946 33.3977 49.7814 33.2941 49.7982C32.9694 49.8542 32.6418 49.9046 32.3114 49.9214C31.7655 49.9522 31.2196 49.9662 30.6736 49.9746C29.5202 49.9942 28.3639 50.0054 27.2105 50.0166C27.0733 50.0166 26.9305 50.0166 26.7989 49.9802C26.5525 49.9158 26.4993 49.6946 26.6925 49.5322C26.8073 49.4371 26.9473 49.3559 27.0901 49.3083C27.7032 49.1039 28.0699 48.6895 28.1651 48.0512C28.2127 47.7321 28.2743 47.4129 28.2827 47.0909C28.3051 46.2762 28.3023 45.4615 28.3107 44.644C28.3191 43.4122 28.3303 42.1803 28.3359 40.9485C28.3387 39.8874 28.3415 38.8263 28.3359 37.7652C28.3331 37.2333 28.3107 36.7042 28.2967 36.1722C28.2967 36.091 28.2799 36.007 28.2631 35.8755C28.0448 35.9735 27.8488 36.0378 27.6752 36.1414C27.0481 36.5166 26.4321 36.9085 25.8078 37.2865C25.0715 37.7316 24.3268 38.1656 23.5877 38.6079C22.4454 39.2883 21.2976 39.963 20.1637 40.6573C19.7297 40.9205 19.3294 41.234 18.9094 41.5224C18.4251 41.8556 18.2319 42.2895 18.3747 42.8774C18.4335 43.121 18.4559 43.3786 18.4643 43.6333C18.4671 43.7509 18.4195 43.9497 18.3523 43.9693C18.2347 44.0029 18.0527 43.9693 17.9575 43.8881C17.77 43.7341 17.5992 43.5438 17.4676 43.3394C16.8993 42.4547 16.3449 41.556 15.785 40.6657C15.4406 40.1198 15.0879 39.5766 14.7547 39.0251C14.6203 38.8039 14.5084 38.5631 14.4244 38.3168C14.3908 38.216 14.4132 38.034 14.486 37.9724C14.5588 37.908 14.7407 37.9052 14.8387 37.95C15.0095 38.0284 15.1551 38.1628 15.3063 38.2832C15.5106 38.4456 15.715 38.6107 15.911 38.7815C16.0846 38.9327 16.2721 38.9439 16.4681 38.8487C17.1652 38.5072 17.8736 38.188 18.5511 37.8072C20.5556 36.679 22.5462 35.5311 24.5396 34.3804C25.1051 34.0529 25.6566 33.7029 26.211 33.353C26.4629 33.1934 26.4685 33.1038 26.211 32.9386C25.7126 32.6195 25.2115 32.3031 24.6935 32.0147C23.2573 31.214 21.8211 30.4077 20.3653 29.6406C19.0998 28.9771 17.812 28.3528 16.5213 27.7396C15.9082 27.4485 15.673 27.5297 15.2111 28.042C15.0571 28.2128 14.9087 28.392 14.7463 28.5571C14.6259 28.6803 14.5336 28.8875 14.2956 28.7643C14.038 28.6271 13.8952 28.3528 13.9736 28.0896C14.0352 27.8852 14.1136 27.6808 14.2116 27.4905C14.514 26.9109 14.8275 26.337 15.1411 25.7631C15.6506 24.8336 16.1574 23.8985 16.6809 22.9774C16.8237 22.7254 17.0085 22.4931 17.2044 22.2775C17.28 22.1935 17.4592 22.1151 17.5432 22.1515C17.6552 22.1991 17.7868 22.3531 17.7924 22.4679C17.8064 22.8402 17.812 23.2238 17.7392 23.5877C17.658 23.9853 17.8064 24.2596 18.0835 24.4752C18.5035 24.8 18.9262 25.1275 19.3798 25.3935C21.236 26.4854 23.1005 27.5577 24.9679 28.6327C25.847 29.1395 26.7373 29.6294 27.6192 30.1277C27.8964 30.2845 27.9804 30.2593 28 29.943C28.0392 29.3522 28.0616 28.7587 28.0616 28.168C28.0616 26.7289 28.0448 25.2899 28.0308 23.8509C28.0112 21.8267 27.9944 19.7998 27.9664 17.7756C27.9412 16.0202 27.9188 14.2648 27.8656 12.5094C27.8544 12.1399 27.7424 11.7703 27.6416 11.4092C27.5548 11.1012 27.3224 10.9556 26.9949 10.9052C26.5945 10.8436 26.2054 10.726 25.8134 10.6253C25.7518 10.6085 25.6762 10.5665 25.6454 10.5133C25.5642 10.3733 25.4411 10.2137 25.4579 10.0737C25.4691 9.98134 25.6818 9.86655 25.8162 9.84415C26.3174 9.76576 26.8213 9.67897 27.3252 9.67057C29.3746 9.63698 31.4212 9.62018 33.4705 9.62018C34.3636 9.62018 35.2567 9.65097 36.147 9.70137C37.0121 9.75176 37.796 10.0625 38.5071 10.5525C39.7306 11.3952 40.6237 12.4982 41.0884 13.9149C41.3292 14.6512 41.3712 15.4211 41.3572 16.1966C41.3432 16.8965 41.2144 17.574 41.024 18.2404C40.7972 19.0299 40.4137 19.7438 39.9209 20.4073C38.9075 21.7707 37.5356 22.605 35.937 23.0474C35.1139 23.2742 34.2432 23.3414 33.3893 23.4365C32.8714 23.4953 32.345 23.4701 31.8215 23.4757C31.6227 23.4757 31.5191 23.5541 31.5163 23.7585C31.5079 24.3884 31.4939 25.0212 31.4855 25.6511C31.4659 27.0369 31.4519 28.4227 31.4351 29.8086C31.4351 29.8814 31.4435 29.9542 31.4491 30.0802L31.4379 30.0969ZM31.354 19.3826C31.354 19.3826 31.3736 19.3826 31.3848 19.3826C31.3848 19.461 31.3848 19.5366 31.3848 19.615C31.3904 20.4017 31.3876 21.1856 31.4072 21.9695C31.4156 22.3027 31.4687 22.3503 31.8103 22.3643C32.2331 22.3839 32.6558 22.3923 33.0786 22.3783C34.624 22.3307 35.9594 21.7651 37.0569 20.6789C37.6756 20.0657 38.1096 19.3322 38.2075 18.4475C38.2523 18.036 38.2467 17.6188 38.2663 17.2017C38.3279 15.9278 38.0312 14.7352 37.3816 13.6489C36.6901 12.4926 35.7102 11.7087 34.3272 11.5352C33.5405 11.4372 32.7566 11.3308 31.9699 11.258C31.3932 11.2048 31.4324 11.1096 31.3568 11.7703C31.3512 11.8151 31.3428 11.8627 31.3428 11.9075C31.3484 12.9378 31.3568 13.9653 31.3596 14.9955C31.3624 16.457 31.3596 17.9184 31.3596 19.3798L31.354 19.3826Z" fill="#467687"/>
<path d="M29.8366 58.6732C45.7626 58.6732 58.6732 45.7626 58.6732 29.8366C58.6732 13.9106 45.7626 1 29.8366 1C13.9106 1 1 13.9106 1 29.8366C1 45.7626 13.9106 58.6732 29.8366 58.6732Z" stroke="#467687" stroke-miterlimit="10"/>
</svg>
