<svg width="40" height="40" viewBox="0 0 40 40" fill="none" xmlns="http://www.w3.org/2000/svg">
<rect x="0.5" y="0.5" width="39" height="39" rx="19.5" stroke="#467687"/>
<path d="M18.417 27.9521C19.1469 27.9521 19.7227 28.5313 19.7227 29.2266C19.7225 29.9217 19.1468 30.5 18.417 30.5C17.6872 30.4999 17.1115 29.9216 17.1113 29.2266C17.1113 28.5314 17.6871 27.9523 18.417 27.9521ZM24.9189 27.9521C25.6487 27.9524 26.2246 28.5315 26.2246 29.2266C26.2244 29.9215 25.6486 30.4998 24.9189 30.5C24.1891 30.5 23.6125 29.9217 23.6123 29.2266C23.6123 28.5313 24.189 27.9521 24.9189 27.9521ZM8.71777 9.5H11.8115C11.9758 9.5 12.2574 9.53183 12.5361 9.70312C12.8033 9.86748 13.1165 10.1889 13.3125 10.8555V10.8564L14.4736 14.7871L14.5791 15.1455H30.2832C30.3564 15.1455 30.4232 15.1807 30.4629 15.2354C30.4917 15.2755 30.5039 15.3232 30.499 15.3691L30.4883 15.415L30.4844 15.4248L27.0508 25.3877C27.0227 25.4648 26.9438 25.5244 26.8457 25.5244H17.0947C16.9908 25.5244 16.9086 25.4565 16.8848 25.373L12.8936 10.9668L12.8906 10.959L12.8447 10.8135C12.73 10.4879 12.5756 10.2514 12.377 10.0986C12.1332 9.91115 11.8976 9.90919 11.8115 9.90918H8.71777C8.58955 9.90918 8.5 9.80833 8.5 9.7041C8.50024 9.59971 8.58933 9.5 8.71777 9.5ZM14.873 16.1836L17.1572 24.7451L17.2559 25.1162H26.6992L26.8145 24.7773L29.7373 16.2168L29.9629 15.5557H14.7061L14.873 16.1836Z" fill="#467687" stroke="#467687"/>
</svg>
