<svg width="59" height="59" viewBox="0 0 59 59" fill="none" xmlns="http://www.w3.org/2000/svg">
<path d="M29.5 58C45.2401 58 58 45.2401 58 29.5C58 13.7599 45.2401 1 29.5 1C13.7599 1 1 13.7599 1 29.5C1 45.2401 13.7599 58 29.5 58Z" stroke="#4C1E00" stroke-width="2" stroke-miterlimit="10"/>
<path d="M29.5332 9.64697L29.2565 48.9382" stroke="#4C1E00" stroke-width="2" stroke-miterlimit="10"/>
<path d="M17.0624 26.9793L11.6833 13.1001H13.6728L17.281 23.183C17.5715 23.991 17.815 24.7491 18.0087 25.4547C18.2245 24.6966 18.4735 23.9412 18.7558 23.183L22.505 13.1001H24.3783L18.9439 26.9793H17.0596H17.0624Z" fill="#4C1E00" stroke="#4C1E00" stroke-width="2" stroke-miterlimit="10"/>
<path d="M34.1126 19.7076C34.1126 17.3418 34.749 15.488 36.019 14.1487C37.2891 12.8095 38.9299 12.1399 40.9415 12.1399C42.2586 12.1399 43.4456 12.4553 44.5026 13.0834C45.5596 13.7115 46.3648 14.5887 46.921 15.7148C47.4744 16.841 47.7538 18.1166 47.7538 19.5416C47.7538 20.9666 47.4633 22.2809 46.8795 23.4237C46.2956 24.5664 45.4683 25.4297 44.4002 26.0163C43.3294 26.603 42.1756 26.8962 40.936 26.8962C39.594 26.8962 38.3931 26.5725 37.3361 25.9223C36.2791 25.2748 35.4795 24.3894 34.9344 23.266C34.3893 22.1453 34.1181 20.9583 34.1181 19.7048L34.1126 19.7076ZM36.0578 19.738C36.0578 21.4563 36.5198 22.8094 37.444 23.8C38.3682 24.7878 39.5276 25.2831 40.9221 25.2831C42.3167 25.2831 43.512 24.785 44.4279 23.7862C45.3465 22.7873 45.8031 21.3706 45.8031 19.5361C45.8031 18.3739 45.6066 17.3612 45.2137 16.4951C44.8208 15.6291 44.2481 14.9595 43.4927 14.4808C42.7373 14.0048 41.8878 13.7669 40.9498 13.7669C39.6133 13.7669 38.465 14.2262 37.5021 15.1421C36.5392 16.0607 36.0578 17.5909 36.0578 19.738Z" fill="#4C1E00" stroke="#4C1E00" stroke-width="2" stroke-miterlimit="10"/>
<path d="M11.545 46.8103L17.0209 32.5492H19.0546L24.8902 46.8103H22.7402L21.0773 42.491H15.1144L13.5483 46.8103H11.545ZM15.6595 40.9553H20.4934L19.0048 37.0068C18.551 35.8059 18.2134 34.8209 17.9921 34.0489C17.8095 34.962 17.5549 35.8724 17.2229 36.7716L15.6567 40.9553H15.6595Z" fill="#4C1E00" stroke="#4C1E00" stroke-width="2" stroke-miterlimit="10"/>
<path d="M35.2443 32.6738H46.4616V46.9349H44.5635V34.3562H37.1314V46.9349H35.2443V32.6738Z" fill="#4C1E00" stroke="#4C1E00" stroke-width="2" stroke-miterlimit="10"/>
<path d="M49.1456 29.5H9.85437" stroke="#4C1E00" stroke-width="2" stroke-miterlimit="10"/>
</svg>
