<svg width="60" height="60" viewBox="0 0 60 60" fill="none" xmlns="http://www.w3.org/2000/svg">
<path d="M29.8366 58.6732C45.7626 58.6732 58.6732 45.7626 58.6732 29.8366C58.6732 13.9106 45.7626 1 29.8366 1C13.9106 1 1 13.9106 1 29.8366C1 45.7626 13.9106 58.6732 29.8366 58.6732Z" stroke="#467687" stroke-miterlimit="10"/>
<path d="M29.8367 32.0763C31.0736 32.0763 32.0764 31.0735 32.0764 29.8365C32.0764 28.5996 31.0736 27.5968 29.8367 27.5968C28.5997 27.5968 27.5969 28.5996 27.5969 29.8365C27.5969 31.0735 28.5997 32.0763 29.8367 32.0763Z" fill="#467687"/>
<path d="M31.1777 10.8828L29.8563 2.42499L28.5376 10.8828L27.219 19.3378H27.177L28.5068 22.7814L29.8367 26.2222L31.1665 22.7814L32.4964 19.3378L31.1777 10.8828Z" fill="#467687"/>
<path d="M28.4956 48.7903L29.8171 57.2481L31.1357 48.7903L32.4544 40.3353H32.4964L31.1665 36.8917L29.8367 33.4509L28.5068 36.8917L27.177 40.3353L28.4956 48.7903Z" fill="#467687"/>
<path d="M10.8828 28.3835L2.42505 29.7021L10.8828 31.0235L19.3378 32.3422V32.3814L22.7814 31.0515L26.2222 29.7217L22.7814 28.3919L19.3378 27.062L10.8828 28.3835Z" fill="#467687"/>
<path d="M29.8366 33.4762C31.8467 33.4762 33.4762 31.8467 33.4762 29.8366C33.4762 27.8265 31.8467 26.197 29.8366 26.197C27.8265 26.197 26.197 27.8265 26.197 29.8366C26.197 31.8467 27.8265 33.4762 29.8366 33.4762Z" stroke="#467687" stroke-miterlimit="10"/>
<path d="M48.7903 31.0627L57.2481 29.7441L48.7903 28.4227L40.3353 27.104V27.062L36.8917 28.3919L33.4509 29.7217L36.8917 31.0515L40.3353 32.3814L48.7903 31.0627Z" fill="#467687"/>
<path d="M17.3809 15.4855L10.4685 10.4405L15.5163 17.3529L20.5613 24.2652L20.5333 24.2932L23.9069 25.7883L27.2805 27.2805L25.7883 23.9069L24.2933 20.5333L17.3809 15.4855Z" fill="#467687"/>
<path d="M42.2922 44.1877L49.2046 49.2327L44.1568 42.3203L39.1118 35.4079L39.1398 35.3799L35.7662 33.8849L32.3926 32.3927L33.8848 35.7663L35.3798 39.1399L42.2922 44.1877Z" fill="#467687"/>
<path d="M15.4072 42.2111L10.3594 49.1235L17.2718 44.0785L24.1841 39.0307L24.2121 39.0615L25.7072 35.6851L27.2022 32.3115L23.8258 33.8065L20.4522 35.2988L15.4072 42.2111Z" fill="#467687"/>
<path d="M44.1065 17.3025L49.1515 10.3901L42.2419 15.4351L35.3296 20.4801L35.2988 20.4521L33.8065 23.8257L32.3115 27.2021L35.6851 25.7071L39.0615 24.2121L44.1065 17.3025Z" fill="#467687"/>
</svg>
