<svg width="60" height="60" viewBox="0 0 60 60" fill="none" xmlns="http://www.w3.org/2000/svg">
<path d="M29.8366 58.6732C45.7626 58.6732 58.6732 45.7626 58.6732 29.8366C58.6732 13.9106 45.7626 1 29.8366 1C13.9106 1 1 13.9106 1 29.8366C1 45.7626 13.9106 58.6732 29.8366 58.6732Z" stroke="#4C1E00" stroke-width="2" stroke-miterlimit="10"/>
<path d="M23.6941 37.8186L42.3287 19.184C42.7906 18.722 43.3366 18.3581 43.9385 18.1061C44.5404 17.8569 45.1872 17.7281 45.8367 17.7281C46.4862 17.7281 47.1329 17.8569 47.7349 18.1061C48.3368 18.3553 48.8827 18.722 49.3447 19.184C49.8066 19.6459 50.1706 20.1919 50.4225 20.7938C50.6717 21.3957 50.8005 22.0424 50.8005 22.692C50.8005 23.3415 50.6717 23.9882 50.4225 24.5901C50.1734 25.1921 49.8066 25.738 49.3447 26.1999L37.7456 37.8158C35.8811 39.6775 33.353 40.7218 30.7185 40.7218C28.084 40.7218 25.5559 39.6775 23.6913 37.8158L23.6941 37.8186Z" fill="#4C1E00"/>
<path d="M36.0546 21.7316L17.4201 40.3662C16.9581 40.8282 16.4122 41.1921 15.8102 41.4441C15.2083 41.6933 14.5616 41.822 13.9121 41.822C13.2625 41.822 12.6158 41.6933 12.0139 41.4441C11.412 41.1949 10.866 40.8282 10.4041 40.3662C9.4746 39.4339 8.95386 38.1713 8.95386 36.8582C8.95386 35.5452 9.4746 34.2825 10.4041 33.3502L22.0031 21.7344C23.8677 19.8726 26.3958 18.8284 29.0303 18.8284C31.6648 18.8284 34.1929 19.8726 36.0574 21.7344L36.0546 21.7316Z" fill="#4C1E00"/>
</svg>
