<svg width="60" height="60" viewBox="0 0 60 60" fill="none" xmlns="http://www.w3.org/2000/svg">
<path d="M29.8366 58.6732C45.7626 58.6732 58.6732 45.7626 58.6732 29.8366C58.6732 13.9106 45.7626 1 29.8366 1C13.9106 1 1 13.9106 1 29.8366C1 45.7626 13.9106 58.6732 29.8366 58.6732Z" stroke="#4C1E00" stroke-width="2" stroke-miterlimit="10"/>
<path d="M37.9584 53.5582V39.0755H30.9929V54.0201C30.0914 54.0901 29.4866 53.9725 28.5935 54.0397C28.3724 49.0591 28.7531 44.2185 28.2968 39.1091C26.1606 39.1091 24.0301 39.0923 21.7539 39.0923C21.6756 39.9686 21.6308 40.8001 21.6252 41.6148C21.6112 45.0724 21.6476 48.5328 21.642 51.9903C21.6392 53.8997 21.6476 53.435 19.2202 53.5302C19.2202 52.6119 19.1559 52.2003 19.1587 51.2932C19.1755 46.1446 19.1923 40.9988 19.209 35.8503C19.209 35.4303 19.0887 34.3888 18.9683 34.0249C18.7807 33.4481 18.302 33.1682 17.7028 33.0114C17.1541 32.9274 16.5746 33.3642 16.1826 33.7701C15.7599 34.2069 15.7851 35.1475 15.6731 35.7887C15.6759 36.8105 14.7744 36.8105 13.9877 36.6426C13.4529 33.9689 14.5252 31.5976 16.4934 31.0852C19.2034 30.3825 20.4689 31.8047 21.7567 36.049C23.0166 36.049 24.7356 36.021 26.071 36.0014C26.729 35.9902 27.3841 35.9146 28.4088 35.8391C28.4088 33.4985 28.434 31.256 28.3808 29.0191C28.3724 28.6551 28.0784 28.2324 27.8012 27.9524C26.2614 26.4042 24.6824 24.8896 22.9886 23.2378C21.9303 24.1252 20.97 24.9232 20.0154 25.7323C19.0187 26.5778 18.0099 26.3463 16.9889 25.0379C18.8087 23.4085 20.6453 21.7623 22.6722 19.9453C25.1555 22.2747 27.4597 24.4388 29.9738 26.7961C31.7236 25.1975 33.3782 23.6857 35.2595 21.9695C34.5512 21.1408 33.9577 20.3737 33.2914 19.6794C31.774 18.0976 30.139 16.6249 28.6999 14.9759C26.2614 12.1847 26.5778 9.00704 29.3746 6.8009C31.844 4.85513 35.1924 5.37027 37.3761 8.07195C37.3005 8.27353 37.1045 8.5199 36.9561 8.69348C36.6874 9.00704 36.511 9.28421 36.1134 9.64257C35.5199 9.25621 34.9936 8.86706 34.4224 8.5507C33.0534 7.79479 31.3792 8.01036 30.4693 9.01824C29.3606 10.2473 29.2655 11.7675 30.5029 13.1226C32.5467 15.3623 34.7416 17.462 36.8582 19.6346C37.4293 20.2197 37.9416 20.8636 38.6443 21.6671C36.8134 23.4141 35.1812 24.3968 33.409 26.169C31.6368 27.6892 30.8753 29.7162 30.9173 31.9671C30.8753 33.0086 30.9425 34.3104 30.9425 35.7355H37.7373C37.824 35.2931 37.9108 34.7388 38.0396 34.1957C38.5856 31.8831 40.4613 30.6373 42.7571 31.0488C44.6888 31.396 46.0691 33.5013 45.7891 35.6739C45.7219 36.1927 45.1601 36.4681 44.1037 36.4998C43.9133 35.8027 43.8573 34.9992 43.4794 34.4C43.1602 33.8933 42.3987 33.2522 41.9536 33.3334C41.3432 33.4425 40.6741 34.0865 40.3521 34.6772C40.0582 35.2147 40.1422 35.9874 40.1422 36.6566C40.1338 41.7184 40.1478 46.7802 40.1534 51.8448C40.1534 53.0971 39.4236 53.6664 37.964 53.5526L37.9584 53.5582Z" fill="#4C1E00"/>
</svg>
