<svg width="60" height="60" viewBox="0 0 60 60" fill="none" xmlns="http://www.w3.org/2000/svg">
<path d="M29.8366 58.6732C45.7626 58.6732 58.6732 45.7626 58.6732 29.8366C58.6732 13.9106 45.7626 1 29.8366 1C13.9106 1 1 13.9106 1 29.8366C1 45.7626 13.9106 58.6732 29.8366 58.6732Z" stroke="#467687" stroke-miterlimit="10"/>
<path d="M37.9585 53.5582V39.0755H30.9929V54.0202C30.0914 54.0902 29.4867 53.9726 28.5936 54.0398C28.3724 49.0591 28.7532 44.2185 28.2969 39.1091C26.1607 39.1091 24.0302 39.0923 21.754 39.0923C21.6756 39.9686 21.6308 40.8001 21.6252 41.6148C21.6112 45.0724 21.6476 48.5328 21.642 51.9904C21.6392 53.8998 21.6476 53.435 19.2203 53.5302C19.2203 52.6119 19.1559 52.2004 19.1587 51.2933C19.1755 46.1447 19.1923 40.9989 19.2091 35.8503C19.2091 35.4304 19.0887 34.3889 18.9684 34.0249C18.7808 33.4482 18.302 33.1682 17.7029 33.0115C17.1542 32.9275 16.5746 33.3642 16.1827 33.7702C15.7599 34.2069 15.7851 35.1476 15.6732 35.7887C15.676 36.8106 14.7745 36.8106 13.9878 36.6426C13.453 33.9689 14.5253 31.5976 16.4935 31.0853C19.2035 30.3826 20.469 31.8048 21.7568 36.0491C23.0167 36.0491 24.7357 36.0211 26.0711 36.0015C26.729 35.9903 27.3842 35.9147 28.4088 35.8391C28.4088 33.4986 28.434 31.2561 28.3808 29.0191C28.3724 28.6552 28.0785 28.2324 27.8013 27.9525C26.2615 26.4042 24.6825 24.8896 22.9887 23.2378C21.9304 24.1253 20.9701 24.9232 20.0154 25.7323C19.0188 26.5778 18.0099 26.3464 16.989 25.038C18.8088 23.4086 20.6454 21.7624 22.6723 19.9454C25.1556 22.2747 27.4598 24.4389 29.9739 26.7962C31.7236 25.1976 33.3783 23.6858 35.2596 21.9696C34.5513 21.1409 33.9578 20.3738 33.2915 19.6794C31.774 18.0976 30.139 16.625 28.7 14.976C26.2615 12.1847 26.5779 9.0071 29.3747 6.80096C31.844 4.85519 35.1924 5.37033 37.3762 8.07201C37.3006 8.27359 37.1046 8.51996 36.9562 8.69354C36.6875 9.0071 36.5111 9.28427 36.1135 9.64263C35.52 9.25627 34.9937 8.86712 34.4225 8.55076C33.0535 7.79485 31.3793 8.01042 30.4694 9.0183C29.3607 10.2474 29.2655 11.7676 30.503 13.1226C32.5468 15.3623 34.7417 17.4621 36.8582 19.6346C37.4294 20.2198 37.9417 20.8637 38.6444 21.6672C36.8134 23.4142 35.1812 24.3969 33.4091 26.1691C31.6369 27.6893 30.8753 29.7162 30.9173 31.9672C30.8753 33.0087 30.9425 34.3105 30.9425 35.7355H37.7373C37.8241 35.2932 37.9109 34.7388 38.0397 34.1957C38.5856 31.8832 40.4614 30.6373 42.7571 31.0489C44.6889 31.396 46.0691 33.5014 45.7892 35.6739C45.722 36.1928 45.1602 36.4681 44.1038 36.4998C43.9134 35.8027 43.8574 34.9992 43.4795 34.4001C43.1603 33.8933 42.3988 33.2522 41.9536 33.3334C41.3433 33.4426 40.6742 34.0865 40.3522 34.6773C40.0583 35.2148 40.1423 35.9875 40.1423 36.6566C40.1339 41.7184 40.1479 46.7802 40.1535 51.8448C40.1535 53.0972 39.4237 53.6665 37.9641 53.5526L37.9585 53.5582Z" fill="#467687"/>
</svg>
