<svg width="59" height="59" viewBox="0 0 59 59" fill="none" xmlns="http://www.w3.org/2000/svg">
<path d="M29.5 58C45.2401 58 58 45.2401 58 29.5C58 13.7599 45.2401 1 29.5 1C13.7599 1 1 13.7599 1 29.5C1 45.2401 13.7599 58 29.5 58Z" stroke="#467687" stroke-miterlimit="10"/>
<path d="M29.5333 9.64694L29.2566 48.9382" stroke="#467687" stroke-miterlimit="10"/>
<path d="M17.0626 26.9793L11.6836 13.1001H13.6731L17.2812 23.183C17.5717 23.991 17.8152 24.7491 18.0089 25.4547C18.2248 24.6966 18.4738 23.9412 18.756 23.183L22.5053 13.1001H24.3785L18.9442 26.9793H17.0599H17.0626Z" fill="#467687" stroke="#467687" stroke-miterlimit="10"/>
<path d="M34.1128 19.7076C34.1128 17.3418 34.7492 15.488 36.0192 14.1487C37.2893 12.8095 38.9301 12.1399 40.9417 12.1399C42.2588 12.1399 43.4459 12.4553 44.5028 13.0834C45.5598 13.7115 46.365 14.5887 46.9212 15.7148C47.4746 16.841 47.7541 18.1166 47.7541 19.5416C47.7541 20.9666 47.4635 22.2809 46.8797 23.4237C46.2959 24.5664 45.4685 25.4297 44.4005 26.0163C43.3296 26.603 42.1758 26.8963 40.9362 26.8963C39.5942 26.8963 38.3933 26.5725 37.3363 25.9223C36.2793 25.2748 35.4797 24.3894 34.9346 23.266C34.3895 22.1453 34.1183 20.9583 34.1183 19.7048L34.1128 19.7076ZM36.058 19.738C36.058 21.4563 36.5201 22.8094 37.4443 23.8C38.3684 24.7878 39.5278 25.2831 40.9224 25.2831C42.3169 25.2831 43.5123 24.785 44.4281 23.7862C45.3468 22.7873 45.8033 21.3706 45.8033 19.5361C45.8033 18.3739 45.6069 17.3612 45.214 16.4951C44.821 15.6291 44.2483 14.9595 43.4929 14.4808C42.7375 14.0048 41.888 13.7669 40.95 13.7669C39.6136 13.7669 38.4653 14.2262 37.5024 15.1421C36.5394 16.0607 36.058 17.5909 36.058 19.738Z" fill="#467687" stroke="#467687" stroke-miterlimit="10"/>
<path d="M11.5449 46.8103L17.0208 32.5492H19.0545L24.8901 46.8103H22.7402L21.0772 42.491H15.1143L13.5482 46.8103H11.5449ZM15.6594 40.9553H20.4934L19.0047 37.0068C18.5509 35.806 18.2134 34.8209 17.992 34.0489C17.8094 34.962 17.5548 35.8724 17.2228 36.7717L15.6567 40.9553H15.6594Z" fill="#467687" stroke="#467687" stroke-miterlimit="10"/>
<path d="M35.2444 32.6738H46.4618V46.9349H44.5636V34.3562H37.1315V46.9349H35.2444V32.6738Z" fill="#467687" stroke="#467687" stroke-miterlimit="10"/>
<path d="M49.1458 29.5H9.85449" stroke="#467687" stroke-miterlimit="10"/>
</svg>
