<svg width="261" height="39" viewBox="0 0 261 39" fill="none" xmlns="http://www.w3.org/2000/svg">
<path d="M1.96777 35.7588V2.23828H14.3976C16.9294 2.23828 18.9584 2.57687 20.4881 3.25583C22.0177 3.93478 23.2144 4.97892 24.0818 6.38824C24.9473 7.79755 25.3819 9.27246 25.3819 10.813C25.3819 12.2453 24.9981 13.5944 24.2289 14.8601C23.4597 16.1258 22.2998 17.1469 20.7491 17.9234C22.7536 18.5172 24.2938 19.5312 25.3713 20.9636C26.4489 22.396 26.9868 24.0889 26.9868 26.0389C26.9868 27.6096 26.6592 29.0685 26.0039 30.4175C25.3486 31.7666 24.5391 32.8072 23.5736 33.5393C22.6099 34.2715 21.4009 34.8245 19.9467 35.1968C18.4924 35.5709 16.7104 35.757 14.6026 35.757H1.96777V35.7588ZM6.35167 16.3244H13.5162C15.4594 16.3244 16.8523 16.195 17.6969 15.9361C18.8113 15.6011 19.6523 15.0445 20.2165 14.2662C20.7807 13.488 21.0645 12.513 21.0645 11.3395C21.0645 10.2262 20.8017 9.24764 20.2743 8.40205C19.7469 7.55646 18.9935 6.97678 18.014 6.66478C17.0346 6.35278 15.3543 6.19678 12.9748 6.19678H6.35342V16.3261L6.35167 16.3244ZM6.35167 31.8038H14.6008C16.0166 31.8038 17.0118 31.7506 17.5848 31.6443C18.594 31.4617 19.4385 31.1568 20.1166 30.7296C20.7947 30.3023 21.3519 29.6819 21.7882 28.8664C22.2245 28.051 22.4435 27.1096 22.4435 26.0425C22.4435 24.7927 22.1263 23.706 21.4938 22.7842C20.8613 21.8624 19.9835 21.2136 18.8603 20.8413C17.7372 20.4672 16.1217 20.2811 14.0121 20.2811H6.35167V31.8056V31.8038Z" fill="white"/>
<path d="M91.3276 2.23828V6.19324H73.5415L84.8411 18.3577L73.5415 31.8021H92.2545V35.757H68.7966V31.1391L79.6215 18.3577L68.7966 6.69669V2.23828H91.3294H91.3276Z" fill="white"/>
<path d="M97.7686 35.7588V2.23828H123.758V35.7588H119.374V6.19501H102.154V35.7588H97.7703H97.7686Z" fill="white"/>
<path d="M167.059 35.7588V2.23828H179.557C181.756 2.23828 183.437 2.34464 184.597 2.55914C186.224 2.83392 187.588 3.3551 188.688 4.12446C189.788 4.89383 190.673 5.97342 191.344 7.35969C192.015 8.74773 192.35 10.2723 192.35 11.9333C192.35 14.7839 191.453 17.1966 189.66 19.1696C187.868 21.1444 184.628 22.1301 179.943 22.1301H171.445V35.757H167.061L167.059 35.7588ZM171.443 18.1751H180.008C182.841 18.1751 184.851 17.6415 186.042 16.5743C187.232 15.5071 187.828 14.0056 187.828 12.0698C187.828 10.6676 187.477 9.46746 186.776 8.46942C186.075 7.47137 185.152 6.81192 184.008 6.49105C183.27 6.29251 181.905 6.19323 179.917 6.19323H171.441V18.1751H171.443Z" fill="white"/>
<path d="M241.773 35.7588V21.5592L229.003 2.23828H234.337L240.869 12.3446C242.074 14.2343 243.197 16.1258 244.236 18.0156C245.23 16.2623 246.435 14.2893 247.853 12.0929L254.271 2.23828H259.379L246.157 21.5592V35.7588H241.773Z" fill="white"/>
<path d="M47.9758 1.57031C38.4441 1.57031 30.717 9.38804 30.717 19.0317C30.717 28.6753 38.4441 36.493 47.9758 36.493C57.5075 36.493 65.2345 28.6753 65.2345 19.0317C65.2345 9.38804 57.5075 1.57031 47.9758 1.57031ZM47.9758 32.0612C40.8638 32.0612 35.0974 26.2272 35.0974 19.0317C35.0974 11.8362 40.8638 6.00213 47.9758 6.00213C55.0878 6.00213 60.8541 11.8362 60.8541 19.0317C60.8541 26.2272 55.0878 32.0612 47.9758 32.0612Z" fill="white"/>
<path d="M145.515 1.50781C135.983 1.50781 128.256 9.32554 128.256 18.9692C128.256 28.6128 135.983 36.4305 145.515 36.4305C155.047 36.4305 162.774 28.6128 162.774 18.9692C162.774 9.32554 155.047 1.50781 145.515 1.50781ZM145.515 31.9987C138.403 31.9987 132.636 26.1647 132.636 18.9692C132.636 11.7737 138.403 5.93963 145.515 5.93963C152.627 5.93963 158.393 11.7737 158.393 18.9692C158.393 26.1647 152.627 31.9987 145.515 31.9987Z" fill="white"/>
<path d="M212.447 1.50781C202.916 1.50781 195.189 9.32554 195.189 18.9692C195.189 28.6128 202.916 36.4305 212.447 36.4305C221.979 36.4305 229.706 28.6128 229.706 18.9692C229.706 9.32554 221.979 1.50781 212.447 1.50781ZM212.447 31.9987C205.335 31.9987 199.569 26.1647 199.569 18.9692C199.569 11.7737 205.335 5.93963 212.447 5.93963C219.559 5.93963 225.326 11.7737 225.326 18.9692C225.326 26.1647 219.559 31.9987 212.447 31.9987Z" fill="white"/>
<path d="M4.29279 37.7059C6.66362 37.7059 8.58557 35.7614 8.58557 33.3627C8.58557 30.964 6.66362 29.0195 4.29279 29.0195C1.92195 29.0195 0 30.964 0 33.3627C0 35.7614 1.92195 37.7059 4.29279 37.7059Z" fill="white"/>
<path d="M4.29279 8.81136C6.66362 8.81136 8.58557 6.86685 8.58557 4.46818C8.58557 2.06951 6.66362 0.125 4.29279 0.125C1.92195 0.125 0 2.06951 0 4.46818C0 6.86685 1.92195 8.81136 4.29279 8.81136Z" fill="white"/>
<path d="M70.4962 8.68636C72.867 8.68636 74.7889 6.74185 74.7889 4.34318C74.7889 1.94451 72.867 0 70.4962 0C68.1253 0 66.2034 1.94451 66.2034 4.34318C66.2034 6.74185 68.1253 8.68636 70.4962 8.68636Z" fill="white"/>
<path d="M89.0692 8.68636C91.44 8.68636 93.3619 6.74185 93.3619 4.34318C93.3619 1.94451 91.44 0 89.0692 0C86.6983 0 84.7764 1.94451 84.7764 4.34318C84.7764 6.74185 86.6983 8.68636 89.0692 8.68636Z" fill="white"/>
<path d="M81.0091 22.5145C83.3799 22.5145 85.3019 20.57 85.3019 18.1713C85.3019 15.7726 83.3799 13.8281 81.0091 13.8281C78.6383 13.8281 76.7163 15.7726 76.7163 18.1713C76.7163 20.57 78.6383 22.5145 81.0091 22.5145Z" fill="white"/>
<path d="M70.4962 37.5828C72.867 37.5828 74.7889 35.6383 74.7889 33.2397C74.7889 30.841 72.867 28.8965 70.4962 28.8965C68.1253 28.8965 66.2034 30.841 66.2034 33.2397C66.2034 35.6383 68.1253 37.5828 70.4962 37.5828Z" fill="white"/>
<path d="M89.0692 38.1141C91.44 38.1141 93.3619 36.1696 93.3619 33.7709C93.3619 31.3722 91.44 29.4277 89.0692 29.4277C86.6983 29.4277 84.7764 31.3722 84.7764 33.7709C84.7764 36.1696 86.6983 38.1141 89.0692 38.1141Z" fill="white"/>
<path d="M100.283 9.04183C102.654 9.04183 104.576 7.09732 104.576 4.69865C104.576 2.29998 102.654 0.355469 100.283 0.355469C97.9122 0.355469 95.9902 2.29998 95.9902 4.69865C95.9902 7.09732 97.9122 9.04183 100.283 9.04183Z" fill="white"/>
<path d="M121.659 8.68636C124.03 8.68636 125.952 6.74185 125.952 4.34318C125.952 1.94451 124.03 0 121.659 0C119.288 0 117.366 1.94451 117.366 4.34318C117.366 6.74185 119.288 8.68636 121.659 8.68636Z" fill="white"/>
<path d="M100.283 38.1141C102.654 38.1141 104.576 36.1696 104.576 33.7709C104.576 31.3722 102.654 29.4277 100.283 29.4277C97.9122 29.4277 95.9902 31.3722 95.9902 33.7709C95.9902 36.1696 97.9122 38.1141 100.283 38.1141Z" fill="white"/>
<path d="M121.659 38.1141C124.03 38.1141 125.952 36.1696 125.952 33.7709C125.952 31.3722 124.03 29.4277 121.659 29.4277C119.288 29.4277 117.366 31.3722 117.366 33.7709C117.366 36.1696 119.288 38.1141 121.659 38.1141Z" fill="white"/>
<path d="M169.493 9.04183C171.864 9.04183 173.786 7.09732 173.786 4.69865C173.786 2.29998 171.864 0.355469 169.493 0.355469C167.122 0.355469 165.2 2.29998 165.2 4.69865C165.2 7.09732 167.122 9.04183 169.493 9.04183Z" fill="white"/>
<path d="M169.493 39.0008C171.864 39.0008 173.786 37.0563 173.786 34.6576C173.786 32.259 171.864 30.3145 169.493 30.3145C167.122 30.3145 165.2 32.259 165.2 34.6576C165.2 37.0563 167.122 39.0008 169.493 39.0008Z" fill="white"/>
<path d="M231.87 8.68636C234.241 8.68636 236.163 6.74185 236.163 4.34318C236.163 1.94451 234.241 0 231.87 0C229.499 0 227.577 1.94451 227.577 4.34318C227.577 6.74185 229.499 8.68636 231.87 8.68636Z" fill="white"/>
<path d="M256.4 8.68636C258.771 8.68636 260.693 6.74185 260.693 4.34318C260.693 1.94451 258.771 0 256.4 0C254.029 0 252.107 1.94451 252.107 4.34318C252.107 6.74185 254.029 8.68636 256.4 8.68636Z" fill="white"/>
<path d="M244.135 39.0008C246.506 39.0008 248.428 37.0563 248.428 34.6576C248.428 32.259 246.506 30.3145 244.135 30.3145C241.764 30.3145 239.842 32.259 239.842 34.6576C239.842 37.0563 241.764 39.0008 244.135 39.0008Z" fill="white"/>
</svg>
